<svg width="113" height="113" viewBox="0 0 113 113" fill="none" xmlns="http://www.w3.org/2000/svg">
<circle cx="56.5" cy="56.5" r="56.5" fill="white"/>
<path d="M56.875 52.25C49.9414 52.25 44.375 46.6836 44.375 39.75C44.375 32.9141 49.9414 27.25 56.875 27.25C63.7109 27.25 69.375 32.9141 69.375 39.75C69.375 46.6836 63.7109 52.25 56.875 52.25ZM65.5664 55.375C72.793 55.375 78.75 61.332 78.75 68.5586V72.5625C78.75 75.1992 76.6016 77.25 74.0625 77.25H39.6875C37.0508 77.25 35 75.1992 35 72.5625V68.5586C35 61.332 40.8594 55.375 48.0859 55.375H49.7461C51.8945 56.4492 54.3359 56.9375 56.875 56.9375C59.4141 56.9375 61.7578 56.4492 63.9062 55.375H65.5664Z" fill="#0080FF"/>
</svg>
