<svg width="43" height="43" viewBox="0 0 43 43" fill="none" xmlns="http://www.w3.org/2000/svg">
<circle cx="21.5" cy="21.5" r="21.5" fill="#F5F5F5"/>
<path d="M32.3414 24.4235L30.5653 22.9859C30.6494 22.4981 30.6928 22.0001 30.6928 21.5021C30.6928 21.0041 30.6494 20.506 30.5653 20.0183L32.3414 18.5807C32.4754 18.4721 32.5713 18.3275 32.6163 18.1661C32.6614 18.0047 32.6534 17.8341 32.5936 17.677L32.5692 17.6103C32.0802 16.3165 31.3481 15.1172 30.408 14.0702L30.3592 14.0163C30.2452 13.8894 30.0932 13.7981 29.9233 13.7546C29.7534 13.711 29.5736 13.7173 29.4075 13.7724L27.2029 14.5143C26.3894 13.8828 25.481 13.3848 24.4994 13.0356L24.0737 10.8536C24.0416 10.6894 23.9574 10.5383 23.8325 10.4205C23.7075 10.3026 23.5476 10.2236 23.3741 10.1938L23.3009 10.181C21.8881 9.93967 20.4022 9.93967 18.9894 10.181L18.9162 10.1938C18.7426 10.2236 18.5828 10.3026 18.4578 10.4205C18.3328 10.5383 18.2487 10.6894 18.2166 10.8536L17.7882 13.0459C16.8144 13.3951 15.9075 13.8929 15.1036 14.5195L12.8828 13.7724C12.7168 13.7168 12.5368 13.7104 12.3668 13.7539C12.1968 13.7975 12.0448 13.889 11.931 14.0163L11.8822 14.0702C10.9433 15.1179 10.2113 16.3171 9.72107 17.6103L9.69667 17.677C9.57464 17.9979 9.67497 18.3573 9.94885 18.5807L11.7467 20.0337C11.6626 20.5163 11.6219 21.0092 11.6219 21.4995C11.6219 21.9924 11.6626 22.4853 11.7467 22.9654L9.94885 24.4184C9.81488 24.5269 9.719 24.6715 9.67396 24.833C9.62891 24.9944 9.63683 25.1649 9.69667 25.322L9.72107 25.3887C10.2119 26.6826 10.9386 27.8763 11.8822 28.9288L11.931 28.9827C12.0451 29.1097 12.1971 29.2009 12.367 29.2445C12.5369 29.288 12.7167 29.2818 12.8828 29.2266L15.1036 28.4796C15.9117 29.1085 16.8147 29.6066 17.7882 29.9531L18.2166 32.1455C18.2487 32.3096 18.3328 32.4607 18.4578 32.5785C18.5828 32.6964 18.7426 32.7754 18.9162 32.8052L18.9894 32.818C20.4151 33.0606 21.8751 33.0606 23.3009 32.818L23.3741 32.8052C23.5476 32.7754 23.7075 32.6964 23.8325 32.5785C23.9574 32.4607 24.0416 32.3096 24.0737 32.1455L24.4994 29.9634C25.4806 29.6152 26.3941 29.1155 27.2029 28.4847L29.4075 29.2266C29.5735 29.2822 29.7535 29.2887 29.9235 29.2451C30.0935 29.2015 30.2455 29.11 30.3592 28.9827L30.408 28.9288C31.3517 27.8737 32.0784 26.6826 32.5692 25.3887L32.5936 25.322C32.7156 25.0062 32.6153 24.6468 32.3414 24.4235ZM28.6401 20.3212C28.7079 20.7088 28.7431 21.1067 28.7431 21.5046C28.7431 21.9026 28.7079 22.3005 28.6401 22.6881L28.4611 23.7175L30.4867 25.3579C30.1796 26.0277 29.792 26.6617 29.3315 27.2473L26.8151 26.4028L25.9637 27.0651C25.3156 27.5682 24.5943 27.9636 23.8134 28.2408L22.7802 28.6079L22.2949 31.0981C21.529 31.1802 20.7558 31.1802 19.99 31.0981L19.5046 28.6028L18.4796 28.2306C17.7068 27.9533 16.9882 27.558 16.3456 27.0574L15.4941 26.3925L12.9615 27.2448C12.5005 26.6569 12.1154 26.0228 11.8063 25.3554L13.8536 23.6996L13.6773 22.6727C13.6123 22.2902 13.577 21.8949 13.577 21.5046C13.577 21.1119 13.6095 20.7191 13.6773 20.3366L13.8536 19.3097L11.8063 17.6539C12.1127 16.9839 12.5005 16.3524 12.9615 15.7645L15.4941 16.6168L16.3456 15.9519C16.9882 15.4513 17.7068 15.056 18.4796 14.7787L19.5073 14.4116L19.9927 11.9164C20.7547 11.8342 21.5329 11.8342 22.2976 11.9164L22.783 14.4065L23.8161 14.7736C24.5943 15.0509 25.3183 15.4462 25.9664 15.9494L26.8179 16.6117L29.3342 15.7671C29.7952 16.355 30.1803 16.989 30.4894 17.6565L28.4638 19.2969L28.6401 20.3212ZM21.1479 16.7298C18.5122 16.7298 16.3754 18.7527 16.3754 21.2479C16.3754 23.7432 18.5122 25.7661 21.1479 25.7661C23.7835 25.7661 25.9203 23.7432 25.9203 21.2479C25.9203 18.7527 23.7835 16.7298 21.1479 16.7298ZM23.2955 23.2811C23.0138 23.5485 22.679 23.7606 22.3105 23.9051C21.9419 24.0496 21.5468 24.1237 21.1479 24.1231C20.3371 24.1231 19.5751 23.8228 19.0002 23.2811C18.7178 23.0144 18.4938 22.6975 18.3411 22.3486C18.1885 21.9997 18.1102 21.6256 18.1108 21.2479C18.1108 20.4804 18.4281 19.759 19.0002 19.2148C19.5751 18.6705 20.3371 18.3727 21.1479 18.3727C21.9586 18.3727 22.7206 18.6705 23.2955 19.2148C23.5779 19.4814 23.802 19.7983 23.9546 20.1473C24.1072 20.4962 24.1855 20.8703 24.1849 21.2479C24.1849 22.0155 23.8676 22.7369 23.2955 23.2811Z" fill="#28B411" fill-opacity="0.85"/>
</svg>
