<svg width="43" height="43" viewBox="0 0 43 43" fill="none" xmlns="http://www.w3.org/2000/svg">
<circle cx="21.5" cy="21.5" r="21.5" fill="#F5F5F5"/>
<path fill-rule="evenodd" clip-rule="evenodd" d="M28.2381 18.8571H26.6667V16.7619C26.6667 13.5797 24.087 11 20.9048 11C17.7226 11 15.1429 13.5797 15.1429 16.7619V18.8571H13.5714C12.7036 18.8571 12 19.5607 12 20.4286V30.9048C12 31.7726 12.7036 32.4762 13.5714 32.4762H28.2381C29.106 32.4762 29.8095 31.7726 29.8095 30.9048V20.4286C29.8095 19.5607 29.106 18.8571 28.2381 18.8571ZM16.7143 16.7619C16.7143 14.4476 18.5904 12.5714 20.9048 12.5714C23.2191 12.5714 25.0952 14.4476 25.0952 16.7619V18.8571H16.7143V16.7619ZM28.2381 30.9048H13.5714V20.4286H28.2381V30.9048Z" fill="#6284FD"/>
<path fill-rule="evenodd" clip-rule="evenodd" d="M21.1667 28.2856C22.4685 28.2856 23.5239 27.2302 23.5239 25.9284C23.5239 24.6266 22.4685 23.5713 21.1667 23.5713C19.8649 23.5713 18.8096 24.6266 18.8096 25.9284C18.8125 27.2291 19.8661 28.2827 21.1667 28.2856ZM21.1667 25.1427C21.6007 25.1427 21.9524 25.4945 21.9524 25.9284C21.9524 26.3624 21.6007 26.7141 21.1667 26.7141C20.7328 26.7141 20.381 26.3624 20.381 25.9284C20.381 25.4945 20.7328 25.1427 21.1667 25.1427Z" fill="#6284FD"/>
</svg>
