<svg width="43" height="43" viewBox="0 0 43 43" fill="none" xmlns="http://www.w3.org/2000/svg">
<circle cx="21.5" cy="21.5" r="21.5" fill="#F5F5F5"/>
<path d="M30.3938 27.9553C29.9096 26.8083 29.2069 25.7664 28.3248 24.8878C27.4455 24.0065 26.4038 23.3039 25.2573 22.8188C25.247 22.8136 25.2368 22.8111 25.2265 22.8059C26.8257 21.6508 27.8653 19.7692 27.8653 17.6463C27.8653 14.1296 25.016 11.2803 21.4993 11.2803C17.9825 11.2803 15.1332 14.1296 15.1332 17.6463C15.1332 19.7692 16.1728 21.6508 17.772 22.8085C17.7618 22.8136 17.7515 22.8162 17.7412 22.8213C16.5912 23.3065 15.5593 24.0022 14.6737 24.8903C13.7925 25.7697 13.0899 26.8114 12.6047 27.9578C12.1281 29.0803 11.871 30.2836 11.8475 31.5028C11.8468 31.5302 11.8516 31.5575 11.8616 31.583C11.8716 31.6085 11.8866 31.6317 11.9058 31.6514C11.9249 31.671 11.9478 31.6866 11.973 31.6972C11.9983 31.7078 12.0254 31.7133 12.0528 31.7133H13.593C13.706 31.7133 13.7958 31.6235 13.7984 31.5131C13.8497 29.5314 14.6455 27.6755 16.0522 26.2688C17.5076 24.8133 19.4406 24.0124 21.4993 24.0124C23.558 24.0124 25.4909 24.8133 26.9464 26.2688C28.3531 27.6755 29.1488 29.5314 29.2002 31.5131C29.2027 31.626 29.2926 31.7133 29.4055 31.7133H30.9457C30.9731 31.7133 31.0002 31.7078 31.0255 31.6972C31.0507 31.6866 31.0736 31.671 31.0927 31.6514C31.1119 31.6317 31.1269 31.6085 31.1369 31.583C31.1469 31.5575 31.1517 31.5302 31.151 31.5028C31.1254 30.2758 30.8712 29.0822 30.3938 27.9553ZM21.4993 22.0615C20.321 22.0615 19.2121 21.602 18.3778 20.7678C17.5436 19.9335 17.0841 18.8246 17.0841 17.6463C17.0841 16.4681 17.5436 15.3592 18.3778 14.5249C19.2121 13.6907 20.321 13.2312 21.4993 13.2312C22.6775 13.2312 23.7864 13.6907 24.6207 14.5249C25.455 15.3592 25.9144 16.4681 25.9144 17.6463C25.9144 18.8246 25.455 19.9335 24.6207 20.7678C23.7864 21.602 22.6775 22.0615 21.4993 22.0615Z" fill="#0080FF"/>
</svg>
