<svg width="250" height="230" viewBox="0 0 250 230" fill="none" xmlns="http://www.w3.org/2000/svg">
<path d="M4.48498 171.993C2.06009 171.745 0.343358 170.11 0.0643882 167.711C0.0214697 167.297 0.021454 166.883 0.021454 166.469C0.021454 116.158 0.0214592 65.8678 0 15.5567C0 12.9294 1.00859 11.0469 3.62661 10.0953C4.16309 9.68154 4.7854 9.80566 5.38626 9.80566C17.3176 9.80566 29.2274 9.80566 41.1588 9.80566C41.8455 9.80566 42.5107 9.80566 43.176 9.61948C44.1846 9.53673 45.1931 9.55742 46.2232 9.5781C46.4163 9.5781 46.6309 9.5781 46.824 9.5781C47.8326 9.55742 48.8412 9.51604 49.8712 9.61948C50.5365 9.80566 51.2017 9.80566 51.8884 9.80566C64.2274 9.78498 76.588 9.84704 88.927 9.76429C89.1202 9.76429 89.2704 9.78498 89.4206 9.9091C89.8927 9.92979 90.3434 9.95047 90.8155 9.95047C141.974 9.95047 193.155 9.95047 244.313 9.95047C248.069 9.95047 250 11.8123 250 15.3912C250 65.8472 250 116.303 250 166.738C250 169.738 248.348 171.683 245.558 171.972C245.386 172.034 245.215 172.014 245.021 172.034C236.695 172.283 228.391 172.22 220.064 172.22C203.348 172.22 186.609 172.386 169.893 172.179C142.983 171.869 116.094 172.076 89.1845 172.076C83.3262 172.076 77.4892 172.138 71.6309 172.22C71.2446 172.22 70.8369 172.22 70.4506 172.2C69.7425 172.179 69.3991 171.786 69.4635 171.124C69.6996 168.621 70 166.118 70.3648 163.635C70.4721 162.87 70.9657 162.518 71.7811 162.539C72.3176 162.56 72.8541 162.539 73.3906 162.539C126.674 162.539 179.957 162.539 233.24 162.539C233.82 162.539 234.464 162.725 234.957 162.208C235.193 161.753 235.129 161.256 235.129 160.781C235.129 114.317 235.129 67.8538 235.129 21.3905C235.129 21.0802 235.129 20.7699 235.107 20.4595C235.086 20.0044 234.828 19.7769 234.356 19.7562C233.97 19.7355 233.562 19.7355 233.176 19.7355C159.742 19.7355 86.309 19.7355 12.8756 19.7355C10.8799 19.7355 10.8798 19.7355 10.8798 21.6594C10.8798 67.9779 10.8798 114.317 10.8798 160.636C10.8798 161.153 10.8369 161.67 10.9871 162.187C11.2661 162.622 11.7168 162.56 12.1245 162.56C13.5837 162.56 15.0429 162.539 16.5021 162.58C17.7039 162.601 18.0257 162.973 17.6609 164.049C16.8884 166.407 16.1159 168.766 15.3648 171.145C15.1287 171.91 14.6137 172.241 13.7768 172.241C10.6867 172.241 7.57511 172.303 4.48498 171.993Z" fill="black"/>
<path d="M4.48535 171.993C7.55402 171.973 10.6227 171.931 13.6913 171.952C14.5282 171.952 14.8716 171.704 15.1077 170.938C15.8158 168.559 16.6098 166.201 17.4038 163.863C17.6613 163.098 17.5755 162.808 16.6742 162.829C14.9575 162.87 13.2407 162.85 11.524 162.829C11.2021 162.829 10.7944 162.995 10.5368 162.643C10.9446 162.25 11.4596 162.333 11.9532 162.312C13.4553 162.291 14.9575 162.291 16.4596 162.312C17.2107 162.312 17.6613 162.022 17.8759 161.34C18.9918 157.885 20.1935 154.471 21.2021 150.996C21.5454 149.796 21.4381 148.534 21.5025 147.314C21.6313 144.459 21.8459 141.625 22.039 138.77C22.2536 135.687 22.2107 132.584 22.7901 129.543C23.1978 129.047 23.3266 129.502 23.4339 129.75C23.6914 130.392 23.9059 131.054 24.0991 131.716C24.6141 133.474 25.2149 135.212 25.8802 136.908C26.6098 138.791 28.3051 139.763 30.3437 139.535C30.6441 139.473 30.9446 139.39 31.245 139.349C31.9102 139.204 32.5326 138.956 33.1549 138.708C33.4124 138.584 33.5197 138.273 33.7772 138.17C34.8072 137.673 35.2579 136.784 35.0862 135.398C34.9575 134.343 34.7643 133.288 34.6141 132.233C34.5712 131.922 34.4853 131.612 34.5926 131.322C35.1077 130.598 34.378 129.978 34.421 129.295C34.8072 127.599 34.7214 125.944 34.0347 124.33C33.627 123.358 33.4553 123.296 32.4252 123.668C29.4853 124.744 26.5454 125.799 23.6055 126.875C23.1334 127.04 22.6827 127.247 22.1677 127.247C21.6956 127.144 21.6098 126.751 21.5025 126.399C19.421 120.276 17.3824 114.152 15.3866 108.008C14.9789 106.746 15.0004 105.443 15.2364 104.119C16.6313 96.2785 18.069 88.4587 19.4639 80.6183C19.7429 79.0461 20.0218 77.5152 20.9017 76.1085C22.3609 73.8122 24.4853 72.571 27.2321 72.4676C30.3008 72.3641 33.3694 72.4469 36.4381 72.4469C38.7342 72.4055 41.0089 72.4055 43.3051 72.4469C45.0862 72.4055 46.8887 72.4055 48.6699 72.4469C53.2192 72.5503 57.0175 76.1912 57.1892 80.5769C57.4038 86.1211 57.7042 91.6445 57.8759 97.168C57.9188 98.823 58.0261 100.457 58.069 102.112C58.0905 103.043 58.2622 103.974 58.5841 104.843C62.5755 115.435 66.5669 126.006 70.6012 136.577C72.6398 141.935 73.069 147.438 72.3394 153.065C71.996 155.733 71.6956 158.402 71.3737 161.071C71.2235 162.25 71.3094 162.312 72.5325 162.333C72.9188 162.333 73.3265 162.333 73.7128 162.333C126.91 162.333 180.129 162.333 233.326 162.333C234.056 162.333 234.85 162.126 235.494 162.664C235.108 163.015 234.614 162.85 234.163 162.85C180.236 162.85 126.331 162.85 72.4038 162.85C70.687 162.85 70.7514 162.85 70.5797 164.567C70.3866 166.656 70.1935 168.746 69.8287 170.794C69.657 171.787 69.9145 171.952 70.8587 171.952C81.6742 171.931 92.5111 171.931 103.327 171.931C124.378 171.931 145.43 171.931 166.46 171.931C190 171.931 213.562 171.931 237.103 171.931C239.914 171.931 242.747 171.973 245.558 171.993C243.756 172.283 241.953 172.056 240.15 172.118C239.721 172.138 239.292 172.138 238.863 172.138C238.648 172.366 238.369 172.407 238.09 172.428C235.623 172.531 233.176 172.428 230.708 172.428C212.575 172.407 194.442 172.407 176.309 172.428C173.841 172.428 171.395 172.552 168.927 172.407C168.713 172.366 168.52 172.283 168.348 172.159C167.983 172.138 167.64 172.097 167.275 172.097C141.116 172.097 114.957 172.097 88.7986 172.097C88.4338 172.097 88.0904 172.138 87.7256 172.138C87.5754 172.262 87.4038 172.345 87.2106 172.366C86.3308 172.449 85.4295 172.407 84.5497 172.407C84.2922 172.428 84.0347 172.407 83.7772 172.407C79.6999 172.449 75.6441 172.407 71.5669 172.428C70.0433 172.428 70.0003 172.511 69.8072 173.979C69.6784 175.097 69.5711 176.234 69.3351 177.351C69.1634 177.807 69.2063 178.324 68.9059 178.758C68.2407 184.116 67.5755 189.474 66.8888 194.853C66.5454 195.184 66.1162 195.163 65.687 195.163C61.3523 195.204 56.9961 195.515 52.6613 195.37C52.1034 195.349 51.5239 195.411 50.9875 195.101C45.966 195.163 40.9446 195.225 35.9231 195.308C35.0647 195.473 34.9789 195.08 35.2793 194.46C35.6656 193.653 36.1806 192.887 36.6313 192.122C38.3909 189.04 40.4081 186.102 41.7171 182.813C43.2192 179.089 43.9918 175.221 43.4982 171.187C43.4124 170.545 43.1763 169.821 43.6913 169.201C44.1634 168.766 43.9059 168.208 43.8415 167.732C43.1978 162.415 42.5326 157.099 41.8459 151.782C41.245 147.086 40.687 142.369 40.0433 137.673C40.0218 137.467 40.3008 136.908 39.6141 137.053C36.245 140.88 32.7257 144.583 29.2493 148.327C28.7557 148.865 28.3051 149.444 27.7901 149.962C27.4897 150.272 27.3394 150.665 27.3179 151.079C27.3179 151.244 27.2965 151.43 27.3179 151.596C27.4467 160.119 26.9531 168.642 27.1033 177.186C27.1248 178.158 26.8458 178.986 26.3094 179.813C23.2192 184.571 20.215 189.371 17.1678 194.129C16.76 194.77 16.4596 195.494 15.6871 195.866C13.9274 196.094 12.1678 195.949 10.3866 195.97C10.1291 195.97 9.87159 195.991 9.61408 195.97C8.79863 195.949 7.96175 196.094 7.1463 195.804C6.76003 195.535 6.9317 195.163 6.97462 194.832C7.74715 192.35 8.47674 189.846 9.39949 187.405C9.63554 186.599 9.8287 185.771 10.172 185.006C10.8158 182.916 11.524 180.827 12.1678 178.737C12.2107 178.531 12.318 178.324 12.3609 178.117C12.8974 176.524 13.4553 174.931 13.9489 173.317C14.1635 172.635 13.9918 172.366 13.2407 172.386C12.2536 172.407 11.245 172.386 10.2579 172.386C10.0218 172.407 9.7858 172.386 9.54975 172.386C8.7343 172.407 7.9403 172.428 7.12485 172.366C6.86734 172.345 6.63127 172.283 6.41668 172.097C5.79436 172.035 5.12913 172.262 4.48535 171.993Z" fill="#202B6D"/>
<path d="M15.8157 195.7C19.3779 190.135 22.9187 184.571 26.4809 179.026C26.7599 178.592 26.8028 178.137 26.8028 177.661C26.8457 169.097 26.9101 160.511 26.9316 151.947C26.9316 150.892 27.2105 150.085 27.9831 149.299C31.717 145.327 35.4079 141.293 39.0989 137.28C39.1848 137.176 39.3135 137.114 39.4208 137.011C39.8929 137.383 39.8929 137.921 39.9573 138.417C41.1805 147.892 42.3393 157.388 43.5625 166.862C43.6697 167.69 43.9702 168.538 43.7127 169.407C43.7341 171.393 44.0131 173.358 43.8629 175.365C43.5195 179.792 41.9101 183.764 39.6783 187.57C38.2835 189.929 36.9101 192.287 35.4938 194.624C35.1075 195.245 35.365 195.349 35.9444 195.369C35.0646 195.369 34.6998 195.948 34.335 196.59C32.3822 200.045 30.4294 203.499 28.3908 206.892C27.9401 207.657 27.747 208.63 26.8672 209.147C26.3522 209.333 25.9659 209.002 25.5796 208.795C21.2234 206.375 16.8672 203.913 12.4895 201.555C12.4037 201.513 12.3178 201.431 12.2535 201.348C12.232 201.306 12.2106 201.265 12.232 201.244C13.1977 199.3 14.2707 197.355 15.8157 195.7Z" fill="#FD9993"/>
<path d="M50.966 195.183C53.348 195.142 55.7299 195.121 58.1119 195.08C61.0303 195.039 63.9488 194.977 66.8672 194.915C66.8458 201.079 66.8458 207.223 66.76 213.388C66.76 214.257 67.0604 214.733 67.7685 215.229C71.717 217.877 75.6441 220.567 79.5282 223.297C81.6312 224.787 82.4252 226.959 82.6398 229.379C82.6827 229.834 82.4681 230 82.0175 229.979C81.8458 229.959 81.6527 229.979 81.481 229.979C70.9874 229.979 60.4939 229.959 49.9789 230C49.0132 230 48.7771 229.772 48.863 228.862C49.3136 224.27 49.7642 219.677 50.0647 215.085C50.3436 210.699 50.408 206.292 50.6012 201.886C50.7084 199.631 50.8372 197.397 50.966 195.183Z" fill="#8F3600"/>
<path d="M12.2745 201.307C14.3775 202.114 16.2015 203.376 18.1543 204.431C21.0513 205.982 23.9268 207.575 26.8023 209.148C26.5663 210.368 25.7079 211.278 25.15 212.354C24.871 212.892 24.7852 213.182 25.4075 213.595C31.0298 217.34 34.2058 222.553 35.3002 229.007C35.4289 229.731 35.1928 229.855 34.5062 229.855C26.9311 229.835 19.356 229.835 11.781 229.855C11.223 229.855 10.8797 229.711 10.5149 229.297C7.6823 225.842 4.8282 222.387 1.95268 218.995C1.43766 218.395 1.50206 218.002 1.88832 217.402C3.45484 215.023 4.95697 212.602 6.50203 210.223C6.52349 209.727 6.86682 209.375 7.10287 208.982C7.85394 207.699 8.7123 206.5 9.46337 205.217C9.69942 204.803 10.0428 204.452 10.2788 204.038C10.9011 203.086 11.2874 201.99 12.2745 201.307Z" fill="#8F3600"/>
<path d="M238.262 172.179C238.455 172.179 238.648 172.179 238.863 172.158C238.841 172.572 238.82 172.986 238.82 173.399C238.82 188.956 238.82 204.534 238.82 220.09C238.82 221.518 238.82 221.518 237.296 221.518C235.622 221.518 233.927 221.476 232.253 221.538C231.416 221.559 231.159 221.352 231.159 220.504C231.202 216.036 231.159 211.547 231.202 207.078C231.223 206.127 230.901 205.961 230 205.961C212.339 205.982 194.7 205.982 177.039 205.961C176.073 205.961 175.858 206.23 175.858 207.119C175.901 211.567 175.858 215.994 175.901 220.442C175.901 221.311 175.644 221.559 174.764 221.538C172.983 221.476 171.18 221.476 169.399 221.538C168.476 221.58 168.283 221.249 168.283 220.421C168.305 204.347 168.305 188.253 168.305 172.179C168.455 172.179 168.627 172.179 168.777 172.179C169.227 172.717 169.099 173.358 169.099 173.958C169.099 183.702 169.099 193.445 169.099 203.189C169.099 205.071 169.099 205.071 171.03 205.071C192.682 205.071 214.335 205.071 235.966 205.071C237.854 205.071 237.876 205.071 237.876 203.272C237.876 193.528 237.876 183.784 237.876 174.041C237.897 173.399 237.747 172.737 238.262 172.179Z" fill="#5C85B1"/>
<path d="M89.3991 9.90915C88.8626 9.95053 88.3476 10.054 87.8111 10.054C75.6652 10.054 63.5193 10.054 51.3519 10.054C50.8154 10.054 50.3004 9.97121 49.7639 9.90915C49.3562 9.49541 49.3991 8.95754 49.3991 8.44036C49.3777 6.26821 49.3991 4.11674 49.3991 1.94459C49.3991 0.848172 49.1845 0.703362 48.0901 0.703362C47.2532 0.703362 47.0815 1.13779 47.0815 1.82047C47.0815 4.01331 47.0815 6.22684 47.0815 8.41968C47.0815 8.93686 47.1459 9.45403 46.7596 9.88846C46.6094 9.88846 46.4592 9.88846 46.309 9.88846C45.9227 9.45403 45.9871 8.91617 45.9871 8.41968C45.9656 6.22684 45.9871 4.034 45.9871 1.84116C45.9871 1.15848 45.7725 0.744738 44.9571 0.724051C43.927 0.703364 43.691 0.868861 43.6695 1.88253C43.6481 4.07537 43.6695 6.26821 43.6481 8.46105C43.6481 8.97823 43.7124 9.49541 43.3047 9.92984C42.7467 10.0746 42.1674 10.0746 41.6094 10.0746C30.6652 10.0746 19.7425 10.0746 8.79831 10.0746C7.08158 10.0746 5.36481 10.0953 3.64808 10.116C3.64808 7.11638 3.691 4.11675 3.62662 1.13779C3.60516 0.206872 3.88413 0 4.82833 0C23.6266 0.0206872 42.4249 0.0206868 61.2017 0.0206868C70.2146 0.0206868 79.206 0.0413743 88.2188 0C89.1845 0 89.4206 0.268933 89.4206 1.15848C89.3562 4.05468 89.3991 6.99226 89.3991 9.90915Z" fill="#5E86B1"/>
<path d="M68.884 178.819C68.8625 178.385 68.6908 177.93 69.0127 177.516C69.5492 177.909 70.1501 178.033 70.8153 178.033C74.5922 178.013 78.3904 178.033 82.1673 178.033C83.4119 178.033 83.4978 177.951 83.4978 176.73C83.5192 175.634 83.4978 174.537 83.4978 173.42C83.4978 172.965 83.4977 172.51 83.8626 172.158C84.0557 172.158 84.2703 172.158 84.4634 172.158C84.8282 172.51 84.8068 172.965 84.8068 173.42C84.8283 174.579 84.8283 175.758 84.8068 176.916C84.7853 177.661 85.0428 178.054 85.9012 178.033C86.7166 178.033 86.9312 177.64 86.9312 176.937C86.9098 175.778 86.9098 174.599 86.9312 173.441C86.9312 173.006 86.8884 172.531 87.2317 172.179C87.3819 172.179 87.5321 172.179 87.6823 172.158C87.6823 184.964 87.6824 197.769 87.6609 210.595C87.6609 211.319 87.6609 211.65 88.6695 211.505C91.3519 211.133 93.8412 213.181 94.2489 215.953C94.5923 218.291 92.7038 220.835 90.236 221.332C87.4248 221.89 84.7424 220.318 84.0342 217.691C83.884 217.132 83.8411 216.553 83.8411 215.953C83.8411 203.996 83.8411 192.059 83.8411 180.102C83.8411 178.799 83.8411 178.799 82.4463 178.799C77.9398 178.819 73.4119 178.819 68.884 178.819Z" fill="#5B84B0"/>
<path d="M7.18907 209.188C6.95302 209.519 6.71697 209.85 6.50238 210.181C6.48092 209.726 6.45944 209.292 6.45944 208.837C6.45944 196.611 6.43799 184.384 6.43799 172.158C6.63112 172.158 6.84573 172.158 7.03887 172.138C7.4466 172.51 7.38221 173.027 7.40367 173.503C7.42513 174.682 7.42513 175.841 7.40367 177.02C7.40367 177.703 7.6612 178.034 8.41228 178.034C9.14191 178.013 9.31357 177.62 9.31357 177.02C9.31357 175.841 9.31357 174.682 9.31357 173.503C9.31357 173.027 9.27064 172.531 9.67837 172.138C9.87151 172.138 10.0861 172.138 10.2793 172.158C10.6655 172.551 10.6011 173.048 10.6011 173.524C10.6226 174.62 10.6226 175.717 10.6011 176.813C10.5797 177.599 10.8157 178.075 11.717 178.034C12.0389 178.013 12.3608 178.096 12.5969 178.323C12.5111 178.489 12.4467 178.633 12.3608 178.799C12.275 178.861 12.1891 178.923 12.1033 178.964C10.5797 179.358 10.5582 179.358 10.6011 180.868C10.6226 182.295 10.5153 183.702 10.4295 185.129C10.1719 185.895 9.89298 186.681 9.63546 187.446C9.18481 187.032 9.29212 186.495 9.27066 185.998C9.2492 184.074 9.27064 182.15 9.24918 180.206C9.24918 179.771 9.33503 179.275 8.66979 179.13C7.89724 178.944 7.42514 179.233 7.36076 180.02C7.31784 180.433 7.3393 180.847 7.3393 181.261C7.3393 184.426 7.31785 187.591 7.3393 190.756C7.3393 192.122 7.29637 193.487 7.18907 194.852C7.12469 195.142 7.06031 195.431 6.99593 195.721C7.3822 196.114 7.3393 196.611 7.3393 197.086C7.36076 200.583 7.3393 204.058 7.36076 207.554C7.42514 208.133 7.25345 208.651 7.18907 209.188Z" fill="#658BB5"/>
<path d="M115.022 195.742C114.914 195.659 114.743 195.576 114.635 195.452C113.627 194.356 112.618 193.239 111.631 192.142C111.481 191.977 111.18 191.791 111.438 191.542C111.717 191.294 111.867 191.646 112.017 191.791C113.026 192.887 114.034 194.004 115.022 195.101C115.15 195.245 115.343 195.39 115.236 195.618C115.236 195.68 115.129 195.7 115.022 195.742Z" fill="#658BB4"/>
<path d="M151.052 172.985C149.614 174.185 148.198 175.385 146.76 176.585C146.653 176.461 146.545 176.357 146.438 176.233C147.854 175.033 149.292 173.834 150.708 172.634C150.816 172.758 150.944 172.882 151.052 172.985Z" fill="#648BB4"/>
<path d="M36.2015 72.6944C33.3474 72.7151 30.4933 72.7979 27.6392 72.7151C23.9912 72.6117 20.665 75.239 19.9569 79.1695C18.8625 85.4377 17.7251 91.7059 16.6092 97.9741C16.223 100.105 15.8367 102.236 15.4504 104.387C15.2144 105.773 15.3431 107.118 15.7938 108.463C17.7895 114.4 19.7423 120.358 21.738 126.316C21.8238 126.605 21.7594 127.06 22.2744 127.102C23.0255 127.743 23.2401 128.529 22.9612 129.46C22.6178 134.673 22.0813 139.886 21.974 145.12C21.8882 149.671 20.7723 153.933 19.2487 158.174C18.7981 159.415 18.3689 160.636 18.0256 161.897C17.8324 162.58 17.4891 162.725 16.8238 162.704C14.7208 162.663 12.6178 162.684 10.4933 162.684C10.4719 162.311 10.4719 161.918 10.4719 161.546C10.4719 114.565 10.4719 67.5847 10.4504 20.6042C10.4504 19.5285 10.7509 19.3423 11.7809 19.3423C85.9011 19.363 160.021 19.363 234.141 19.3423C235.193 19.3423 235.472 19.5492 235.472 20.6042C235.429 67.5847 235.45 114.565 235.45 161.546C235.45 161.918 235.429 162.311 235.407 162.684C181.051 162.684 126.695 162.684 72.3174 162.684C72.0384 162.684 71.738 162.663 71.459 162.684C70.8796 162.725 70.7508 162.559 70.8367 161.98C71.2659 158.67 71.6307 155.34 72.0384 152.03C72.7466 146.382 71.8667 140.941 69.8066 135.625C65.8152 125.26 61.9311 114.855 57.9826 104.47C57.7466 103.87 57.7251 103.249 57.7036 102.649C57.4032 95.3469 57.0813 88.065 56.8024 80.7624C56.6307 76.294 53.0684 72.8599 48.4118 72.7565C46.695 72.7151 44.9783 72.7358 43.2616 72.7151C42.7251 71.3498 42.9826 69.9431 43.0685 68.557C43.1114 68.0605 43.6049 67.9778 44.0341 67.895C45.0427 67.6882 46.0513 67.4606 47.0384 67.1296C50.1715 66.0332 51.5448 64.1507 51.5448 60.9648C51.5448 59.8684 51.6092 58.7513 51.4161 57.6756C51.459 57.1377 51.3946 56.6205 51.2015 56.124C51.1586 55.793 51.1586 55.462 51.3517 55.1517C52.2101 54.5518 53.1757 54.0553 53.0684 52.7727C52.9397 51.3039 52.2315 50.2075 50.9869 49.4421C48.6908 48.0354 46.1371 47.6423 43.4762 47.8906C41.8238 48.0354 41.7809 47.9526 41.6736 46.339C41.5019 43.7945 41.4375 41.25 41.2229 38.7261C41.0727 36.7816 39.3989 34.8783 37.3174 34.3818C35.6865 33.9888 34.0341 34.0508 32.5105 34.8163C30.7294 35.7265 29.6993 37.1746 29.635 39.1192C29.5706 41.5189 29.8281 43.9186 29.9569 46.339C29.9998 47.0838 29.9783 47.8492 30.0856 48.6146C30.2144 49.38 30.4934 50.1041 31.0084 50.6833C31.7165 51.4694 31.5449 52.1107 31.0084 52.8968C29.8067 54.6139 29.1414 56.5378 29.1843 58.6272C29.2273 61.8337 30.7509 64.192 33.6264 65.7849C34.4633 66.2401 35.4504 66.4262 36.18 67.0469C36.7809 68.3295 36.3946 69.6741 36.4805 70.9981C36.5878 71.536 36.7165 72.198 36.2015 72.6944Z" fill="#ECE9E9"/>
<path d="M46.7598 9.90929C46.7598 7.09584 46.7812 4.2617 46.7598 1.44824C46.7598 0.703504 46.91 0.43457 47.7469 0.43457C49.7854 0.475945 49.7854 0.434571 49.7854 2.37916C49.7854 4.88231 49.7854 7.40614 49.7854 9.90929C48.7554 9.99204 47.7469 10.0127 46.7598 9.90929Z" fill="#FEFEFE"/>
<path d="M43.2834 9.90929C43.2834 7.05446 43.3049 4.19963 43.262 1.36549C43.262 0.641442 43.4765 0.43457 44.2276 0.43457C46.2876 0.455257 46.2662 0.413883 46.2876 2.37916C46.2876 4.88231 46.3091 7.38546 46.3091 9.90929C45.3005 10.0127 44.292 9.99204 43.2834 9.90929Z" fill="#FDFEFE"/>
<path d="M238.262 172.179C238.262 182.998 238.262 193.818 238.305 204.617C238.305 205.568 237.79 205.465 237.167 205.465C219.485 205.465 201.781 205.465 184.099 205.465C179.378 205.465 174.657 205.444 169.957 205.485C168.97 205.506 168.798 205.216 168.798 204.327C168.82 193.611 168.82 182.895 168.798 172.2C171.438 172.179 174.077 172.158 176.717 172.158C196.803 172.158 216.888 172.138 236.974 172.138C237.403 172.138 237.833 172.158 238.262 172.179Z" fill="#FEFEFE"/>
<path d="M51.6523 57.3656C52.0815 59.0206 52.0386 60.7376 51.824 62.3926C51.5021 64.8751 49.8497 66.4473 47.4678 67.2955C46.4377 67.6678 45.3647 67.9988 44.2703 68.1023C43.3476 68.185 43.2618 68.5781 43.2832 69.2814C43.3261 70.4192 43.3047 71.557 43.2832 72.6948C40.9227 72.6948 38.5622 72.6948 36.1802 72.6948C36.1159 70.7916 36.3734 68.8884 36.03 67.0058C36.3519 66.3232 36.9957 65.9094 37.4893 65.3716C39.7425 62.8064 40.5365 59.7447 40.8798 56.5175C41.2875 52.8765 43.691 50.5389 46.6738 48.6356C47.103 48.3667 47.5321 48.3874 48.0042 48.5736C48.8626 48.9046 49.5493 49.4631 50.1073 50.1251C51.3304 51.5939 51.6523 53.3109 51.4591 55.1521C51.4591 55.5038 51.4591 55.8555 51.4591 56.2278C50.6651 56.9105 50.6652 56.9105 51.6523 57.3656Z" fill="#FD9993"/>
<path d="M22.9616 129.439C22.8329 128.633 22.5968 127.846 22.2749 127.081C25.8586 125.757 29.4423 124.454 33.026 123.13C33.4552 122.964 33.6698 123.026 33.8629 123.419C34.893 125.343 35.2149 127.35 34.5282 129.46C33.7556 128.715 33.6913 127.681 33.2621 126.791C32.9402 126.109 32.8329 125.343 32.3393 124.723C32.9616 126.978 33.8629 129.15 34.6569 131.343C34.8715 132.667 35.0861 133.991 35.2792 135.294C35.4509 136.37 35.2363 137.342 34.4638 138.169C34.2492 138.397 34.0346 138.769 33.6483 138.335C33.1548 138.066 33.1118 137.549 32.9616 137.114C32.3608 135.501 31.8029 133.887 31.0089 132.315C31.0089 132.832 31.202 133.308 31.3951 133.784C31.953 135.128 32.3822 136.514 32.9187 137.838C33.0689 138.19 33.2406 138.542 33.1333 138.935C32.511 139.204 31.9101 139.555 31.202 139.555C30.7299 139.266 30.6655 138.769 30.5153 138.314C29.9144 136.597 29.2277 134.901 28.5196 133.204C28.4337 133.66 28.6054 134.073 28.7771 134.487C29.3136 135.873 29.85 137.259 30.3436 138.645C30.4724 138.997 30.6655 139.348 30.5153 139.742C28.5625 140.383 26.3307 139.224 25.5153 137.032C24.7857 135.108 24.2063 133.142 23.541 131.198C23.3908 130.577 23.1762 130.019 22.9616 129.439Z" fill="#FD9993"/>
<path d="M83.8624 172.159C83.8624 173.98 83.8624 175.8 83.9053 177.62C83.9268 178.2 83.7122 178.386 83.1113 178.386C78.6693 178.365 74.2272 178.344 69.7637 178.407C68.9697 178.407 69.0127 178.034 68.9912 177.538C69.1843 175.965 69.356 174.414 69.5491 172.842C69.592 172.407 69.6994 172.118 70.3217 172.118C74.8281 172.159 79.3559 172.159 83.8624 172.159Z" fill="#FEFEFE"/>
<path d="M7.25314 194.872C6.84539 194.645 7.01708 194.252 7.01708 193.941C6.99562 189.225 7.03852 184.529 6.9956 179.812C6.9956 178.964 7.29606 178.778 8.09009 178.798C9.95713 178.86 9.69961 178.633 9.69961 180.329C9.69961 182.708 9.67816 185.067 9.6567 187.446C8.86267 189.928 8.06863 192.39 7.25314 194.872Z" fill="#FEFEFE"/>
<path d="M7.18874 209.189C7.12437 209.023 7.01709 208.879 7.01709 208.713C7.01709 204.39 7.06 200.066 7.06 195.742C7.91834 195.742 8.7552 195.742 9.61355 195.722C9.95689 196.053 9.95691 196.466 9.95691 196.88C9.95691 199.176 9.93547 201.473 9.97839 203.769C9.97839 204.265 9.74234 204.7 9.7638 205.176C8.90546 206.52 8.04709 207.865 7.18874 209.189Z" fill="#FDFDFD"/>
<path d="M43.6907 169.407C43.1113 167.69 43.1327 165.891 42.8752 164.132C42.3602 160.429 41.9096 156.726 41.4375 153.023C40.9654 149.341 40.5363 145.679 40.0642 141.997C39.8496 140.321 39.6135 138.666 39.3989 137.011C39.4848 136.722 39.2058 136.225 39.7423 136.184C40.2358 136.142 40.2144 136.598 40.2573 136.929C41.3517 145.617 42.4246 154.306 43.519 162.994C43.755 164.836 43.9911 166.677 44.2271 168.518C44.313 168.952 44.4846 169.449 43.6907 169.407Z" fill="#FDFDFD"/>
<path d="M12.2748 201.307C11.6525 202.279 11.0087 203.272 10.3864 204.244C9.97874 203.976 9.97876 203.541 9.97876 203.148C9.97876 201.017 9.97876 198.907 9.97876 196.776C9.97876 196.383 10.0002 196.011 10.3221 195.742C12.1675 195.721 13.9914 195.721 15.8369 195.701C14.6352 197.583 13.455 199.445 12.2748 201.307Z" fill="#FCFDFD"/>
<path d="M12.618 178.344C10.279 178.427 10.2791 178.427 10.2791 176.172C10.2791 174.848 10.2791 173.503 10.2791 172.179C11.5237 172.158 12.7683 172.158 13.9914 172.117C14.5923 172.096 14.6137 172.324 14.4635 172.779C13.8412 174.641 13.2403 176.482 12.618 178.344Z" fill="#FEFEFE"/>
<path d="M27.6609 104.718C28.0686 102.898 28.4763 101.118 28.884 99.3601C29.3991 97.1052 29.8926 94.871 30.3862 92.6161C30.4505 92.2851 30.4506 91.83 30.9441 91.9127C31.4591 91.9955 31.2445 92.4299 31.1801 92.7609C30.3432 96.5259 29.5278 100.291 28.6695 104.035C28.5407 104.573 28.6051 105.028 28.7767 105.525C29.5707 107.656 30.3433 109.786 31.1158 111.938C31.2446 112.269 31.5664 112.724 31.0299 112.91C30.4935 113.096 30.472 112.517 30.3647 112.186C29.5493 109.993 28.7338 107.8 27.9184 105.608C27.8326 105.277 27.7467 104.987 27.6609 104.718Z" fill="#FCFCFD"/>
<path d="M87.2531 172.2C87.2531 173.958 87.2102 175.696 87.2531 177.454C87.2745 178.157 87.0814 178.406 86.3089 178.385C84.4419 178.364 84.4419 178.406 84.4419 176.606C84.4419 175.137 84.4419 173.648 84.4633 172.179C85.3861 172.117 86.3303 172.075 87.2531 172.2Z" fill="#FDFDFE"/>
<path d="M9.67793 172.158C9.67793 173.958 9.65646 175.737 9.72083 177.537C9.74229 178.261 9.44188 178.406 8.77664 178.385C6.63071 178.323 7.03843 178.613 6.99551 176.709C6.97405 175.199 7.01699 173.689 7.01699 172.158C7.91828 172.158 8.79809 172.158 9.67793 172.158Z" fill="#FEFEFE"/>
<path d="M10.4504 185.13C10.0641 183.95 10.3645 182.751 10.2787 181.571C10.2572 181.365 10.2787 181.158 10.2787 180.951C10.2787 178.841 10.2787 178.841 12.4032 178.799C11.9311 180.971 11.0298 182.999 10.4504 185.13Z" fill="#FBFCFC"/>
<path d="M34.6996 131.301C34.2919 131.26 34.2489 130.888 34.1416 130.619C33.4335 128.757 32.7468 126.874 32.0602 124.992C31.9314 124.661 31.6525 124.206 32.1889 124.04C32.6825 123.875 32.7039 124.392 32.8112 124.682C33.3906 126.254 33.97 127.847 34.5708 129.44C34.7425 129.833 34.8927 130.246 35.0644 130.639C35.2146 130.991 35.0644 131.198 34.6996 131.301Z" fill="#050303"/>
<path d="M30.558 139.7C29.764 137.611 28.9699 135.522 28.1974 133.411C28.0901 133.101 27.854 132.687 28.2832 132.522C28.7553 132.336 28.8412 132.812 28.9485 133.122C29.721 135.253 30.4936 137.383 31.2662 139.514C31.0516 139.659 30.8155 139.742 30.558 139.7Z" fill="#060403"/>
<path d="M33.1758 138.915C32.1672 136.805 31.5235 134.57 30.6651 132.398C30.5578 132.129 30.4076 131.757 30.8797 131.633C31.266 131.529 31.3518 131.86 31.4377 132.109C32.1887 134.177 32.9398 136.225 33.6909 138.294C33.6694 138.625 33.605 138.915 33.1758 138.915Z" fill="#060303"/>
<path d="M10.3218 195.742C10.2789 198.576 10.1716 201.41 10.3862 204.245C10.1716 204.555 9.97842 204.865 9.7638 205.175C9.74234 202.424 9.7423 199.693 9.72084 196.963C9.72084 196.549 9.65647 196.156 9.63501 195.742C9.84963 195.742 10.0857 195.742 10.3218 195.742Z" fill="#5881AD"/>
<path d="M231.652 213.47C231.652 211.278 231.674 209.064 231.631 206.871C231.631 206.23 231.803 205.961 232.532 205.982C234.142 206.023 235.751 206.023 237.339 205.982C238.004 205.961 238.283 206.126 238.283 206.83C238.262 211.257 238.262 215.705 238.283 220.132C238.283 220.773 238.133 221.042 237.403 221.021C235.794 220.98 234.184 220.98 232.597 221.021C231.824 221.042 231.631 220.752 231.652 220.07C231.674 217.856 231.652 215.663 231.652 213.47Z" fill="#FEFEFE"/>
<path d="M175.408 213.574C175.408 215.767 175.386 217.98 175.429 220.173C175.429 220.773 175.279 221.021 174.592 221.001C172.961 220.959 171.309 220.959 169.678 221.001C169.056 221.021 168.798 220.877 168.798 220.194C168.82 215.726 168.82 211.257 168.798 206.789C168.798 206.168 168.992 205.941 169.635 205.961C171.266 206.003 172.919 206.003 174.549 205.961C175.3 205.941 175.429 206.251 175.408 206.871C175.386 209.106 175.408 211.34 175.408 213.574Z" fill="#FEFEFE"/>
<path d="M23.4552 9.88861C17.3823 9.88861 11.3093 9.86792 5.23637 9.9093C4.39946 9.9093 4.0561 9.76449 4.09902 8.85425C4.16339 6.37179 4.14194 3.88933 4.09902 1.42755C4.07756 0.641441 4.33508 0.43457 5.12907 0.43457C17.3394 0.455257 29.5497 0.455257 41.76 0.43457C42.4896 0.43457 42.7471 0.620755 42.7471 1.36549C42.7042 3.91002 42.7042 6.45454 42.7471 8.99906C42.7686 9.76449 42.4681 9.88861 41.76 9.88861C35.6655 9.86792 29.5496 9.88861 23.4552 9.88861Z" fill="#FEFEFE"/>
<path d="M69.5925 9.8889C63.5195 9.8889 57.4466 9.86821 51.3736 9.90959C50.5367 9.90959 50.2792 9.7234 50.3006 8.89592C50.365 6.41346 50.3436 3.93101 50.3006 1.46924C50.2792 0.7245 50.4723 0.455566 51.3092 0.455566C63.4981 0.476254 75.6655 0.476254 87.8543 0.455566C88.6698 0.455566 88.8844 0.683126 88.8629 1.44855C88.82 3.93101 88.82 6.41346 88.8629 8.87523C88.8844 9.66134 88.6698 9.90959 87.8114 9.90959C81.7384 9.86821 75.6654 9.8889 69.5925 9.8889Z" fill="#FEFEFE"/>
<path d="M84.4633 213.885C84.4633 213.575 84.4633 213.264 84.4633 212.975C84.4633 201.99 84.4848 191.005 84.4419 180.02C84.4419 178.965 84.7852 178.737 85.7724 178.799C86.6093 178.861 87.296 178.696 87.2746 179.958C87.2102 190.26 87.2316 200.542 87.2531 210.844C87.2531 211.506 87.0814 211.899 86.4376 212.209C85.6651 212.582 85.1071 213.223 84.4633 213.885Z" fill="#FEFEFE"/>
<path d="M89.1203 212.001C91.7598 212.001 93.777 213.967 93.7556 216.532C93.7341 219.035 91.7384 220.959 89.1418 220.959C86.4808 220.959 84.4636 219.035 84.4636 216.491C84.4636 213.946 86.4808 212.001 89.1203 212.001Z" fill="#FEFEFE"/>
<path d="M94.1844 102.111C82.017 97.3948 74.678 88.851 73.1544 76.2732C71.1801 59.9717 82.1672 45.5114 98.884 42.2635C117.532 38.6433 134.077 50.8901 137.06 67.3157C138.004 72.4668 137.639 77.5145 135.987 82.5001C135.858 82.8517 135.708 83.2034 135.558 83.5551C135.064 83.7827 134.657 83.5137 134.249 83.3276C132.189 82.3553 130.043 81.9208 127.747 81.9415C124.077 81.9829 120.408 81.9001 116.76 82.1277C116.309 82.0036 115.858 82.1484 115.408 82.1691C114.335 82.0449 113.219 82.3553 112.167 81.9208C111.824 81.5485 111.867 81.0933 111.867 80.6589C111.845 78.404 111.888 76.1284 111.845 73.8735C111.824 72.9426 112.103 72.2806 113.069 71.9703C113.476 71.8462 113.82 71.5979 114.141 71.3083C115.3 70.3153 115.343 68.95 114.27 67.8742C113.991 67.6053 113.669 67.3778 113.412 67.0881C113.09 66.6744 113.133 66.1779 113.154 65.7021C113.219 64.3988 113.004 63.0955 112.854 61.7922C112.468 58.5236 109.163 56.1653 105.751 56.8066C104.335 57.0755 103.412 56.8066 102.532 55.7516C101.244 54.2207 99.4634 53.4553 97.4677 53.476C94.1844 53.4967 92.2102 57.0549 93.6908 60.0959C93.9913 60.7165 94.4419 61.2544 94.7638 61.875C94.8496 62.2266 95.1071 62.3301 95.4505 62.4128C95.6865 62.4749 95.9655 62.537 95.8797 62.868C95.5578 63.1369 95.1501 63.0955 94.7638 63.0955C93.4333 63.1162 92.5321 63.7782 92.1029 64.9574C91.6522 66.1365 91.6952 67.295 92.6394 68.3294C93.1329 68.8672 93.9055 69.0948 94.3132 69.7154C94.5063 70.336 94.5707 70.998 94.6994 71.6393C95.1286 73.8942 96.5235 75.4044 98.7123 76.2112C99.957 76.6663 101.245 76.8732 102.575 77.018C103.734 77.1421 103.905 77.2869 103.905 78.4454C103.884 79.5625 104.099 80.7003 103.734 81.8174C103.584 82.0243 103.369 82.0656 103.133 82.0656C102.682 81.9622 102.296 82.2104 101.845 82.1898C100.386 82.1277 98.9054 82.1898 97.4462 82.1691C94.5063 82.7276 93.5836 84.093 93.7767 86.9892C94.0128 90.5474 94.3346 94.1056 94.5063 97.6844C94.5707 98.9257 94.7853 100.146 94.6994 101.387C94.635 101.656 94.8926 102.174 94.1844 102.111Z" fill="#202B6D"/>
<path d="M162.832 97.4152C155.858 92.0159 151.738 85.0443 150.579 76.5005C148.39 60.3231 160.365 44.8285 177.103 42.1185C194.914 39.2429 211.459 50.3519 214.549 67.543C216.33 77.3487 213.541 86.058 206.824 93.6088C206.738 93.7122 206.609 93.795 206.502 93.8777C206.094 93.795 206.18 93.464 206.202 93.2157C206.245 92.0779 206.18 90.9608 206.352 89.823C206.91 86.0166 204.592 82.5205 200.515 80.9689C199.313 80.5138 198.069 80.2449 196.76 80.2656C194.699 80.2862 192.618 80.3276 190.558 80.2449C190.172 80.1621 189.764 80.1208 189.378 80.2242C188.605 80.2656 187.79 80.4931 187.124 79.8518C186.781 79.045 186.931 78.1555 186.738 77.328C186.888 77.1625 187.103 77.1211 187.317 77.1418C189.592 77.39 191.888 77.0797 194.163 77.328C194.721 77.39 195.236 77.2866 195.601 76.8315C195.987 76.3143 195.751 75.8385 195.45 75.4041C193.369 72.301 192.768 68.8463 192.682 65.2467C192.639 63.7158 192.382 62.2264 191.953 60.7576C191.051 57.6131 189.056 56.0409 185.708 55.6892C183.626 55.4824 181.523 55.3789 179.42 55.11C176.931 54.7997 174.506 55.3789 172.36 56.7029C170.966 57.5511 170.236 58.7509 170.322 60.4266C170.408 61.8126 170.193 61.9367 168.734 61.854C168.433 61.8333 168.047 61.6057 167.832 61.9161C167.639 62.2264 167.983 62.4953 168.154 62.7435C168.82 63.7572 169.399 64.8329 170.3 65.7018C170.751 66.1362 171.545 66.1155 171.824 66.7568C171.18 70.4805 172.983 73.294 176.395 74.3904C177.275 74.68 178.176 74.8869 179.099 75.011C179.978 75.1351 180.472 75.5696 180.408 76.4591C180.322 77.5969 180.708 78.7968 180.129 79.9139C179.335 80.2862 178.433 80.0173 177.596 80.2656C176.802 80.3483 176.008 80.369 175.236 80.1621C175 80.1207 174.764 80.1208 174.549 80.1414C173.82 80.3483 173.069 80.2862 172.317 80.3069C168.498 80.3276 165.3 83.0376 164.764 86.72C164.313 89.8851 163.669 93.0088 163.412 96.1947C163.39 96.6291 163.283 97.1049 162.832 97.4152Z" fill="#202B6D"/>
<path d="M51.4807 55.1512C51.3305 54.2617 51.2017 53.3928 51.0086 52.524C50.8369 51.6758 50.4936 50.8897 49.9142 50.207C48.4335 48.49 47.4034 48.3865 45.5794 49.7105C42.7253 51.7999 41.1588 54.4892 40.9228 58.0061C40.6653 61.647 39.0558 64.7087 36.0515 67.0257C32.4249 65.9292 29.7854 63.8812 29.0558 60.1161C28.5193 57.3027 29.3563 54.7375 30.9872 52.3998C31.3734 51.8413 31.4807 51.4896 30.9228 50.931C30.2146 50.2277 29.8713 49.2968 29.8069 48.3038C29.6352 45.3455 29.4421 42.3873 29.3562 39.429C29.2704 36.5742 31.4378 34.2365 34.3133 33.8848C38.0043 33.4504 40.794 35.064 41.4593 38.0843C41.6738 39.0773 41.6738 40.1324 41.7168 41.1667C41.824 43.0492 41.9528 44.9525 41.9743 46.835C41.9957 47.6211 42.1459 47.7866 42.9828 47.6418C45.7725 47.166 48.4549 47.6211 50.9227 48.9658C52.339 49.7312 53.2403 50.8483 53.3476 52.5033C53.4764 54.1169 53.1116 54.634 51.4807 55.1512Z" fill="black"/>
<path d="M187.189 79.8933C187.961 79.8933 188.734 79.914 189.506 79.914C189.936 80.245 189.871 80.7208 189.871 81.1553C189.893 84.7962 189.871 88.4578 189.893 92.0987C189.893 92.9883 189.657 93.5882 188.648 93.8365C187.489 94.1468 186.953 94.9743 186.888 96.1534C186.674 99.6495 188.283 99.9805 191.502 99.5875C191.824 99.5461 192.103 99.3599 192.339 99.1531C193.798 97.9118 193.262 94.4571 191.438 93.8778C190.365 93.5468 190.086 92.9469 190.107 91.9746C190.129 88.3957 190.107 84.8169 190.129 81.238C190.129 80.8036 190.064 80.3278 190.429 79.9554C193.348 79.9554 196.309 79.4796 199.142 80.2243C202.94 81.2173 205.816 83.3688 206.652 87.2993C207.06 89.2646 206.438 91.2713 206.502 93.2572C206.502 93.4641 206.524 93.6503 206.545 93.8572C200.773 99.9185 193.584 103.208 185.107 103.911C184.7 102.98 184.979 102.008 185.064 101.077C185.386 97.1878 185.708 93.2779 186.073 89.3887C186.373 86.327 186.416 83.224 186.996 80.183C187.017 80.0795 187.082 79.9761 187.189 79.8933Z" fill="#6DB5DE"/>
<path d="M105.279 114.71C109.034 114.71 112.789 114.71 116.523 114.71C119.85 114.71 122.382 117.007 122.403 120.027C122.446 123.089 119.871 125.426 116.502 125.426C108.862 125.426 101.201 125.447 93.562 125.426C90.8796 125.426 88.562 123.544 88.1113 121.144C87.6178 118.434 89.077 115.972 91.695 115.041C92.3817 114.793 93.0684 114.71 93.798 114.71C97.6392 114.71 101.459 114.71 105.279 114.71Z" fill="#459257"/>
<path d="M182.811 114.71C186.566 114.71 190.322 114.71 194.077 114.71C197.425 114.71 199.892 116.986 199.892 120.068C199.892 123.151 197.446 125.426 194.098 125.426C186.48 125.426 178.884 125.426 171.266 125.426C168.025 125.426 165.558 123.089 165.558 120.068C165.558 117.048 168.025 114.71 171.266 114.71C175.086 114.71 178.948 114.71 182.811 114.71Z" fill="#459257"/>
<path d="M116.438 81.8382C121.18 81.6314 125.923 81.4038 130.644 81.8175C132.403 81.983 133.97 82.8105 135.537 83.5346C134.571 86.4929 132.961 89.1201 131.052 91.5612C127.64 95.9469 123.305 99.1948 118.112 101.408C118.026 101.45 117.897 101.45 117.811 101.47C117.64 101.388 117.532 101.243 117.511 101.077C117.275 99.3603 116.846 97.6639 117.017 95.9055C117.125 95.7607 117.275 95.678 117.425 95.5952C119.292 94.6229 119.936 92.4714 118.863 90.6923C118.476 90.051 117.876 89.72 117.146 89.5752C116.61 89.4718 116.18 89.2442 116.18 88.665C116.116 86.5342 116.095 84.4034 116.202 82.2934C116.202 82.1072 116.288 81.9624 116.438 81.8382Z" fill="#6DB5DE"/>
<path d="M117.082 95.9262C117.318 97.7673 117.554 99.6292 117.79 101.47C114.721 102.898 111.417 103.518 108.048 103.891C107.404 103.953 107.597 103.498 107.597 103.208C107.575 101.698 107.597 100.188 107.575 98.6775C107.575 98.3465 107.683 97.9949 107.447 97.6846C107.189 97.5398 107.082 97.2708 106.953 97.0226C106.395 95.8434 105.429 95.2849 104.099 95.1814C102.747 95.078 102.575 94.8918 102.575 93.6092C102.554 90.0717 102.554 86.5549 102.575 83.0174C102.575 82.6036 102.533 82.1899 102.897 81.8589C103.112 81.8382 103.348 81.8382 103.563 81.8175C103.884 81.5486 104.271 81.5072 104.657 81.5072C106.781 81.4865 108.884 81.4865 111.009 81.5072C111.395 81.5072 111.781 81.5279 112.103 81.8175C113.262 81.983 114.464 81.6313 115.601 82.0451C115.837 82.2933 115.859 82.6036 115.859 82.9139C115.88 84.7344 115.88 86.5549 115.859 88.3547C115.859 89.0166 115.537 89.389 114.872 89.6373C112.919 90.3406 112.146 92.9472 113.348 94.6022C113.82 95.2642 114.507 95.5745 115.344 95.5952C115.966 95.5952 116.61 95.409 117.082 95.9262Z" fill="black"/>
<path d="M187.189 79.8727C186.481 87.8787 185.772 95.9053 185.064 103.911C183.584 103.911 182.103 103.891 180.622 103.953C179.914 103.973 179.785 103.663 179.871 103.125C179.485 102.691 179.592 102.153 179.592 101.636C179.571 98.8222 179.592 96.0087 179.592 93.1952C179.592 90.3404 178.884 89.5543 175.966 89.1406C175.794 89.1199 175.622 89.0785 175.451 88.9751C174.785 87.9821 174.978 86.865 175.215 85.8927C175.665 84.0515 176.459 82.3138 177.081 80.514C177.167 80.2865 177.382 80.121 177.554 79.9555C178.369 79.6038 179.249 79.8727 180.086 79.7693C182.489 79.6038 184.85 79.459 187.189 79.8727Z" fill="black"/>
<path d="M162.833 97.4156C163.176 95.2228 163.498 93.0092 163.841 90.8164C164.077 89.2235 164.292 87.6099 164.571 86.017C165.129 82.9346 168.326 80.2039 171.588 79.9557C172.575 79.8729 173.584 79.8729 174.571 79.8315C174.893 80.1212 174.871 80.5142 174.871 80.8866C174.871 83.1622 174.893 85.4378 174.871 87.7133C174.871 88.8925 174.678 89.058 173.455 89.1821C171.288 89.4097 170.215 90.5475 170.172 92.6576C170.15 94.8297 170.193 97.0019 170.15 99.174C170.15 99.6084 170.215 100.084 169.871 100.457C169.914 101.222 169.657 101.408 168.884 101.036C166.738 100.022 164.721 98.8223 162.833 97.4156Z" fill="#6DB5DE"/>
<path d="M145.794 149.34C168.519 149.34 191.245 149.34 213.97 149.361C214.464 149.361 215.386 149.01 215.365 149.754C215.343 150.477 214.421 150.126 213.927 150.126C168.541 150.147 123.176 150.147 77.7899 150.126C77.2748 150.126 76.3521 150.436 76.3521 149.775C76.3521 148.948 77.3177 149.361 77.8328 149.361C100.494 149.34 123.155 149.34 145.794 149.34Z" fill="#0C0C0C"/>
<path d="M178.991 103.705C176.266 103.581 173.691 102.815 171.137 101.926C170.665 101.76 170.686 101.471 170.686 101.14C170.686 100.209 170.665 99.278 170.665 98.3678C170.601 98.2643 170.579 98.1609 170.601 98.0575C171.48 95.3268 172.682 92.6995 173.648 90.0102C173.734 89.7826 173.884 89.5964 174.141 89.493C174.356 89.4102 174.549 89.4102 174.764 89.3896C177.94 89.0999 179.592 90.217 179.442 93.5684C179.292 96.4646 179.42 99.3814 179.399 102.298C179.378 102.795 179.485 103.333 178.991 103.705Z" fill="black"/>
<path d="M97.3176 81.8383C98.5837 81.8383 99.8498 81.8383 101.116 81.8383C101.459 81.8383 101.824 81.7348 102.103 82.0245C102.446 82.3968 102.404 82.8519 102.404 83.3071C102.404 86.7204 102.425 90.1131 102.404 93.5265C102.404 94.8918 102.253 95.0367 100.837 95.2022C98.9914 95.409 97.897 96.5882 97.897 98.388C97.897 99.5671 97.897 100.726 97.897 101.905C97.897 102.339 97.9614 102.815 97.5107 103.125C97.3605 103.063 97.2318 103.001 97.0816 102.96C96.7597 102.546 96.8026 102.05 96.8026 101.574C96.8026 97.1054 96.7597 92.6576 96.8241 88.1892C96.8455 86.4101 97.0601 84.631 97.0387 82.8519C97.0172 82.4589 97.0601 82.1072 97.3176 81.8383Z" fill="black"/>
<path d="M97.3175 81.8389C97.2317 88.8725 97.1458 95.8854 97.06 102.919C96.0514 102.816 95.1072 102.443 94.163 102.112C94.6136 101.161 94.3132 100.188 94.2488 99.2367C94.0128 95.2855 93.7124 91.3549 93.4334 87.4244C93.3905 86.7831 93.2403 86.1211 93.3261 85.4798C93.6265 83.349 94.8926 82.2112 97.3175 81.8389Z" fill="#6DB5DE"/>
<path d="M106.759 103.933C104.227 104.077 101.695 103.891 99.1845 103.457C98.5621 103.353 98.2832 103.146 98.3046 102.484C98.369 100.829 98.3475 99.1745 98.369 97.5402C98.3261 96.5472 98.9484 95.7404 100.172 95.5128C101.717 95.2232 103.326 95.2232 104.85 95.4922C106.116 95.7197 106.867 96.7334 106.995 97.9332C107.189 99.7123 107.081 101.512 107.038 103.291C107.06 103.539 106.953 103.767 106.759 103.933Z" fill="black"/>
<path d="M170.708 98.1609C170.686 98.223 170.665 98.3057 170.665 98.3678C170.214 99.3814 170.665 100.436 170.407 101.512C169.828 101.326 170.257 100.685 169.892 100.436C169.892 97.6437 169.828 94.8716 169.871 92.0789C169.892 90.2584 171.395 88.831 173.369 88.8931C174.399 88.9137 174.571 88.5621 174.549 87.6725C174.506 85.0659 174.571 82.4387 174.571 79.8321C174.785 79.7287 174.978 79.708 175.193 79.8321C175.579 80.3079 175.515 80.8664 175.536 81.4043C175.708 83.8868 175.107 86.3279 175.343 88.8103C175.772 88.831 176.201 88.8517 176.609 88.8724C178.433 88.9758 179.892 90.3205 179.892 92.0375C179.914 95.7405 179.892 99.4228 179.871 103.126C179.592 103.333 179.764 104.222 178.97 103.726C179.184 99.7952 179.077 95.8439 179.034 91.9134C179.013 90.7135 177.897 89.7619 176.652 89.6999C175.772 89.6585 174.871 89.7205 173.991 89.7412C173.862 89.8033 174.034 89.7412 173.905 89.7826C171.03 90.8376 171.03 90.8376 171.03 93.8787C171.008 95.2854 171.116 96.7542 170.708 98.1609Z" fill="#FCFDFD"/>
<path d="M182.811 137.114C188.197 137.114 193.584 137.114 198.991 137.114C199.249 137.114 199.485 137.114 199.742 137.114C200 137.135 200.257 137.156 200.279 137.486C200.3 137.9 199.957 137.879 199.699 137.92C199.485 137.941 199.27 137.92 199.056 137.92C188.176 137.92 177.275 137.92 166.395 137.92C166.288 137.92 166.18 137.941 166.073 137.92C165.73 137.858 165.15 138.065 165.172 137.507C165.193 136.969 165.773 137.135 166.116 137.135C171.674 137.114 177.253 137.114 182.811 137.114Z" fill="#0D0D0D"/>
<path d="M105.172 137.92C99.7853 137.92 94.3776 137.92 88.9913 137.92C88.6694 137.92 88.3476 137.92 88.0257 137.9C87.8325 137.879 87.6823 137.796 87.6609 137.59C87.6394 137.362 87.7467 137.176 88.0042 137.156C88.2832 137.135 88.5836 137.114 88.8626 137.114C99.7638 137.114 110.665 137.114 121.566 137.114C121.781 137.114 121.996 137.114 122.21 137.114C122.511 137.114 122.833 137.197 122.79 137.569C122.768 137.858 122.489 137.92 122.21 137.92C121.931 137.92 121.631 137.92 121.352 137.92C115.966 137.92 110.579 137.92 105.172 137.92Z" fill="#0E0E0E"/>
<path d="M106.76 103.932C106.76 102.112 106.781 100.291 106.76 98.4706C106.738 96.6087 105.73 95.6571 103.777 95.6364C102.962 95.6364 102.146 95.6571 101.309 95.6364C99.8285 95.5744 98.8629 96.195 98.3693 97.5396C97.9401 98.7809 98.262 100.043 98.1762 101.284C98.1333 101.718 98.1333 102.174 98.1762 102.629C98.2406 103.27 97.8972 103.187 97.468 103.104C97.4895 101.512 97.4895 99.9394 97.5109 98.3464C97.5324 96.2157 98.9058 94.8089 101.095 94.871C102.017 94.8917 102.103 94.54 102.103 93.8159C102.082 89.8854 102.082 85.9755 102.082 82.045C102.296 81.7967 102.575 81.6933 102.897 81.8588C102.897 85.8721 102.94 89.8854 102.897 93.9194C102.897 94.6848 103.09 94.8917 103.884 94.8917C105.902 94.871 107.168 95.926 107.447 97.7051C107.425 99.5049 107.404 101.305 107.382 103.104C107.404 103.518 107.511 104.015 106.76 103.932Z" fill="#FBFBFB"/>
<path d="M105.171 133.784C102.854 133.784 100.536 133.784 98.2188 133.784C97.854 133.784 97.296 133.97 97.2745 133.432C97.2531 132.895 97.811 132.998 98.1758 132.998C102.875 132.998 107.596 132.998 112.296 132.998C112.661 132.998 113.219 132.874 113.197 133.432C113.154 133.97 112.596 133.784 112.253 133.784C109.871 133.784 107.511 133.784 105.171 133.784Z" fill="#0F0F0F"/>
<path d="M182.618 133.783C180.301 133.783 177.983 133.783 175.644 133.783C175.301 133.783 174.743 133.969 174.764 133.37C174.785 132.874 175.279 132.998 175.601 132.998C180.322 132.998 185.022 132.998 189.743 132.998C190.107 132.998 190.644 132.874 190.644 133.452C190.622 133.948 190.107 133.804 189.786 133.804C187.404 133.783 185.022 133.783 182.618 133.783Z" fill="#0F0F0F"/>
<path d="M206.567 32.8511C205 32.8511 203.434 32.8511 201.846 32.8511C201.502 32.8511 200.944 33.0372 200.944 32.4378C200.966 31.9624 201.438 32.0451 201.781 32.0451C204.957 32.0451 208.133 32.0451 211.309 32.0451C211.653 32.0451 212.146 31.9624 212.146 32.4378C212.146 33.0165 211.61 32.8511 211.245 32.8511C209.7 32.8511 208.133 32.8511 206.567 32.8511Z" fill="#040404"/>
<path d="M174.013 32.8506C172.403 32.8506 170.794 32.8506 169.184 32.8506C168.863 32.8506 168.455 32.9126 168.433 32.4992C168.412 32.0031 168.841 32.0445 169.206 32.0445C172.425 32.0445 175.622 32.0445 178.841 32.0445C179.184 32.0445 179.657 31.9825 179.657 32.4785C179.657 32.9953 179.163 32.8506 178.82 32.8506C177.232 32.8506 175.622 32.8506 174.013 32.8506Z" fill="#040404"/>
<path d="M190 32.8512C188.39 32.8512 186.802 32.8512 185.193 32.8512C184.85 32.8512 184.399 32.9545 184.42 32.4171C184.442 31.9831 184.85 32.0451 185.171 32.0451C188.369 32.0451 191.588 32.0451 194.785 32.0451C195.128 32.0451 195.601 31.9417 195.601 32.4378C195.622 32.9752 195.128 32.8512 194.807 32.8512C193.219 32.8512 191.609 32.8512 190 32.8512Z" fill="#050505"/>
<path d="M51.6525 57.366C51.1159 57.5521 50.5794 57.5521 50.4935 56.9315C50.4077 56.3109 50.9228 56.1454 51.4808 56.2075C51.8456 56.5592 51.9315 56.9315 51.6525 57.366Z" fill="#120D0D"/>
<path d="M203.498 201.927C194.528 201.927 185.558 201.907 176.588 201.948C175.665 201.948 175.386 201.762 175.386 200.81C175.429 191.687 175.429 182.543 175.386 173.42C175.386 172.469 175.687 172.303 176.588 172.303C194.571 172.324 212.554 172.324 230.515 172.303C231.395 172.303 231.652 172.51 231.652 173.379C231.609 182.543 231.609 191.708 231.652 200.872C231.652 201.762 231.373 201.948 230.515 201.948C221.523 201.927 212.511 201.927 203.498 201.927Z" fill="#5882AE"/>
<path d="M44.5923 56.9721C44.5708 57.4479 44.3562 57.6755 43.927 57.6962C43.5622 57.6962 43.3047 57.5307 43.2832 57.1583C43.2403 56.7445 43.4549 56.4756 43.8626 56.4342C44.2918 56.3722 44.485 56.6618 44.5923 56.9721Z" fill="#0D0807"/>
<path d="M112.125 81.8183C109.27 81.8183 106.438 81.8183 103.584 81.8183C103.584 80.5771 103.541 79.3359 103.584 78.1153C103.605 77.4947 103.434 77.2878 102.768 77.2671C101.223 77.2258 99.721 76.9361 98.3047 76.3569C95.2361 75.1157 94.1845 72.6746 94.1631 69.6543C94.3777 69.3853 94.6781 69.4888 94.9571 69.4681C96.1159 69.4474 97.146 69.1164 97.8541 68.1855C98.3691 67.5028 98.8198 67.6683 99.2919 68.2269C100.043 69.1164 101.03 69.5095 102.21 69.4267C103.798 69.3026 104.893 68.351 105.3 66.7167C105.579 65.5996 104.871 64.0687 103.798 63.4274C102.489 62.6413 101.009 62.7241 99.8069 63.6343C99.721 63.6964 99.6352 63.7584 99.5709 63.8412C98.5623 64.7721 98.5193 64.7928 97.5751 63.8619C97.0601 63.3654 96.2876 63.2826 95.8369 62.7034C95.6009 62.5172 95.3004 62.5586 95.0429 62.5793C94.485 62.6206 94.5279 62.2896 94.5923 61.938C95 61.5656 95.515 61.6483 96.0086 61.6897C98.7983 61.938 101.609 62.0207 104.421 62.0414C108.391 62.0621 111.159 64.0067 113.455 66.8822C114.614 67.3787 115.386 68.1648 115.408 69.4474C115.408 70.73 114.635 71.6402 113.476 72.0126C112.296 72.4057 112.082 73.047 112.125 74.1227C112.167 76.7293 112.125 79.2738 112.125 81.8183Z" fill="#FD9993"/>
<path d="M113.434 66.9231C112.747 66.6335 112.382 65.9922 111.867 65.5371C109.549 63.4477 106.931 62.2065 103.627 62.2685C100.601 62.3306 97.5752 62.0824 94.571 61.9789C93.0903 60.2205 92.425 58.2966 93.2619 56.0417C94.0559 53.9316 96.0087 52.8766 98.3263 53.2283C100.472 53.5593 102.103 54.6143 103.391 56.2072C103.798 56.7037 104.099 56.7658 104.721 56.6416C108.004 55.9797 110.73 56.9726 112.318 59.3517C112.876 60.1791 113.155 61.1101 113.198 62.0824C113.326 63.696 113.369 65.3096 113.434 66.9231Z" fill="black"/>
<path d="M95.8369 62.7439C97.06 62.9301 97.8755 63.6334 98.5407 64.7092C99.3562 63.4472 100.451 62.6611 101.996 62.6611C103.004 62.6611 103.884 63.0335 104.592 63.7162C106.116 65.185 105.966 67.6054 104.313 68.9293C102.532 70.3568 100.279 69.9016 98.5622 67.7502C97.575 69.4052 96.0729 69.9844 94.1845 69.6741C91.6309 68.4329 90.8369 66.5296 92.0386 64.4195C92.6394 63.3852 93.5193 62.7853 94.7854 62.8059C95.1287 62.7853 95.472 62.7646 95.8369 62.7439Z" fill="#010101"/>
<path d="M117.082 95.9262C116.438 95.9262 115.794 95.9262 115.172 95.9055C113.884 95.8434 112.961 95.0987 112.704 93.8782C112.532 93.0714 112.554 92.2232 112.661 91.4164C112.811 90.2372 113.712 89.4304 115.021 89.2856C115.537 89.2235 115.665 89.0787 115.644 88.6029C115.622 86.4101 115.622 84.2172 115.601 82.0244C115.794 81.652 116.052 81.5072 116.416 81.8175C116.416 83.9897 116.438 86.1412 116.438 88.3133C116.438 88.8925 116.459 89.2442 117.253 89.2856C118.498 89.389 119.27 90.1958 119.464 91.4371C119.549 92.0163 119.614 92.5956 119.571 93.1748C119.485 94.8298 118.755 95.5952 117.082 95.9262Z" fill="#FCFCFC"/>
<path d="M171.716 66.6947C170.45 66.405 169.635 65.5982 169.012 64.5432C168.519 63.7157 167.982 62.8882 167.424 62.1021C166.995 61.5229 167.253 61.3781 167.832 61.3987C168.433 61.4194 169.034 61.5229 169.635 61.5642C169.935 61.5849 170.171 61.6056 170.085 61.1298C169.527 57.8199 171.523 56.4131 174.291 55.4615C176.459 54.7168 178.712 54.4892 181.008 55.0478C182.274 55.3581 183.626 55.234 184.935 55.3374C189.549 55.6684 191.716 57.5096 192.575 61.9159C192.939 63.7571 193.047 65.5982 193.133 67.4394C193.283 70.3149 194.206 72.8801 195.751 75.2798C196.094 75.8177 196.33 76.2935 195.965 76.8934C195.6 77.4727 195.021 77.6795 194.42 77.6175C192.36 77.3692 190.279 77.5554 188.218 77.452C187.768 77.4313 187.317 77.3692 186.845 77.3072C186.394 77.1003 186.459 76.6659 186.48 76.3142C186.588 74.4523 186.33 72.6526 185.643 70.8735C184.957 69.0737 184.892 67.1291 184.592 65.0811C183.519 66.4878 182.231 67.3566 180.343 67.2118C178.369 67.067 177.532 65.681 176.652 64.2949C176.137 64.5432 176.008 65.019 175.751 65.35C175 66.3016 174.055 66.9015 172.789 66.9636C172.403 67.005 171.995 67.067 171.716 66.6947Z" fill="black"/>
<path d="M171.717 66.6956C174.313 67.1714 175.494 65.475 176.609 63.5098C177.511 65.1854 178.283 66.8197 180.451 67.0059C182.597 67.1921 183.669 65.7647 184.893 64.1511C185.15 66.2612 185.257 68.1023 185.665 69.9228C185.858 70.833 186.051 71.7433 186.566 72.5501C186.91 73.0672 186.717 73.6258 186.76 74.1637C186.824 75.2187 186.652 76.2944 186.845 77.3495C187.575 78.1356 187.06 79.0665 187.167 79.9147V79.894C184.807 79.8526 182.446 80.0181 180.086 79.8113C180.086 78.6114 180.043 77.4115 180.107 76.2117C180.15 75.5704 179.871 75.3842 179.292 75.3221C177.876 75.1566 176.502 74.8256 175.215 74.2257C171.91 72.6949 171.202 70.0262 171.352 67.0886C171.416 66.8404 171.545 66.7576 171.717 66.6956Z" fill="#FD9993"/>
<path d="M190.408 79.956C190.408 84.0935 190.429 88.2102 190.408 92.3476C190.408 92.9682 190.408 93.382 191.288 93.4854C192.575 93.6302 193.369 94.6646 193.434 95.9472C193.434 95.9885 193.434 96.0092 193.434 96.0506C193.755 100.291 191.61 100.167 188.67 100.023C188.155 100.002 187.704 99.7329 187.339 99.4019C186.116 98.2021 186.438 96.6919 186.652 95.3059C186.824 94.2095 187.768 93.5682 188.949 93.4647C189.507 93.4233 189.571 93.1751 189.571 92.7407C189.549 88.4791 189.528 84.2176 189.528 79.956C189.828 79.6043 190.129 79.7492 190.408 79.956Z" fill="#FDFDFE"/>
<path d="M175.343 88.8098C175.021 87.9616 175.236 87.0721 175.214 86.2032C175.193 84.0724 175.193 81.9623 175.193 79.8315C175.987 79.8729 176.781 79.935 177.575 79.9763C177.189 81.1141 176.845 82.2726 176.373 83.3897C175.644 85.1275 175.171 86.9066 175.343 88.8098Z" fill="#70B5DC"/>
<path d="M35.365 57.3237C35.365 59.3511 35.3435 61.275 35.3865 63.1989C35.3865 63.7781 35.1289 63.7368 34.7427 63.5919C34.6139 63.5506 34.4851 63.4885 34.3564 63.4264C32.382 62.7024 31.4593 61.6887 31.5237 60.3647C31.588 59.0201 32.661 58.0478 34.6139 57.4892C34.7856 57.4272 35.0002 57.4065 35.365 57.3237Z" fill="#FC9993"/>
<path d="M170.708 98.1605C170.708 96.34 170.687 94.5196 170.687 92.6991C170.687 90.5062 171.738 89.5753 173.991 89.7201C173.004 92.575 171.91 95.3884 170.708 98.1605Z" fill="#6CB5DE"/>
<path d="M203.455 201.493C194.657 201.493 185.88 201.472 177.081 201.514C176.18 201.514 175.858 201.348 175.88 200.396C175.923 191.542 175.923 182.688 175.88 173.834C175.88 172.986 176.116 172.738 176.996 172.738C194.678 172.758 212.382 172.758 230.064 172.738C231.073 172.738 231.202 173.048 231.202 173.896C231.18 182.709 231.18 191.542 231.202 200.355C231.202 201.245 231.009 201.514 230.043 201.514C221.18 201.472 212.317 201.493 203.455 201.493Z" fill="#FEFEFE"/>
<path d="M101.888 63.447C103.434 63.4263 104.785 64.6676 104.807 66.157C104.85 67.6258 103.541 68.9498 101.996 68.9912C100.472 69.0325 99.0989 67.7706 99.0774 66.2812C99.056 64.7503 100.343 63.4677 101.888 63.447Z" fill="#FC9993"/>
<path d="M94.3561 63.6339C95.5363 63.2822 96.6737 63.5925 97.4033 64.4821C98.1329 65.3716 98.2188 66.5715 97.6394 67.5645C97.06 68.5575 95.8797 69.116 94.7638 68.9298C94.5492 68.8885 94.3561 68.8264 94.1415 68.7643C93.6908 68.061 93.7552 67.3369 94.0342 66.6129C94.2917 66.2405 95.0213 66.6749 95.0857 66.1784C95.1715 65.6199 94.2273 65.9922 94.1415 65.4544C94.0342 64.8338 93.9054 64.1925 94.3561 63.6339Z" fill="#FC9993"/>
<path d="M94.3346 66.53C94.0127 67.254 94.2273 68.0195 94.1415 68.7642C92.7252 68.1643 92.2316 67.0886 92.4033 65.6818C92.5535 64.5854 93.2402 63.9027 94.3561 63.6338C94.3561 64.3165 94.3561 64.9991 94.3561 65.6818C94.5063 65.9714 94.4848 66.2611 94.3346 66.53Z" fill="#202B6C"/>
<path d="M117.06 95.057C116.91 95.0777 116.781 95.119 116.631 95.119C113.777 95.2018 112.983 94.3536 113.455 91.6022C113.605 90.692 114.185 90.1334 115.193 90.0921C115.644 90.0714 116.116 90.1128 116.588 90.1334C117.253 90.9816 117.039 92.016 117.168 92.9676C117.232 93.6503 117.575 94.3743 117.06 95.057Z" fill="#010101"/>
<path d="M117.06 95.0569C116.888 93.4226 116.738 91.7676 116.566 90.1333C117.94 90.1127 118.669 90.6919 118.734 91.9538C118.777 92.7606 118.905 93.6088 118.369 94.3328C118.069 94.7466 117.704 95.1396 117.06 95.0569Z" fill="#6EB6DE"/>
<path d="M179.978 62.0403C177.618 62.1024 175.279 61.7921 172.918 61.7507C172.275 61.73 171.996 61.6886 172.124 60.8818C172.747 56.7858 175.858 54.5929 180.107 55.317C182.382 55.6893 184.528 58.027 184.678 60.2612C184.785 62.0403 184.785 62.0403 182.983 62.0403C181.974 62.0403 180.966 62.0403 179.978 62.0403Z" fill="#FD9993"/>
<path d="M188.026 70.9157C188.026 68.8677 188.026 66.9024 188.026 64.9578C188.026 64.5233 188.176 64.4199 188.605 64.5854C188.863 64.6888 189.163 64.7302 189.42 64.813C190.923 65.3301 191.931 66.4266 191.888 67.6057C191.824 69.0745 190.837 69.8606 189.549 70.3985C189.12 70.5847 188.669 70.7088 188.026 70.9157Z" fill="#FC9993"/>
<path d="M177.21 62.8477C179.785 62.8477 182.253 62.8477 184.957 62.8477C183.584 64.2337 183.004 66.2817 180.708 66.2403C178.541 66.199 178.069 64.3785 177.21 62.8477Z" fill="#FB9892"/>
<path d="M171.996 62.4753C172.081 62.4753 172.167 62.4753 172.253 62.4546C172.639 62.5787 173.047 62.4339 173.433 62.5373C174.27 62.5787 175.129 62.6408 175.987 62.6821C175.3 65.1439 173.798 66.199 171.588 65.8266C171.244 65.3715 171.223 64.9164 171.566 64.4406C171.631 64.3992 171.674 64.3785 171.738 64.3578C171.974 64.2751 172.382 64.3992 172.446 64.0682C172.532 63.6751 172.06 63.6958 171.824 63.5096C171.781 63.4683 171.717 63.4269 171.674 63.3648C171.523 62.9925 171.481 62.6408 171.996 62.4753Z" fill="#FB9892"/>
<path d="M171.996 62.4755C171.824 62.7651 171.781 63.0961 171.803 63.4271C171.91 63.7788 171.953 64.1305 171.76 64.4822C171.459 64.9166 171.609 65.3924 171.567 65.8475C170.043 65.3303 169.592 63.8615 168.734 62.7858C168.412 62.3928 168.884 62.3721 169.142 62.3721C170.086 62.3928 171.03 62.4341 171.996 62.4755Z" fill="#202B6C"/>
<path d="M173.412 62.5582C173.004 62.6204 172.618 62.6204 172.232 62.4752C172.639 62.3923 173.047 62.33 173.412 62.5582Z" fill="#202B6C"/>
<path d="M190.086 99.2369C187.833 99.2369 187.404 98.8646 187.382 96.8993C187.382 94.7065 187.811 94.21 189.721 94.21C192.124 94.21 192.575 94.603 192.575 96.6097C192.597 98.8232 192.21 99.2369 190.086 99.2369Z" fill="#6DB5DE"/>
<path d="M203.627 177.124C200.773 177.124 197.918 177.082 195.064 177.144C193.927 177.165 194.12 176.524 194.099 175.883C194.099 175.221 193.97 174.621 195.064 174.621C200.708 174.662 206.33 174.662 211.974 174.621C212.811 174.621 213.004 174.89 212.961 175.634C212.897 177.372 213.133 177.103 211.416 177.103C208.82 177.124 206.223 177.124 203.627 177.124Z" fill="#5F87B2"/>
<path d="M101.889 65.5371C102.361 65.5578 102.618 65.806 102.64 66.1784C102.661 66.5715 102.404 66.8197 101.996 66.8404C101.588 66.8611 101.309 66.6128 101.288 66.2198C101.266 65.8267 101.545 65.6199 101.889 65.5371Z" fill="#180E0E"/>
<path d="M94.3344 66.53C94.1842 66.2404 94.2057 65.9714 94.3559 65.7025C94.7422 65.4542 95.1284 65.3715 95.4503 65.7852C95.622 66.0335 95.6435 66.2817 95.4289 66.53C95.0641 66.9023 94.6993 66.8403 94.3344 66.53Z" fill="#0C0708"/>
<path d="M179.442 64.8747C179.013 64.8126 178.777 64.5851 178.798 64.192C178.798 63.8197 179.034 63.6128 179.399 63.6128C179.807 63.6128 180.107 63.799 180.086 64.2127C180.086 64.5851 179.85 64.8333 179.442 64.8747Z" fill="#080505"/>
<path d="M171.738 64.4614C171.502 64.0891 171.545 63.7581 171.781 63.4064C172.168 63.365 172.575 63.2409 172.79 63.696C172.919 63.9442 172.919 64.2132 172.683 64.4407C172.382 64.751 172.06 64.6683 171.738 64.4614Z" fill="#080505"/>
<path d="M203.669 175.179C206.309 175.179 208.948 175.179 211.588 175.179C212.146 175.179 212.511 175.221 212.511 175.924C212.511 176.648 212.146 176.669 211.588 176.669C206.245 176.648 200.88 176.669 195.536 176.669C195.021 176.669 194.656 176.648 194.656 175.986C194.656 175.324 194.914 175.179 195.536 175.179C198.24 175.2 200.944 175.179 203.669 175.179Z" fill="#FCFDFD"/>
</svg>
