<svg width="43" height="43" viewBox="0 0 43 43" fill="none" xmlns="http://www.w3.org/2000/svg">
<circle cx="21.5" cy="21.5" r="21.5" fill="#F5F5F5"/>
<path fill-rule="evenodd" clip-rule="evenodd" d="M15.4013 11C15.9535 11 16.4013 11.4477 16.4013 12C16.4013 12.5523 15.9535 13 15.4013 13H12V31.1298H15.4013C15.9535 31.1298 16.4013 31.5775 16.4013 32.1298C16.4013 32.6821 15.9535 33.1298 15.4013 33.1298H12C10.8954 33.1298 10 32.2343 10 31.1298V13C10 11.8954 10.8954 11 12 11H15.4013ZM25.1562 27.0393L29.2473 23.0114H16.7277C16.1755 23.0114 15.7277 22.5637 15.7277 22.0114C15.7277 21.4592 16.1755 21.0114 16.7277 21.0114L29.2473 21.0114L25.1562 16.9836C24.7627 16.5961 24.7578 15.963 25.1452 15.5694C25.5327 15.1759 26.1659 15.1709 26.5594 15.5584L31.6662 20.5863C32.462 21.3697 32.462 22.6531 31.6662 23.4366L26.5594 28.4645C26.1659 28.8519 25.5327 28.847 25.1452 28.4535C24.7578 28.0599 24.7627 27.4268 25.1562 27.0393Z" fill="#FF3030"/>
</svg>
