<svg width="43" height="43" viewBox="0 0 43 43" fill="none" xmlns="http://www.w3.org/2000/svg">
<circle cx="21.5" cy="21.5" r="21.5" fill="#F5F5F5"/>
<path d="M22.8531 14.2638V28.97H24.3933L25.0401 30.8028L27.7714 28.97H31.1469V14.2638H22.8531ZM29.2115 27.0216H27.6738L25.7461 28.3154L25.2891 27.0216H24.8271V16.2712H29.2089V27.0216H29.2115ZM21.8622 20.8558H18.4533C18.5072 19.7032 18.5637 18.1785 18.6227 16.4175H21.9829L21.9803 16.2096C21.9803 16.1942 21.9752 15.8322 21.9213 15.4626C21.8674 15.0776 21.7519 14.5667 21.3822 14.5667H15.7452C15.8581 14.0379 16.1482 12.7776 16.4999 12.1589L16.6641 11.8714L16.333 11.8535C16.3125 11.8535 15.8299 11.8303 15.2703 12.1255C14.3539 12.6133 13.9432 13.5733 13.7635 14.2921C13.2911 16.1685 12.6186 17.4725 12.3337 18.0296C12.249 18.1939 12.1976 18.2914 12.1745 18.3581C12.1283 18.4839 12.154 18.6097 12.2464 18.6918C12.5159 18.9357 13.227 18.6174 13.2347 18.6148C13.2501 18.6071 13.268 18.5994 13.2911 18.5892C13.648 18.4274 14.7055 17.9474 15.0829 16.4201H16.5384C16.5563 17.2466 16.6179 19.9728 16.6128 20.8584H12.9934L12.9395 20.8969C12.3465 21.3307 12.1565 22.5192 12.1488 22.5705L12.1129 22.8067H16.3997C16.084 24.8166 15.7195 25.7176 15.527 26.077C15.432 26.2567 15.3396 26.4364 15.2523 26.6109C14.7055 27.6942 14.1382 28.8134 12.0102 30.5538C11.9178 30.6257 11.8305 30.7591 11.887 30.9055C11.9486 31.0672 12.1257 31.1391 12.5185 31.1391C12.6571 31.1391 12.8214 31.1314 13.0165 31.1134C14.2974 31.0004 15.604 30.6513 16.4845 28.8647C16.9208 27.9637 17.2982 27.0242 17.6113 26.0693L21.1153 30.1764L21.2436 29.8684C21.2641 29.8196 21.7313 28.6799 21.3745 27.4067L21.3617 27.3605L18.5868 24.2031L18.0221 24.6292C18.1863 23.9593 18.2942 23.3483 18.3429 22.8041H22.4167V22.5988C22.4167 21.5694 21.9418 20.9585 21.9238 20.9328L21.8622 20.8558Z" fill="#F6D523" fill-opacity="0.85"/>
</svg>
