<svg width="43" height="43" viewBox="0 0 43 43" fill="none" xmlns="http://www.w3.org/2000/svg">
<circle cx="21.5" cy="21.5" r="21.5" fill="#F5F5F5"/>
<path fill-rule="evenodd" clip-rule="evenodd" d="M29.2495 14.8529C28.9811 13.7882 27.5114 12 20.6452 12C17.4101 12 15.0622 12.3549 13.6653 13.0556C12.1229 13.8292 12 14.8757 12 15.1851V21.2368C12.0072 25.0097 14.0447 28.4866 17.3327 30.337L19.9764 31.8249C20.3917 32.0584 20.8988 32.0584 21.3141 31.8249L23.9577 30.337C27.2458 28.4866 29.2833 25.0097 29.2905 21.2368V15.1851C29.2905 15.0731 29.2767 14.9615 29.2495 14.8529ZM27.9254 21.2231C27.9256 24.5101 26.1533 27.5417 23.2889 29.154L20.6452 30.6555L18.0016 29.1676C15.1372 27.5554 13.3648 24.5237 13.365 21.2368V15.1851C13.365 15.1851 13.365 13.365 20.6452 13.365C27.4704 13.365 27.9254 15.1851 27.9254 15.1851V21.2231Z" fill="#4DA63E"/>
</svg>
