<svg width="43" height="43" viewBox="0 0 43 43" fill="none" xmlns="http://www.w3.org/2000/svg">
<circle cx="21.5" cy="21.5" r="21.5" fill="#F5F5F5"/>
<circle cx="21" cy="22" r="9" stroke="#ED2121" stroke-width="2"/>
<path fill-rule="evenodd" clip-rule="evenodd" d="M23.1213 25.5355C23.5119 25.9261 24.145 25.9261 24.5356 25.5355C24.9261 25.145 24.9261 24.5118 24.5356 24.1213L22.4142 22L24.5356 19.8787C24.9261 19.4882 24.9261 18.855 24.5356 18.4645C24.145 18.0739 23.5119 18.0739 23.1213 18.4645L21 20.5858L18.8787 18.4645C18.4882 18.0739 17.855 18.0739 17.4645 18.4645C17.074 18.855 17.074 19.4882 17.4645 19.8787L19.5858 22L17.4645 24.1213C17.074 24.5118 17.074 25.145 17.4645 25.5355C17.855 25.9261 18.4882 25.9261 18.8787 25.5355L21 23.4142L23.1213 25.5355Z" fill="#ED2121"/>
</svg>
