<svg width="250" height="230" viewBox="0 0 250 230" fill="none" xmlns="http://www.w3.org/2000/svg">
<path d="M107.794 60.2008C108.056 58.7824 108.056 58.7824 109.341 59.0403C112.894 59.7495 116.468 60.4587 120.02 61.1679C120.259 61.2109 120.521 61.1894 120.761 61.2109C120.913 61.2539 121.066 61.1249 121.218 61.2539C122.395 62.1135 123.877 62.4359 125.032 63.36C125.293 63.5749 125.49 64.0692 125.991 63.7898C126.231 63.8758 126.383 64.0477 126.536 64.2196C129.064 66.6696 130.349 69.6568 130.654 73.0954C130.763 74.2129 130.524 75.3089 130.327 76.405C129.434 81.6702 128.606 86.9355 128.126 92.2438C127.865 95.1235 127.8 98.0248 127.015 100.84C126.405 103.054 125.686 105.224 124.531 107.244C124.182 107.868 124.226 108.448 124.422 109.093C126.274 115.346 128.192 121.579 130.066 127.811C132.267 135.075 134.446 142.339 136.669 149.603C136.974 151.15 136.626 152.676 136.473 154.181C136.059 158.543 135.623 162.927 135.296 167.29C135.1 170.019 135.776 172.684 137.018 175.156C138.064 177.24 139.132 179.303 140.243 181.345C140.461 181.753 140.853 182.183 140.505 182.72C140.178 182.914 139.829 182.935 139.48 182.871C137.998 182.634 136.495 182.72 134.991 182.806C129.064 182.677 123.136 182.785 117.23 182.742C116.751 182.742 116.293 182.763 115.814 182.72C114.288 182.806 112.741 182.634 111.216 182.806C110.736 182.935 110.823 183.344 110.823 183.666C110.801 184.461 110.823 185.278 110.802 186.094C110.802 186.481 110.823 186.868 110.496 187.169C109.93 186.997 110.017 186.524 109.973 186.116C109.93 185.471 109.952 184.827 109.952 184.182C109.973 183.473 109.93 182.849 109.167 182.463C108.666 182.205 108.666 181.624 108.644 181.13C108.622 179.669 108.644 178.207 108.622 176.724C108.622 176.316 108.709 175.865 108.317 175.435C107.903 175.8 108.012 176.295 108.012 176.703C107.99 179.712 108.012 182.72 107.99 185.708C107.99 186.223 108.208 186.89 107.424 187.126C107.053 186.696 107.162 186.18 107.162 185.686C107.162 182.613 107.162 179.54 107.14 176.488C107.14 176.08 107.337 175.607 106.857 175.328C106.007 175.091 105.157 175.242 104.307 175.199C103.893 175.177 103.457 175.199 103.065 174.962C102.259 174.017 102.499 172.835 102.39 171.782C101.431 162.497 100.494 153.213 99.5349 143.908C98.8157 136.902 98.1183 129.874 97.3992 122.868C97.3338 122.224 97.2684 121.536 98.1619 121.321C99.1208 121.085 99.9271 121.364 100.298 122.138C100.472 122.503 100.559 122.89 100.668 123.255C102.913 132.045 105.201 140.813 107.511 149.581C107.816 150.72 108.034 151.881 108.317 153.042C108.143 152.397 108.012 151.774 108.034 151.107C108.186 143.8 107.707 136.515 107.794 129.208C107.86 123.771 107.424 118.334 107.598 112.897C107.838 111.779 107.38 111.091 106.399 110.425C98.6196 105.095 90.8397 99.7441 83.0598 94.3928C82.7547 94.1779 82.4496 93.9845 82.297 93.6407C82.1445 92.5231 83.0162 91.7495 83.3431 90.8039C84.9993 87.5802 86.6555 84.3566 88.2464 81.09C88.8348 80.6387 89.2706 81.0685 89.7065 81.3479C92.9753 83.3465 96.157 85.4526 99.4041 87.4943C101.845 89.0416 104.242 90.6319 106.705 92.1578C106.944 92.3082 107.184 92.5876 107.467 92.3727C107.707 92.2008 107.598 91.9214 107.576 91.6635C107.293 88.8912 107.358 86.1188 107.554 83.325C108.426 80.4667 108.775 77.501 109.429 74.5782C109.559 73.998 109.603 73.3747 109.777 72.7945C110.431 70.6454 109.886 68.9476 107.86 67.8086C107.511 67.3788 107.576 66.863 107.576 66.3902C107.576 64.3486 107.663 62.2854 107.794 60.2008Z" fill="#6DB5DE"/>
<path d="M35.4216 35.6579C36.2279 30.2207 37.056 24.7621 37.8623 19.3249C38.1456 17.3692 39.0827 16.66 41.044 16.9394C53.7054 18.7661 66.3668 20.5713 79.0063 22.3981C82.2752 22.8709 85.5223 23.3651 88.7912 23.8379C90.3602 24.0743 91.1229 25.1059 90.905 26.6318C90.8178 27.255 90.6217 27.8997 90.7742 28.5445C90.7307 30.5861 90.2948 32.5847 89.9897 34.6049C89.9026 35.9158 89.5321 37.2053 89.5757 38.5377C89.3577 38.989 89.3142 39.4618 89.336 39.9561C88.7912 42.0407 88.6822 44.2113 88.2464 46.3174C87.9631 49.1542 87.3964 51.9265 87.0478 54.7633C87.0042 55.1502 86.9388 55.537 86.9606 55.9239C86.1978 59.6848 85.762 63.4887 85.1736 67.2711C84.8249 69.6351 84.4545 71.999 84.1058 74.3845C84.0622 74.7284 84.0186 75.0937 83.7571 75.3731C83.1469 75.76 82.7546 75.2872 82.3406 74.9863C80.9241 73.9332 79.3114 73.4174 77.5463 73.4174C77.1104 73.4389 76.8053 73.1381 76.5002 72.9017C76.108 72.6008 75.7811 72.6438 75.4324 72.9232C74.1249 72.1495 72.6866 71.6337 71.2919 71.0964C70.1804 70.6666 69.1562 70.8385 68.2409 71.5692C67.914 71.6982 67.5218 71.7626 67.5218 72.2354C67.2167 72.7297 66.8898 73.2025 66.454 73.5894C66.1053 73.8043 65.9527 74.1052 65.9527 74.5135C65.299 77.0279 66.1924 78.8117 68.3499 80.2516C72.5122 83.0454 76.6528 85.8392 80.7715 88.676C81.2292 88.9984 81.8176 89.2347 81.8176 89.9439C81.7522 90.6102 81.5997 91.2549 81.4471 91.9211C81.2074 93.0816 80.5101 93.7908 79.3115 93.9842C76.7182 94.0272 74.212 93.447 71.6623 93.0816C63.2287 91.8781 54.8168 90.6317 46.3831 89.4497C45.9473 89.3852 45.5333 89.2992 45.0974 89.2133C44.618 89.0413 44.1168 89.0628 43.6373 89.0198C39.2788 88.3966 34.9203 87.7949 30.5619 87.1071C28.7749 86.8278 28.0557 85.9896 27.9468 84.2704C27.9468 83.905 27.9468 83.5182 27.9904 83.1528C28.7313 79.0481 29.2325 74.9003 29.8863 70.7741C29.9735 70.2798 30.017 69.7855 30.2568 69.3342C30.6272 68.8614 31.1067 69.0978 31.5643 69.1193C33.0462 69.2052 34.3101 68.9258 34.9857 67.4215C35.2472 67.1206 35.1819 66.7338 35.1819 66.3684C35.6831 65.7667 35.7921 65.0145 36.01 64.2838C36.2279 64.0259 36.4022 63.768 36.3805 63.4242C36.5984 61.3396 35.4434 59.5343 33.1552 58.3953C32.6975 58.1589 32.0873 58.0944 31.9566 57.4282C32.3271 53.7963 32.9591 50.2073 33.5039 46.5968C33.7654 44.856 33.9179 43.1153 34.3319 41.396C34.4845 41.0092 34.5063 40.6008 34.5063 40.171C34.637 39.0535 34.7896 37.936 35.0293 36.8399C35.1383 36.4316 35.1383 35.9803 35.4216 35.6579Z" fill="#202B6D"/>
<path d="M180.079 144.445C179.818 144.875 180.079 145.283 180.167 145.67C183.588 159.36 187.009 173.049 190.431 186.76C190.104 187.362 189.516 187.276 188.993 187.276C187.14 187.298 185.288 187.341 183.457 187.276C179.469 187.126 175.503 187.642 171.515 187.47C170.491 187.47 169.488 187.47 168.464 187.47C167.592 187.47 167.069 187.104 166.96 186.245C166.786 184.654 166.35 183.107 166.525 181.452C166.677 179.991 166.198 178.551 165.958 177.111C163.713 162.734 161.491 148.356 159.224 133.957C159.115 133.27 159.093 132.517 158.57 131.959C157.938 129.1 157.633 126.199 157.154 123.319C156.718 120.676 156.326 118.033 155.912 115.389C155.825 114.873 155.694 114.336 156.021 113.842C157.045 113.326 158.156 113.605 159.224 113.584C160.968 113.541 160.968 113.562 161.294 111.843C161.687 109.587 162.123 107.352 162.493 105.095C162.667 104.042 162.558 103.913 161.469 103.892C160.248 103.87 159.006 103.892 157.786 103.87C157.328 103.87 156.827 103.913 156.456 103.548C156.195 102 156.413 100.431 156.522 98.8841C156.653 97.0359 156.718 95.1877 156.827 93.3395C156.98 90.6316 157.11 87.9453 157.306 85.2374C157.328 84.9795 157.372 84.7431 157.503 84.5282C157.59 84.3993 157.699 84.3563 157.829 84.3778C158.331 84.9151 158.135 85.6028 158.156 86.226C158.222 88.1817 159.072 89.0198 161.033 89.0413C163.866 89.0628 165.195 87.3005 164.345 84.5927C164.106 83.7975 163.583 83.1958 162.733 82.9809C161.752 82.7445 161.403 82.1642 161.425 81.1971C161.447 77.1568 161.425 73.1165 161.447 69.0763C161.447 67.8298 161.687 67.5934 162.885 67.5719C164.868 67.5504 166.873 67.443 168.856 67.6364C170.273 67.7653 171.646 68.1307 172.888 68.8399C173.607 69.2267 173.869 69.0333 173.847 68.2596C173.825 67.228 173.825 66.175 173.847 65.1434C173.847 64.7351 173.803 64.2623 174.217 63.9614C174.283 63.9829 174.392 64.0259 174.392 64.0689C174.566 65.9386 174.435 67.8083 174.479 69.635C174.479 68.1307 174.457 66.6048 174.501 65.0575C174.501 64.6921 174.304 64.2623 174.697 63.9614C175.22 64.2408 175.111 64.7566 175.111 65.2079C175.133 66.4974 175.133 67.7868 175.111 69.0763C175.089 69.8499 175.35 70.4517 175.895 70.9889C177.813 72.8587 178.576 75.0722 178.423 77.7801C178.184 82.1642 177.835 86.5484 177.704 90.954C177.704 91.3408 177.617 91.7277 177.508 92.1145C177.486 92.3079 177.486 92.5013 177.486 92.6733C177.421 96.1333 177.094 99.5933 176.92 103.032C176.832 104.816 176.636 106.599 176.636 108.383C176.636 109.844 176.375 111.22 175.568 112.488C175.198 113.047 175.089 113.67 175.089 114.336C175.089 117.345 175.089 120.332 175.089 123.341C175.089 124.824 175.59 126.221 175.939 127.639C177.246 132.99 178.663 138.32 179.927 143.671C180.079 143.951 180.101 144.187 180.079 144.445Z" fill="#6DB5DE"/>
<path d="M107.925 112.616C108.012 120.697 108.099 128.799 108.208 136.88C108.295 142.575 108.404 148.248 108.513 153.986C108.143 153.771 108.186 153.385 108.099 153.062C105.484 143.069 102.891 133.054 100.298 123.061C100.08 122.18 99.9272 121.471 98.6632 121.599C97.8351 121.685 97.639 121.836 97.7261 122.653C98.6632 131.485 99.5785 140.297 100.494 149.129C101.344 157.36 102.15 165.57 102.978 173.801C103.022 174.188 103.109 174.575 103.174 174.961C103.545 175.327 103.501 175.821 103.545 176.272C103.915 179.754 104.373 183.235 104.591 186.738C104.591 186.996 104.7 187.233 104.721 187.491C104.983 190.37 105.288 193.25 105.593 196.13C105.615 196.388 105.637 196.646 105.637 196.904C106.094 201.073 106.487 205.264 106.923 209.433C106.944 209.691 106.944 209.949 106.944 210.206C107.206 211.259 107.162 212.334 107.315 213.409C107.38 213.817 107.402 214.268 106.966 214.569C105.876 214.72 104.809 214.612 103.719 214.612C99.0119 214.634 94.3265 214.634 89.6194 214.612C89.031 214.612 88.3772 214.741 87.8977 214.204C87.9413 212.828 87.767 211.474 87.6581 210.099C87.4401 209.906 87.4183 209.648 87.3748 209.39C86.9607 205.242 86.7646 201.094 86.5031 196.947C86.5031 196.689 86.4813 196.431 86.5031 196.173C86.1326 193.293 86.1108 190.37 85.871 187.469C85.871 187.276 85.871 187.082 85.871 186.889C85.5006 182.977 85.3698 179.045 84.9993 175.133C84.716 169.718 84.2584 164.302 83.9315 158.886C83.6918 155.061 83.4521 151.257 83.1906 147.453C82.8637 142.575 82.5586 137.696 82.1882 132.796C81.9048 128.992 81.7087 125.167 81.4472 121.363C81.1857 117.581 81.0332 113.798 80.6627 110.037C80.6409 109.715 80.6409 109.393 80.6409 109.07C80.6409 108.791 80.7062 108.533 80.8588 108.318C81.2946 107.953 81.8177 108.06 82.3189 108.146C90.4693 109.479 98.5978 110.811 106.748 112.186C107.184 112.208 107.62 112.272 107.925 112.616Z" fill="#8F3600"/>
<path d="M156.064 113.906C156.609 117.538 157.154 121.17 157.699 124.781C158.069 127.166 158.44 129.573 158.832 131.959C158.788 132.152 158.636 132.26 158.461 132.346C157.372 132.367 157.023 133.012 156.914 134C156.435 138.707 155.846 143.392 155.301 148.077C154.691 153.45 154.059 158.822 153.449 164.174C153.297 165.42 153.188 166.667 152.991 167.913C152.904 168.493 153.1 168.966 153.384 169.439C155.846 173.544 158.222 177.691 160.706 181.753C163.125 186.073 165.74 190.264 168.203 194.54C170.099 197.828 172.169 201.009 173.912 204.383C173.912 204.426 173.912 204.491 173.912 204.533C173.542 205.006 173.825 205.372 174.043 205.801C175.438 208.273 176.832 210.766 178.227 213.237C178.401 213.538 178.532 213.882 178.685 214.183C178.358 214.527 177.9 214.548 177.464 214.548C171.036 214.548 164.585 214.57 158.156 214.548C157.938 214.548 157.72 214.527 157.503 214.484C156.98 214.376 156.805 213.947 156.587 213.538C155.999 212.442 155.519 211.325 154.844 210.272C154.713 210.035 154.582 209.799 154.473 209.562C152.338 205.264 149.941 201.095 147.783 196.775C147.696 196.582 147.587 196.41 147.5 196.217C145.887 193.315 144.405 190.371 142.836 187.448C142.749 187.255 142.64 187.083 142.553 186.889C142.052 185.75 141.311 184.74 140.788 183.623C140.635 183.279 140.374 182.957 140.483 182.527C139.415 180.485 138.391 178.444 137.279 176.423C135.122 172.577 134.708 168.472 135.187 164.152C135.732 159.317 136.211 154.481 136.451 149.624C136.168 146.573 136.8 143.585 137.018 140.555C137.323 136.386 137.737 132.238 138.151 128.069C138.391 126.414 138.456 124.738 138.608 123.062C138.848 121.063 139.023 119.043 139.175 117.044C139.24 115.991 139.24 114.916 139.655 113.906C140.069 113.477 140.635 113.477 141.158 113.477C145.669 113.455 150.18 113.455 154.691 113.477C155.214 113.541 155.694 113.52 156.064 113.906Z" fill="#E74F4F"/>
<path d="M157.219 214.204C164.389 214.204 171.559 214.204 178.728 214.204C178.51 216.482 177.791 218.653 177.312 220.888C176.723 223.617 176.048 226.325 175.481 229.054C175.329 229.785 175.045 230 174.283 230C163.539 229.957 152.795 229.935 142.073 229.935C117.949 229.935 93.8033 229.957 69.6792 229.978C68.2844 229.978 68.2626 229.978 68.5242 228.581C69.0036 226.153 70.2022 224.24 72.4468 222.951C77.2411 220.221 81.9918 217.428 86.7644 214.655C87.1348 214.44 87.4835 214.161 87.9411 214.161C93.9123 214.161 99.9052 214.182 105.876 214.182C106.269 214.182 106.683 214.118 107.031 214.333C107.402 214.548 107.336 214.956 107.38 215.3C107.685 217.342 107.794 219.426 108.012 221.468C108.121 222.585 108.23 222.671 109.232 222.07C113.438 219.598 117.622 217.105 121.807 214.634C122.33 214.311 122.853 213.989 123.485 213.925C125.054 213.581 126.666 213.645 128.257 213.645C132.964 213.667 137.693 213.581 142.4 213.688C143.141 213.774 143.403 214.268 143.577 214.913C144.274 217.406 144.885 219.899 145.56 222.392C145.844 223.445 145.865 223.467 146.693 222.779C149.81 220.157 152.882 217.492 155.999 214.849C156.391 214.569 156.696 214.204 157.219 214.204Z" fill="black"/>
<path d="M156.064 113.906C150.987 113.906 145.909 113.885 140.831 113.885C140.461 113.885 140.09 113.842 139.807 114.142C139.48 114.185 139.132 114.185 138.805 114.185C138.63 114.185 138.456 114.185 138.26 114.207C136.168 114.207 134.076 114.293 131.984 113.971C129.87 113.648 128.432 111.929 128.758 110.059C129.652 109.414 130.72 109.952 131.766 109.629C130.742 109.243 129.63 109.823 128.758 109.157C128.497 108.619 128.497 108.082 128.737 107.545C129.172 107.029 129.783 107.201 130.327 107.158C130.785 107.115 131.265 107.222 131.788 107.029C130.807 106.707 129.783 107.136 128.911 106.685C128.649 105.654 129.347 105.03 130.066 104.622C130.916 104.128 130.959 103.633 130.633 102.795C130.153 101.57 130.219 100.259 130.48 98.9914C131.657 93.4253 132.877 87.8806 133.901 82.2715C134.337 79.9505 134.773 77.6295 135.187 75.3084C135.296 74.7497 135.253 74.2554 134.991 73.7611C132.899 69.6778 131.068 65.4656 128.933 61.4038C128.562 60.6946 128.126 60.0499 127.821 59.3192C127.756 58.8894 127.8 58.4811 127.996 58.0942C128.475 56.9337 129.303 56.3105 130.589 56.3105C131.482 56.9337 131.788 57.9653 132.267 58.8464C132.921 60.0499 133.596 61.2534 134.424 62.3494C133.771 60.9525 133.052 59.5771 132.311 58.2017C131.94 57.5355 131.33 56.9552 131.482 56.0741C132.267 55.8592 133.052 55.6443 133.858 55.4294C134.381 55.7087 134.577 56.2245 134.817 56.6973C135.47 58.0512 136.299 59.3192 136.974 60.6731C137.148 60.9955 137.301 61.3823 137.802 61.6617C136.931 59.792 135.906 58.1587 135.035 56.4394C134.838 56.0741 134.468 55.7517 134.73 55.2789C136.081 55.193 137.257 55.7087 138.391 56.3535C138.587 56.3964 138.718 56.5254 138.783 56.6973C139.458 58.739 140.592 60.5012 142.008 62.113C142.052 62.6503 142.4 63.0586 142.597 63.5314C142.684 63.7034 142.771 63.8753 142.836 64.0472C143.011 64.563 143.272 65.0358 143.534 65.5516C143.882 65.0573 143.795 64.4555 143.991 63.9612C144.1 63.7678 144.209 63.5529 144.471 63.5099C145.604 63.7248 146.781 63.5529 147.87 64.0042C148.132 64.563 147.914 65.1218 147.827 65.6805C147.587 66.97 147.347 68.2809 147.173 69.5704C146.628 71.9988 146.323 74.4918 145.735 76.9203C145.713 77.2856 145.582 77.608 145.539 77.9733C144.841 82.0996 144.122 86.2473 143.468 90.3951C143.25 91.2547 143.163 92.1358 143.011 93.0169C142.575 95.4239 142.161 97.8524 141.703 100.259C141.551 101.033 141.812 101.484 142.553 101.721C143.207 101.936 143.861 102.151 144.514 102.344C145.887 102.946 147.347 103.075 148.851 103.075C151.074 103.075 153.318 103.354 155.541 103.268C155.912 103.247 156.26 103.333 156.566 103.526C158.418 103.547 160.248 103.612 162.101 103.612C162.842 103.612 163.103 103.762 162.929 104.601C162.34 107.459 161.839 110.339 161.338 113.218C161.251 113.777 161.033 113.928 160.488 113.928C159.028 113.885 157.546 113.906 156.064 113.906Z" fill="#FD9993"/>
<path d="M83.5609 75.4807C84.0403 73.7184 84.1711 71.9132 84.4326 70.1294C85.1299 65.6378 85.7619 61.1247 86.4157 56.6117C86.4592 56.2893 86.6554 56.1174 86.8079 55.881C87.5053 54.8494 88.5731 54.8709 89.6192 54.9998C90.9267 55.1503 92.1907 55.4082 93.4764 55.6875C94.6314 55.9454 94.7186 56.0744 94.5007 57.2349C93.8687 60.6519 93.1713 64.0475 92.4739 67.4431C92.3214 68.1523 92.1906 68.84 92.0817 69.5492C91.9509 70.2154 91.6459 70.6022 90.8613 70.6452C89.4012 70.7312 88.6603 71.4404 88.3334 72.8803C88.1808 73.5465 88.0065 74.2127 88.1373 74.9004C88.3988 76.2328 89.6845 77.028 91.8202 77.157C93.0188 77.2214 93.9776 76.5122 94.3481 75.2228C94.4789 74.75 94.5661 74.2557 94.6314 73.7399C94.7622 72.5364 94.3481 71.6123 93.1931 71.1395C92.365 70.7957 92.1689 70.2369 92.3432 69.4202C93.2149 65.294 93.9558 61.1247 94.8057 56.9985C94.8929 56.5687 94.9801 56.1389 95.5467 56.0959C98.1182 56.4612 100.624 57.0845 103.174 57.5358C103.501 57.6002 103.784 57.7292 104.024 57.9656C104.721 58.116 105.44 58.3309 106.138 58.3954C107.009 58.4814 107.271 58.7607 107.053 59.6634C106.508 62.0059 106.051 64.3484 105.615 66.7124C105.506 67.3571 105.31 67.3786 104.721 67.2711C101.888 66.7769 100.428 67.8514 99.9052 70.6452C99.295 73.8474 98.6412 77.028 98.0093 80.2087C97.617 82.2288 98.4233 83.8836 100.167 84.5068C100.515 84.6358 100.929 84.8292 101.126 84.3994C101.343 83.8836 100.82 83.9051 100.494 83.7547C99.1642 83.2174 98.5322 82.2073 98.7937 80.7674C99.4693 77.1784 100.167 73.611 100.908 70.0435C101.256 68.4317 102.542 67.6795 104.176 68.0233C105.375 68.2597 106.574 68.5391 107.772 68.797C108.077 69.3128 108.077 69.893 108.077 70.4518C108.099 73.2241 108.077 76.0179 107.794 78.7903C107.554 79.9508 107.336 81.0898 107.097 82.2503C106.77 83.7762 105.898 84.4853 104.285 84.5068C103.98 84.5068 103.566 84.3779 103.501 84.8292C103.457 85.345 103.893 85.3235 104.264 85.345C105.789 85.388 106.901 84.7432 107.576 83.3893C107.816 83.5612 107.794 83.8191 107.794 84.077C107.816 86.8923 107.838 89.7291 107.838 92.5444C107.838 92.7164 107.881 92.9098 107.598 93.1032C105.44 91.7278 103.239 90.3094 101.017 88.9125C97.1375 86.441 93.2367 83.9481 89.3576 81.4766C89.0743 81.2832 88.7693 80.8534 88.3552 81.3477C87.8322 81.3907 87.4617 81.0683 87.1566 80.7244C85.9145 79.1986 84.7813 77.5868 83.6263 75.9964C83.5827 75.846 83.5173 75.6741 83.5609 75.4807Z" fill="black"/>
<path d="M171.275 187.169C177.159 187.083 183.043 186.997 188.927 186.89C189.429 186.89 189.952 186.954 190.431 186.739C191.259 189.898 192.087 193.058 192.915 196.217C193.155 196.41 193.308 196.647 193.373 196.926C194.441 201.074 195.487 205.243 196.533 209.391C196.576 209.627 196.576 209.863 196.424 210.057C196.707 211.196 196.903 212.356 197.274 213.474C197.579 214.398 197.23 214.463 196.467 214.441C195.204 214.398 193.94 214.441 192.676 214.463C192.414 214.591 192.109 214.591 191.826 214.591C188.295 214.548 184.743 214.591 181.213 214.57C180.69 214.57 180.123 214.656 179.666 214.226C177.988 211.196 176.31 208.166 174.632 205.135C174.479 204.856 174.283 204.598 173.912 204.534L173.934 204.555C173.15 202.385 173.019 200.064 172.627 197.829C172.082 194.755 171.602 191.682 171.123 188.609C171.079 188.136 170.949 187.62 171.275 187.169Z" fill="#E74F4F"/>
<path d="M80.9461 108.942C81.3166 114.293 81.687 119.644 82.0575 124.974C82.5587 132.174 83.0382 139.373 83.5176 146.572C83.9099 152.461 84.3021 158.349 84.6726 164.216C84.9123 167.827 85.1084 171.416 85.3263 175.026C84.9994 175.456 84.4982 175.435 84.0406 175.435C81.4037 175.456 78.7451 175.456 76.1082 175.435C74.6481 175.413 74.3866 175.112 74.4955 173.694C74.6481 171.91 74.7788 170.126 75.0186 168.364C75.0621 168.149 75.1493 167.977 75.3018 167.805C75.498 166 75.7377 164.195 75.912 162.39C76.3043 158.306 76.6747 154.245 77.0452 150.161C77.067 149.818 77.067 149.452 77.067 149.087C76.5658 148.743 76.021 148.893 75.4762 148.893C52.9864 148.893 30.4749 148.893 7.98513 148.872C7.4839 148.872 6.80833 149.194 6.48145 148.464C7.06984 147.969 7.78898 148.12 8.46455 148.12C20.7555 148.12 33.0464 148.12 45.3373 148.12C55.1221 148.12 64.9287 148.12 74.7134 148.12C75.1493 148.12 75.5851 148.12 76.021 148.098C76.5876 148.077 76.8709 147.819 76.9363 147.26C77.0234 146.379 77.1542 145.476 77.2196 144.595C77.2414 144.316 77.3503 144.08 77.3939 143.8C77.5247 140.039 78.0477 136.321 78.3746 132.603C78.7668 128.198 79.1591 123.792 79.595 119.386C79.9219 116.184 80.1833 112.982 80.4884 109.78C80.4666 109.436 80.4449 109.028 80.9461 108.942Z" fill="#6DB5DE"/>
<path d="M104.024 57.9869C101.191 57.4926 98.3578 56.9983 95.5684 56.3106C95.1762 55.4939 95.5685 54.6988 95.6556 53.9036C95.8953 51.6471 96.2658 51.905 93.9994 51.2817C92.5611 50.8949 91.1882 50.2931 90.0332 49.3475C89.0089 48.5094 88.2026 47.4993 88.0065 46.1454C88.268 44.3617 88.5513 42.5994 88.791 40.8157C88.8564 40.4288 88.8346 40.042 89.2051 39.7841C89.3794 39.4187 89.3794 39.0319 89.4012 38.6236C88.9436 37.678 89.5537 36.7754 89.5319 35.8298C89.5319 35.4214 89.6409 34.9916 89.7063 34.5833C89.9242 34.2609 90.2729 34.175 90.6434 34.089C92.5393 33.5947 94.457 33.1864 96.3312 32.6276C97.2028 32.3697 97.7695 32.5631 98.2925 33.2723C100.646 36.3455 103.414 39.0104 106.443 41.4174C106.835 41.7183 107.206 41.9547 107.707 41.9332C107.75 42.2985 107.99 42.5779 108.23 42.8358C109.93 44.6625 109.298 47.005 106.835 47.5853C105.724 47.8432 105.353 48.3375 105.222 49.3905C104.874 52.2918 104.438 55.1286 104.024 57.9869Z" fill="#FD9993"/>
<path d="M179.709 214.225C183.719 214.225 187.707 214.225 191.717 214.204C192.065 214.204 192.436 214.14 192.719 214.462C194.419 218.653 196.14 222.843 197.84 227.034C198.211 227.958 198.603 228.882 198.973 229.806C198.668 230.086 198.341 229.957 198.036 229.957C191.085 229.957 184.133 229.957 177.159 229.978C176.244 229.978 176.135 229.785 176.331 228.925C177.486 224.047 178.576 219.147 179.709 214.225Z" fill="black"/>
<path d="M138.5 53.1943C138.412 51.3246 138.173 49.4549 138.434 47.5852C138.609 47.2629 138.609 46.8975 138.739 46.5537C139.175 45.9089 139.524 45.1568 140.396 44.9418C142.466 44.7484 144.536 44.6625 146.388 45.8445C147.74 46.7041 148.829 47.8646 149.832 49.0896C152.316 52.1198 154.147 55.5154 155.519 59.1688C155.933 60.2434 156.042 61.4039 156.304 62.5214C156.435 63.1231 156.653 63.6819 157.11 64.1332C157.481 65.0143 157.59 65.9814 157.808 66.9055C157.895 67.3139 157.938 67.7437 157.524 68.066C155.214 68.4314 152.926 68.3024 150.616 68.152C150.115 67.9586 149.984 67.5073 149.875 67.056C149.657 66.1534 149.461 65.2507 149.265 64.3481C149.069 63.6174 148.284 63.9828 147.87 63.6174C147.631 63.5315 147.369 63.467 147.129 63.4885C143.316 63.553 141.158 61.3824 139.698 58.2232C139.328 57.4066 139.11 56.5254 138.717 55.7303C138.63 55.2575 138.369 54.8062 138.696 54.3334C138.892 54.1185 139.371 54.1399 139.328 53.7316C139.284 53.2373 138.717 53.4522 138.5 53.1943Z" fill="#FD9993"/>
<path d="M121.218 61.2536C121.066 61.318 120.891 61.447 120.761 61.2106C123.289 53.9037 125.795 46.5968 128.323 39.2899C129.935 34.6263 131.548 29.9628 133.16 25.2778C133.313 24.848 133.422 24.3967 133.596 23.8379C131.482 23.8379 129.456 23.8379 127.451 23.8379C125.228 23.8379 124.117 22.7419 124.117 20.5283C124.117 18.7016 124.095 16.8749 124.117 15.0481C124.138 12.985 125.272 11.8675 127.364 11.846C130.458 11.8245 133.531 11.803 136.625 11.8675C137.541 11.889 137.868 11.6956 137.846 10.707C137.78 7.48335 137.846 4.25971 137.802 1.03608C137.802 0.219423 138.064 -0.0169756 138.87 0.00451529C140.221 0.068988 141.551 0.068988 142.902 0.00451529C143.708 -0.0384665 143.97 0.219423 143.948 1.03608C143.904 4.30269 143.97 7.54782 143.904 10.8144C143.882 11.6956 144.166 11.8675 144.994 11.8675C165.391 11.846 185.789 11.846 206.187 11.8675C207.102 11.8675 207.342 11.6311 207.32 10.7285C207.255 7.50484 207.32 4.2812 207.276 1.05757C207.276 0.283896 207.451 -0.0384665 208.301 0.00451529C209.674 0.068988 211.068 0.068988 212.441 0.00451529C213.226 -0.0384665 213.422 0.262404 213.4 0.993095C213.357 4.21673 213.422 7.44036 213.356 10.664C213.335 11.5666 213.509 11.9105 214.533 11.8675C217.061 11.7815 219.611 11.846 222.161 11.846C224.558 11.846 225.582 12.8561 225.582 15.2631C225.582 17.0253 225.582 18.7661 225.582 20.5283C225.582 22.8278 224.536 23.8379 222.161 23.8379C220.679 23.8379 219.175 23.9024 217.693 23.8164C216.647 23.752 216.713 24.1173 216.996 24.891C218.805 30.0273 220.57 35.1636 222.335 40.2999C231.466 66.6478 240.575 92.9956 249.684 119.343C249.837 119.773 250.142 120.203 249.924 120.848C249.336 120.375 249.292 119.773 249.118 119.279C244.236 105.202 239.377 91.1474 234.517 77.0709C228.524 59.7277 222.509 42.3846 216.538 25.0199C216.211 24.0958 215.819 23.7949 214.795 23.7949C188.404 23.8379 162.035 23.8379 135.645 23.7949C134.49 23.7949 133.989 24.0958 133.596 25.2133C129.717 36.5605 125.795 47.8862 121.872 59.2119C121.698 59.8996 121.458 60.5659 121.218 61.2536Z" fill="#5982AF"/>
<path d="M75.3016 167.827C75.3016 167.978 75.3016 168.128 75.3016 168.3C74.8004 168.687 74.1902 168.601 73.6236 168.601C70.2458 168.601 66.8898 168.601 63.512 168.601C61.9865 168.601 61.9429 168.644 61.9429 170.191C61.9429 175.134 61.9429 180.055 61.9429 184.998C61.9429 186.546 61.9865 186.61 63.6209 186.61C70.5509 186.61 77.4809 186.61 84.3891 186.61C84.9993 186.61 85.6312 186.481 86.1542 186.933C86.1542 187.083 86.1543 187.255 86.176 187.405C85.6748 187.835 85.0864 187.728 84.5198 187.728C80.4228 187.749 76.3259 187.728 72.2289 187.728C70.7034 187.728 70.6599 187.771 70.6599 189.297C70.6599 191.059 70.6381 192.8 70.6599 194.562C70.6817 195.722 70.7688 195.83 71.9892 195.851C76.3694 195.873 80.7715 195.851 85.1518 195.873C85.7184 195.873 86.3286 195.765 86.808 196.217C86.8298 196.41 86.8298 196.603 86.8516 196.797C86.5029 197.227 86.0235 197.184 85.544 197.205C84.7377 197.227 83.9532 197.205 83.1469 197.205C58.0856 197.205 33.0026 197.205 7.94134 197.205C5.7839 197.205 5.78389 197.205 5.78389 199.311C5.78389 201.998 5.78389 204.684 5.78389 207.37C5.78389 209.197 5.78388 209.197 7.67982 209.197C19.6221 209.197 31.5643 209.197 43.4847 209.197C57.5626 209.197 71.6405 209.197 85.7184 209.197C86.394 209.197 87.1131 209.025 87.7015 209.541C87.7015 209.734 87.7233 209.928 87.7233 210.1C60.6789 210.1 33.6563 210.1 6.61199 210.078C5.69671 210.078 5.36983 210.25 5.39162 211.239C5.457 215.043 5.457 218.825 5.39162 222.629C5.36983 223.618 5.69671 223.854 6.61199 223.789C7.4401 223.725 8.29 223.789 9.11811 223.768C9.7283 223.746 9.92444 223.983 9.94623 224.585C10.0116 226.325 10.0334 226.325 8.3118 226.325C5.87106 226.325 3.4521 226.261 1.01135 226.347C-0.121853 226.39 0.00890624 225.745 0.00890624 225.057C-0.0128862 224.348 -0.0782739 223.682 1.03314 223.768C1.97021 223.854 2.92908 223.725 3.86615 223.811C4.75964 223.875 4.95577 223.553 4.95577 222.715C4.93398 216.483 4.93398 210.25 4.93398 204.018C4.93398 201.804 4.97757 199.569 4.9122 197.356C4.8904 196.432 5.1955 196.217 6.08899 196.238C10.2949 196.281 14.5008 196.217 18.7068 196.281C19.8618 196.303 20.0797 195.937 20.0361 194.906C19.949 192.692 19.9925 190.457 20.0361 188.244C20.0579 187.577 19.8182 187.384 19.1644 187.405C16.9198 187.448 14.6534 187.384 12.4088 187.427C11.6243 187.448 11.3192 187.276 11.3192 186.417C11.341 180.55 11.341 174.683 11.3192 168.794C11.3192 168.064 11.5371 167.806 12.2998 167.806C27.184 167.827 42.0682 167.827 56.9307 167.806C57.6934 167.806 57.9113 167.999 57.9113 168.773C57.8895 174.683 57.8895 180.593 57.9113 186.503C57.9113 187.19 57.7151 187.427 56.996 187.427C54.8603 187.384 52.7029 187.427 50.5672 187.405C49.8481 187.384 49.543 187.513 49.543 188.329C49.6084 190.693 49.5866 193.057 49.543 195.421C49.543 196.088 49.7392 196.281 50.3929 196.281C56.5166 196.26 62.662 196.26 68.7857 196.281C69.4395 196.281 69.6574 196.109 69.6574 195.443C69.6138 193.079 69.6138 190.715 69.6574 188.351C69.6792 187.663 69.4831 187.427 68.7421 187.427C66.4975 187.47 64.2311 187.405 61.9865 187.448C61.202 187.47 61.0058 187.212 61.0276 186.481C61.0494 180.614 61.0494 174.747 61.0276 168.859C61.0276 168.042 61.2891 167.849 62.0736 167.849C66.5193 167.849 70.8995 167.827 75.3016 167.827Z" fill="#5983AF"/>
<path d="M156.936 64.0902C156.021 64.0902 156.217 63.2951 156.151 62.8438C155.28 57.7504 152.839 53.3878 149.701 49.3475C148.263 47.4993 146.672 45.8015 144.209 45.2427C142.923 44.9418 141.659 45.1997 140.374 45.1782C140.287 44.598 140.766 44.3831 141.136 44.1252C142.139 43.459 143.316 43.1581 144.471 42.9002C146.345 42.4919 148.241 42.148 150.137 41.9116C150.856 41.8257 151.074 41.5033 150.878 40.8371C150.878 40.6651 150.943 40.4932 151.03 40.3428C151.052 37.7639 151.967 35.6363 154.321 34.3468C156.914 32.9069 159.442 34.4113 159.595 37.3341C159.638 38.3226 159.398 39.2468 159.093 40.1709C159.093 40.4932 159.028 40.7941 158.854 41.0735C158.418 41.8257 157.851 42.4704 157.132 42.9647C156.74 43.2441 156.609 43.5234 156.936 43.9318C158.549 45.8874 159.159 48.3159 160.03 50.6154C160.575 52.0553 161.011 53.5167 161.556 54.9566C162.122 56.5039 162.297 58.0728 161.774 59.6631C161.621 60.007 161.49 60.3508 161.164 60.5657C160.532 61.8767 159.464 62.7578 158.287 63.553C158.047 63.9398 157.633 64.0043 157.241 64.1117C157.132 64.1547 157.023 64.1332 156.936 64.0902Z" fill="black"/>
<path d="M6.4813 148.507C6.89536 148.851 7.3966 148.679 7.83245 148.679C30.5619 148.679 53.2914 148.679 76.0208 148.722C76.3259 148.722 77.0015 148.249 77.0233 149.109C54.0105 149.109 30.9977 149.109 7.98498 149.109C7.59272 149.109 7.17866 149.13 6.7864 149.087C5.45706 148.915 4.69434 147.97 4.69434 146.53C4.69434 145.09 5.47885 144.037 6.80819 144.015C7.78885 143.994 7.81063 143.564 7.81063 142.855C7.78884 130.111 7.81063 117.367 7.81063 104.601C7.81063 83.7548 7.81063 62.9087 7.81063 42.084C7.81063 41.3318 7.87603 40.773 6.74283 40.773C5.43528 40.7515 4.69433 39.6555 4.71612 38.1941C4.73792 36.8402 5.52244 35.8946 6.7864 35.7227C7.13508 35.6797 7.50555 35.7012 7.87602 35.7012C17.0506 35.7012 26.247 35.6797 35.4216 35.6797C35.378 36.045 35.5959 36.4534 35.269 36.7757C34.6153 36.5178 33.9397 36.4534 33.2423 36.4534C25.0484 36.4534 16.8545 36.4534 8.68233 36.4534C8.02856 36.4534 7.37481 36.4534 6.74283 36.6683C5.9583 36.9477 5.56603 37.4849 5.58782 38.2801C5.60961 39.1182 6.02367 39.6985 6.87358 39.9349C7.3748 40.0638 7.87603 40.0638 8.37726 40.0638C16.7455 40.0638 25.1138 40.0638 33.4821 40.0638C33.9179 40.0638 34.3538 39.9779 34.7678 40.1928C34.7242 40.5581 34.8986 40.945 34.5935 41.2673C26.4214 41.0739 18.271 41.2243 10.0988 41.2028C8.94384 41.2028 8.83487 41.3318 8.79129 42.5353C8.79129 42.8576 8.79129 43.18 8.79129 43.5024C8.79129 76.1685 8.79129 108.813 8.79129 141.479C8.79129 143.65 8.79131 143.65 10.9923 143.65C32.5232 143.65 54.0323 143.65 75.5632 143.65C76.2824 143.65 77.0233 143.478 77.6771 143.951C77.6117 144.123 77.5463 144.316 77.4809 144.488C76.8489 144.896 76.1516 144.767 75.476 144.767C53.3567 144.767 31.2157 144.767 9.09639 144.767C8.50799 144.767 7.94139 144.746 7.353 144.81C5.74036 145.025 5.10839 146.379 6.00188 147.712C6.15443 147.97 6.43772 148.163 6.4813 148.507Z" fill="#5D85B1"/>
<path d="M193.09 196.732C193.024 196.56 192.981 196.388 192.915 196.216C195.204 196.216 197.492 196.195 199.78 196.216C200.477 196.216 200.739 196.066 200.717 195.335C200.673 192.971 200.673 190.607 200.717 188.243C200.739 187.491 200.434 187.362 199.758 187.362C197.514 187.405 195.247 187.362 193.003 187.383C192.283 187.405 191.978 187.254 192 186.459C192.022 180.549 192.022 174.639 192 168.729C192 168.042 192.153 167.784 192.915 167.784C207.865 167.805 222.815 167.805 237.764 167.784C238.461 167.784 238.614 168.02 238.614 168.665C238.592 174.618 238.592 180.549 238.614 186.502C238.614 187.254 238.331 187.405 237.655 187.383C235.52 187.34 233.362 187.405 231.226 187.362C230.442 187.34 230.246 187.62 230.268 188.35C230.311 190.671 230.311 193.014 230.268 195.335C230.246 196.044 230.507 196.238 231.205 196.238C235.52 196.216 239.834 196.259 244.171 196.195C245.13 196.173 245.391 196.453 245.391 197.398C245.348 205.78 245.391 214.161 245.348 222.542C245.348 223.553 245.653 223.853 246.612 223.767C247.396 223.682 248.203 223.789 249.009 223.746C249.641 223.725 249.903 223.918 249.924 224.606C249.968 226.303 249.99 226.303 248.246 226.303C245.806 226.303 243.387 226.26 240.946 226.325C239.9 226.346 239.965 225.766 239.987 225.1C240.009 224.455 239.747 223.682 240.924 223.746C242.014 223.81 243.103 223.746 244.193 223.767C244.716 223.767 244.89 223.596 244.89 223.08C244.869 218.996 244.869 214.913 244.89 210.83C244.89 210.271 244.694 210.035 244.128 210.099C244.062 210.099 243.975 210.099 243.91 210.099C228.088 210.099 212.267 210.099 196.446 210.099C196.424 209.906 196.38 209.734 196.359 209.541C196.903 209.025 197.579 209.175 198.211 209.175C212.79 209.175 227.391 209.175 241.97 209.175C244.868 209.175 244.563 209.412 244.563 206.661C244.585 204.017 244.563 201.352 244.563 198.709C244.563 197.291 244.476 197.205 243.016 197.205C235.585 197.205 228.132 197.205 220.701 197.205C212.093 197.205 203.507 197.205 194.899 197.205C194.288 197.162 193.591 197.355 193.09 196.732Z" fill="#5983AF"/>
<path d="M107.707 41.9552C107.554 42.471 107.336 42.4495 106.922 42.1272C103.893 39.8276 101.06 37.3132 98.7937 34.283C97.7695 32.9076 96.8324 32.5852 95.2415 33.1655C93.4546 33.7887 91.5587 34.1326 89.7063 34.6054C89.9896 32.7786 90.2729 30.9304 90.5344 29.1037C90.5562 28.8888 90.5998 28.6739 90.7741 28.5234C95.1544 29.4261 99.5783 30.2427 103.937 31.2528C106.595 31.876 108.317 34.3905 108.164 37.1413C108.099 38.7746 107.859 40.3649 107.707 41.9552Z" fill="black"/>
<path d="M157.176 64.0255C157.503 63.7891 157.873 63.6387 158.265 63.5742C175.22 63.5742 192.153 63.5742 209.107 63.5957C210.567 63.5957 210.567 63.5957 210.567 65.0141C210.567 91.0396 210.567 117.065 210.589 143.091C210.589 144.144 210.371 144.466 209.238 144.466C199.518 144.423 189.799 144.423 180.058 144.423C179.883 144.316 179.818 144.165 179.818 143.972C180.363 143.477 181.038 143.628 181.692 143.606C190.409 143.585 199.104 143.606 207.821 143.606C209.739 143.606 209.739 143.606 209.739 141.715C209.739 126.113 209.739 110.489 209.739 94.8865C209.739 94.736 209.739 94.6071 209.739 94.4566C209.717 93.0168 209.674 92.9523 208.192 92.9523C199.039 92.9523 189.908 92.9523 180.755 92.9523C179.992 92.9523 179.23 92.9523 178.467 92.9523C178.031 92.9523 177.595 92.9523 177.225 92.6299C177.225 92.458 177.225 92.2861 177.225 92.1141C177.813 91.7058 178.489 91.8133 179.121 91.8133C188.688 91.8133 198.254 91.8133 207.843 91.8133C209.739 91.8133 209.739 91.8133 209.739 89.9006C209.739 81.9274 209.739 73.9543 209.739 65.9597C209.739 64.3909 209.717 64.3479 208.083 64.3479C197.644 64.3479 187.206 64.3479 176.767 64.3479C176.135 64.3479 175.46 64.4768 174.871 64.0685C174.392 64.3264 174.631 64.7777 174.61 65.1216C174.588 66.6904 174.588 68.2377 174.37 69.8066C174.37 68.2377 174.392 66.6904 174.348 65.1216C174.348 64.7562 174.566 64.3264 174.087 64.0685C173.651 64.4124 173.128 64.3479 172.627 64.3479C167.985 64.3479 163.343 64.3479 158.701 64.3479C158.2 64.3694 157.633 64.4553 157.176 64.0255Z" fill="#5882AE"/>
<path d="M158.745 40.8161C158.853 40.6012 158.984 40.3863 159.093 40.1714C159.529 40.4723 160.008 40.3433 160.466 40.3433C176.723 40.3433 192.959 40.3648 209.216 40.3218C210.262 40.3218 210.632 40.4938 210.61 41.6543C210.545 47.5213 210.545 53.3883 210.61 59.2553C210.61 60.3084 210.392 60.6307 209.259 60.6307C193.22 60.5877 177.203 60.6092 161.163 60.6092C161.272 60.3298 161.403 60.0505 161.512 59.7711C177.072 59.9 192.632 59.7926 208.191 59.8141C209.717 59.8141 209.76 59.7496 209.76 58.2237C209.76 53.1519 209.76 48.0585 209.76 42.9867C209.76 41.2029 209.739 41.1815 207.952 41.1815C192.218 41.1815 176.462 41.1815 160.728 41.1815C160.052 41.16 159.333 41.3319 158.745 40.8161Z" fill="#5983AF"/>
<path d="M222.313 58.1592C228.48 77.0067 234.647 95.8757 239.921 114.981C234.168 96.0047 228.001 77.1571 222.313 58.1592Z" fill="#5A83AF"/>
<path d="M138.87 55.6447C139.306 55.7952 139.284 56.182 139.393 56.5044C139.829 57.9013 140.417 59.2552 141.333 60.4157C142.771 62.2424 144.645 63.231 147.02 63.231C147.391 63.231 147.827 63.0806 148.11 63.4889C148.197 63.6823 148.219 63.8757 148.066 64.0691C147.979 64.1336 147.87 64.1336 147.783 64.0906C146.628 64.0477 145.451 64.0477 144.34 63.6608C144.144 63.7468 143.926 63.6823 143.73 63.6393C143.011 63.3385 142.292 63.0591 141.921 62.3069C140.09 60.6951 139.153 58.589 138.391 56.3754C138.412 56.225 138.434 56.0745 138.456 55.9026C138.565 55.7522 138.63 55.5373 138.87 55.6447Z" fill="#040202"/>
<path d="M107.816 78.7906C107.816 75.4595 107.794 72.1285 107.794 68.7974C109.08 69.614 109.472 70.6886 109.123 72.1929C108.6 74.385 108.23 76.5986 107.816 78.7906Z" fill="#6AAFD6"/>
<path d="M151.052 40.3428C151.074 40.4932 151.074 40.6437 151.096 40.7941C150.616 41.2454 150.006 41.1379 149.439 41.1379C146.519 41.1594 143.599 41.1379 140.657 41.1379C139.328 41.1379 139.262 41.2454 139.219 42.5349C139.175 43.8673 139.437 45.2427 138.914 46.5536C138.805 46.919 138.696 47.2628 138.434 47.5637C138.413 45.4146 138.434 43.2655 138.369 41.1379C138.347 40.4287 138.674 40.3213 139.284 40.3213C143.229 40.3428 147.129 40.3428 151.052 40.3428Z" fill="#5F87B2"/>
<path d="M107.794 60.2002C108.099 61.941 107.816 63.6817 107.881 65.4225C107.903 66.2391 107.903 67.0558 107.925 67.8724C106.269 67.7005 106.29 67.7005 106.596 66.1532C107.01 64.1545 107.402 62.1774 107.794 60.2002Z" fill="#080C0E"/>
<path d="M134.73 55.279C135.776 57.2132 136.822 59.1689 137.868 61.1246C138.02 61.4254 138.5 61.7908 137.933 62.1132C137.454 62.371 137.323 61.8553 137.17 61.5759C136.059 59.5342 134.969 57.4926 133.858 55.4725C134.076 55.0212 134.381 55.0426 134.73 55.279Z" fill="#070404"/>
<path d="M131.504 56.074C132.528 57.9652 133.531 59.8564 134.533 61.7476C134.708 62.0699 135.144 62.4998 134.664 62.7791C134.098 63.1015 133.989 62.4353 133.792 62.1129C132.703 60.1787 131.635 58.2231 130.567 56.2889C130.741 55.5152 131.112 55.7731 131.504 56.074Z" fill="#060404"/>
<path d="M18.3798 15.0269C18.5106 15.1128 18.6414 15.1988 18.7285 15.2847C19.8618 16.3808 20.9731 17.4983 22.0846 18.5943C22.2371 18.7448 22.455 18.8952 22.2589 19.1316C22.041 19.368 21.8666 19.1316 21.7359 19.0027C20.5809 17.8851 19.4477 16.7461 18.2927 15.6071C18.2055 15.5211 18.1401 15.3707 18.1401 15.2418C18.1401 15.1773 18.2927 15.0913 18.3798 15.0269Z" fill="#6E92B9"/>
<path d="M127.996 58.0513C127.996 58.4381 127.996 58.8464 128.018 59.2333C127.952 60.9955 127.146 62.5214 126.579 64.1332C126.536 64.2406 126.405 64.2406 126.296 64.2621C126.078 64.1762 126.056 63.9828 126.013 63.7893C126.558 62.0486 127.081 60.2863 127.647 58.5456C127.691 58.3521 127.756 58.1372 127.996 58.0513Z" fill="#638AB4"/>
<path d="M239.355 37.8711C240.118 39.5904 240.859 41.3096 241.621 43.0289C241.491 43.0934 241.36 43.1364 241.207 43.2008C240.357 41.5031 239.573 39.8053 238.963 38.0215C239.093 37.9785 239.224 37.9141 239.355 37.8711Z" fill="#648AB4"/>
<path d="M230.137 149.195C230.05 148.292 230.529 147.497 230.747 146.659C230.965 145.799 231.248 144.961 231.51 144.101C231.553 143.951 231.64 143.736 231.88 143.8C232.054 143.843 232.076 143.994 232.033 144.144C231.51 145.842 230.987 147.561 230.442 149.259C230.355 149.259 230.246 149.238 230.137 149.195Z" fill="#668CB5"/>
<path d="M64.6014 13.0276C65.1463 11.2653 65.6911 9.50305 66.3013 7.50439C66.6281 8.49298 65.4731 12.3828 64.6014 13.0276Z" fill="#6188B3"/>
<path d="M138.5 53.1941C138.914 53.0867 139.328 52.8718 139.676 53.3231C139.829 53.538 139.851 53.7959 139.72 54.0323C139.524 54.4191 139.175 54.4406 138.805 54.3331C138.63 54.2687 138.565 54.0967 138.434 53.9678C138.478 53.6884 138.5 53.4305 138.5 53.1941Z" fill="#060505"/>
<path d="M138.456 53.9253C138.587 54.0542 138.696 54.1832 138.827 54.2906C138.543 54.7419 138.827 55.1933 138.87 55.6231C138.739 55.709 138.587 55.7735 138.456 55.8595C138.456 55.2362 138.456 54.57 138.456 53.9253Z" fill="#547297"/>
<path d="M142.88 213.989C136.364 214.161 129.826 213.882 123.31 214.161C123.572 212.786 122.896 211.539 122.678 210.25C122.613 209.992 122.504 209.734 122.46 209.476C121.327 205.328 120.281 201.138 119.213 196.968C119.126 196.474 119.017 195.98 118.843 195.507C118.102 192.821 117.448 190.134 116.707 187.448C116.663 187.276 116.62 187.125 116.598 186.954C116.315 185.857 116.032 184.761 115.77 183.687C115.661 183.279 115.487 182.87 115.792 182.462C122.003 182.462 128.192 182.462 134.403 182.483C134.642 182.483 134.904 182.591 135.143 182.634C135.754 183.193 135.688 184.009 135.906 184.697C136.124 185.406 136.277 186.158 136.473 186.868C136.516 187.039 136.56 187.211 136.582 187.383C137.301 190.285 138.085 193.143 138.739 196.044C138.761 196.324 138.87 196.603 138.935 196.882C139.981 201.073 141.049 205.264 142.117 209.433C142.182 209.648 142.226 209.884 142.27 210.121C142.531 211.023 142.771 211.947 142.945 212.893C143.011 213.237 143.141 213.624 142.88 213.989Z" fill="#8F3600"/>
<path d="M126.296 64.2618C126.863 62.5855 127.451 60.9092 128.018 59.2329C130.371 62.8649 131.918 66.8837 133.858 70.7091C134.207 71.3753 134.424 72.1274 134.86 72.7292C135.732 73.8897 135.579 75.0932 135.34 76.3826C133.923 83.9904 132.398 91.5767 130.763 99.1415C130.436 100.646 130.502 102.129 131.243 103.526C131.439 103.912 131.483 104.149 131.003 104.342C129.979 104.751 129.303 105.524 128.889 106.513C128.802 106.814 128.933 107.115 128.867 107.416C128.867 107.996 128.846 108.576 128.846 109.156C128.824 109.457 128.846 109.758 128.846 110.059C129.129 112.466 130.262 113.476 132.659 113.734C134.577 113.927 136.473 113.798 138.391 113.906C138.739 114.185 138.739 114.593 138.761 114.98C138.827 119.3 138.718 123.62 138.543 127.939C138.543 128.004 138.478 128.068 138.456 128.133C137.911 134.387 137.41 140.662 136.843 146.916C136.756 147.84 136.887 148.785 136.517 149.667C135.34 146.55 134.512 143.327 133.531 140.168C130.328 129.702 127.211 119.214 124.03 108.748C123.855 108.168 123.921 107.738 124.204 107.244C126.056 103.912 127.255 100.324 127.516 96.5626C127.974 89.8574 128.846 83.1953 130.022 76.5761C130.851 71.977 129.783 68.0227 126.514 64.6271C126.427 64.5197 126.361 64.3907 126.296 64.2618Z" fill="#FEFEFE"/>
<path d="M83.5609 75.4806C84.6723 76.9635 85.8055 78.4463 86.9169 79.9507C87.3309 80.5095 87.7886 81.0037 88.3988 81.3261C86.9605 84.5927 85.2825 87.7089 83.6698 90.8896C83.1686 90.8896 82.7328 90.5887 82.2533 90.4812C82.0572 90.2233 81.7956 90.0514 81.7303 89.7076C80.7278 88.719 79.4639 88.0743 78.3307 87.2791C74.8875 84.9151 71.4225 82.5941 67.9793 80.2086C65.5603 78.5323 65.0591 77.1784 65.7782 74.3416C66.2795 74.0622 66.5846 74.4705 66.9333 74.6854C68.3062 75.5451 69.592 76.5551 70.9867 77.4148C71.2918 77.6082 71.5533 77.8446 71.9673 77.8231C70.4419 76.7056 68.8946 75.631 67.3473 74.578C66.955 74.2986 66.3884 74.1696 66.3666 73.5464C66.7371 73.0736 66.955 72.5148 67.4781 72.1495C67.9575 72.0635 68.2844 72.3859 68.6548 72.6008C69.9624 73.4175 71.1828 74.3845 72.4903 75.1797C72.7954 75.3731 73.0351 75.631 73.4928 75.588C72.0981 74.5565 70.6816 73.5679 69.2433 72.6008C68.8074 72.2999 68.2626 72.128 68.0665 71.5478C68.3715 70.7956 69.1343 70.6022 69.7445 70.6236C71.9019 70.7096 73.776 71.5692 75.5194 72.8157C76.1296 72.8802 76.5437 73.31 77.0231 73.6324C78.5268 74.6854 80.0523 75.6525 81.6649 76.5551C80.7714 75.6955 79.7036 75.0937 78.7011 74.3845C78.2435 74.0622 77.6333 73.8903 77.459 73.267C79.0063 72.9447 80.3792 73.5249 81.6867 74.1911C82.3187 74.492 82.9071 75.0293 83.5609 75.4806Z" fill="#FD9993"/>
<path d="M107.925 112.617C104.155 111.994 100.363 111.371 96.5929 110.769C91.3845 109.931 86.1761 109.093 80.9895 108.254C80.5973 107.932 80.6191 107.481 80.6626 107.072C80.9459 104.085 81.1421 101.098 81.4036 98.1322C81.5125 96.8642 81.4472 95.5533 81.8177 94.3068C81.9484 94.0059 82.0356 93.6621 82.4714 93.6836C87.8541 97.3585 93.2368 101.055 98.6196 104.73C101.365 106.6 104.068 108.534 106.835 110.339C107.729 110.941 108.186 111.564 107.925 112.617Z" fill="black"/>
<path d="M116.947 187.362C117.797 190.092 118.451 192.886 119.126 195.658C119.257 196.518 118.603 196.475 118.08 196.496C116.664 196.539 115.247 196.518 113.852 196.518C111.455 196.518 109.08 196.518 106.683 196.518C106.225 196.518 105.724 196.561 105.332 196.238C104.939 193.315 104.612 190.371 104.46 187.405C105.462 186.825 106.508 187.126 107.554 187.191C107.794 186.825 107.685 186.417 107.685 186.051C107.685 182.656 107.685 179.26 107.685 175.865C107.685 175.456 107.554 174.984 108.252 174.962C108.949 174.941 108.993 175.371 108.993 175.865C109.014 177.735 109.036 179.583 109.058 181.452C109.058 181.99 109.08 182.463 109.843 182.441C110.475 182.42 110.344 182.914 110.366 183.279C110.453 184.59 110.191 185.923 110.518 187.212C112.414 186.976 114.332 187.126 116.228 187.126C116.511 187.105 116.729 187.234 116.947 187.362Z" fill="#FEFEFE"/>
<path d="M104.373 186.932C103.937 182.935 103.436 178.959 103.196 174.94C104.504 175.026 105.833 174.704 107.14 175.112C107.38 175.456 107.315 175.864 107.315 176.251C107.315 179.41 107.315 182.591 107.315 185.75C107.315 187.126 107.293 187.169 105.833 187.147C105.332 187.147 104.809 187.276 104.373 186.932Z" fill="#FDFDFD"/>
<path d="M136.255 186.954C135.754 185.557 135.47 184.074 135.144 182.634C136.516 182.312 137.911 182.505 139.284 182.527C139.72 182.527 140.134 182.548 140.57 182.57C141.333 184.01 142.204 185.407 142.814 186.911C142.793 186.932 142.771 186.975 142.749 186.975C140.548 187.384 138.412 187.448 136.255 186.954Z" fill="#FDFEFE"/>
<path d="M115.792 182.441C116.162 183.924 116.511 185.407 116.881 186.911C116.424 187.319 115.835 187.147 115.312 187.147C114.114 187.169 112.915 187.169 111.717 187.147C111.303 187.147 110.845 187.083 110.845 186.567C110.867 185.192 110.562 183.795 111.019 182.441C112.61 182.441 114.201 182.441 115.792 182.441Z" fill="#FEFEFE"/>
<path d="M104.373 186.933C107.118 186.954 107.118 186.954 107.118 184.225C107.118 181.195 107.14 178.164 107.14 175.113C107.903 174.984 107.511 175.585 107.511 175.8C107.532 179.174 107.532 182.527 107.532 185.901C107.532 186.331 107.554 186.761 107.576 187.191C106.574 187.642 105.506 187.276 104.482 187.405C104.438 187.234 104.394 187.083 104.373 186.933Z" fill="#5882AE"/>
<path d="M111.019 182.441C111.019 183.687 111.041 184.912 110.998 186.159C110.976 186.761 111.194 186.954 111.804 186.933C113.482 186.89 115.182 186.911 116.86 186.911C116.882 187.061 116.925 187.212 116.947 187.362C115.029 187.362 113.133 187.384 111.216 187.384C110.976 187.384 110.693 187.448 110.54 187.169C110.562 185.901 110.562 184.612 110.584 183.344C110.605 183 110.387 182.527 111.019 182.441Z" fill="#638AB3"/>
<path d="M82.4714 93.6837C82.3406 93.8341 82.2099 93.9631 82.1009 94.1135C81.5343 92.8456 81.8176 91.6206 82.3189 90.4171C82.9944 89.9873 83.2123 90.7609 83.6482 90.9114C83.3867 91.8785 82.5804 92.6521 82.4714 93.6837Z" fill="#050505"/>
<path d="M82.3189 90.4167C82.2535 91.6417 82.1664 92.8882 82.101 94.1132C81.7305 98.8197 81.36 103.548 80.9895 108.254C80.9677 108.491 80.9459 108.705 80.9241 108.942C80.7062 110.919 80.4883 112.918 80.2922 114.895C79.791 119.988 79.3115 125.06 78.8539 130.153C78.4398 134.752 78.0476 139.33 77.6553 143.929C77.263 143.951 76.849 143.972 76.4567 143.972C54.2067 143.972 31.9566 143.972 9.7284 143.994C8.66057 143.994 8.35547 143.779 8.35547 142.661C8.39905 109.157 8.39905 75.631 8.35547 42.1267C8.35547 41.0092 8.66057 40.7942 9.7284 40.7942C17.639 40.8372 25.5497 40.8157 33.4603 40.8372C33.8526 40.8372 34.4628 40.5149 34.5935 41.267C33.7872 46.7257 32.9809 52.1629 32.1528 57.6216C31.8913 57.8795 31.5644 57.8795 31.2375 57.8795C29.9081 57.858 29.0582 58.5457 28.5134 59.6632C27.7289 61.2106 27.0969 62.8009 26.7047 64.4772C26.2253 66.5188 26.988 67.8513 28.9929 68.6035C29.4941 68.7969 30.0825 68.7754 30.453 69.2482C29.7992 73.6323 29.1454 77.995 28.4699 82.3791C28.4263 82.6585 28.3391 82.9379 28.2519 83.1958C27.4238 85.3449 26.2252 87.3005 25.201 89.3422C23.0871 93.5759 21.3655 97.917 20.7771 102.624C20.3413 106.105 20.3195 109.608 20.6246 113.111C20.7989 115.024 21.0822 116.936 21.3219 118.849C21.8232 122.954 25.9855 124.028 28.7314 122.804C31.5644 121.557 34.0051 119.881 35.9447 117.452C37.4701 115.54 39.5622 114.143 41.2402 112.38C41.6107 111.994 42.0247 111.628 42.3734 111.22C43.572 109.887 44.1168 108.383 44.0732 106.535C43.9643 101.313 44.0296 96.0903 44.0296 90.868C44.0296 90.3737 43.9207 89.858 44.2693 89.4281C44.8142 89.3422 44.9231 89.815 45.0975 90.1158C46.6229 92.7162 48.0395 95.3596 49.5213 97.9815C49.9136 98.6477 50.0661 99.3569 50.0443 100.131C50.0225 102.387 50.0443 104.622 50.0443 106.879C50.0443 107.352 50.0008 107.803 50.1533 108.254C50.284 109.479 51.0686 110.339 51.8531 111.177C54.0759 113.584 56.7128 115.604 58.8049 118.118C60.679 120.375 63.1416 121.643 65.6913 122.846C68.4807 124.179 72.3161 122.524 72.7956 119.258C73.166 116.743 73.4493 114.229 73.6673 111.714C73.9288 108.77 73.7327 105.869 73.4276 102.946C73.4058 102.774 73.4276 102.581 73.4712 102.409C73.5365 102.043 73.7762 101.764 73.9942 101.485C75.694 99.4214 76.9798 97.1004 78.2873 94.8009C78.5488 94.3496 78.8103 93.9412 79.3115 93.7478C80.4012 93.4684 80.9895 92.7807 81.1421 91.6847C81.251 91.04 81.2292 90.3308 81.6215 89.7505C82.1227 89.772 82.2753 90.0514 82.3189 90.4167Z" fill="#FEFEFE"/>
<path d="M45.0101 64.0046C44.5088 63.8756 44.2256 63.7252 44.5089 63.059C45.1844 61.5117 45.9689 60.0288 46.9714 58.6534C47.3418 58.1376 47.5162 57.7507 46.8842 57.3639C45.86 56.7192 45.9036 55.967 46.4048 54.9569C47.5162 52.6789 48.4969 50.3364 49.5211 48.0154C52.3541 41.6756 59.1751 38.5164 65.9526 40.2357C70.2239 41.3102 73.7107 43.3304 75.9771 47.1342C78.1127 50.7232 78.5268 54.5271 77.3718 58.5029C76.8923 60.1792 76.4783 61.8985 75.5412 63.4243C73.4709 66.7984 69.374 68.4102 65.3642 67.4002C64.2746 67.1208 63.2067 66.8199 62.1171 66.519C60.3301 66.0247 60.3083 66.0032 59.1751 67.5291C57.5843 69.6782 55.6883 71.419 53.1822 72.515C50.9376 73.4821 48.584 73.783 46.1651 73.6755C44.5088 73.5895 43.332 72.3216 43.2231 70.6453C43.0923 68.6251 43.3321 66.648 43.8987 64.7138C44.2909 64.3484 44.7268 64.4129 45.0754 64.7138C45.6638 65.2511 45.0537 65.8528 45.0973 66.476C45.4677 66.2826 45.4677 65.9173 45.5767 65.6164C45.8382 64.8857 46.2958 64.6063 47.0803 64.8427C47.952 65.1006 47.7123 65.6379 47.5162 66.1967C47.4508 66.3901 47.2983 66.5835 47.4508 66.7984C48.4533 65.1866 48.9981 64.8212 49.8916 65.1436C50.4146 65.337 50.4582 65.5304 50.262 66.8414C50.8068 66.4331 50.5889 65.423 51.4824 65.3585C52.1144 65.294 52.7464 65.6379 53.4219 65.38C51.3299 64.8212 51.3299 64.8212 51.5914 63.016C51.0466 63.5533 51.2427 64.5634 50.3928 64.8212C49.9788 64.9502 49.4993 64.8427 49.107 64.6923C47.952 64.284 49.0634 63.4673 48.7801 62.8011C48.3225 63.6392 48.1918 64.8857 46.7753 64.4344C46.274 64.284 46.2523 64.1335 46.5791 62.4358C46.1869 62.8871 46.1651 63.3169 45.9689 63.6607C45.7946 64.0476 45.5331 64.3914 45.0101 64.0046Z" fill="#FEFEFE"/>
<path d="M28.2082 84.27C28.3172 85.9248 28.9492 86.5695 30.5618 86.8059C34.6806 87.3862 38.7993 87.9879 42.9181 88.5682C43.1578 88.6112 43.3975 88.6971 43.659 88.7616C44.1167 89.1699 44.1384 89.7072 44.1384 90.2445C44.1384 96.047 44.1384 101.828 44.1384 107.631C44.1384 109.35 43.027 110.532 41.9592 111.692C41.0221 112.724 39.9761 113.67 38.9083 114.594C37.6225 115.711 36.3586 116.85 35.3343 118.183C33.4384 120.611 30.8233 121.987 28.0339 123.018C24.9829 124.179 21.8448 122.18 21.3 118.87C20.668 114.981 20.3194 111.091 20.4065 107.136C20.5155 102 21.6487 97.1001 23.719 92.3936C24.7214 90.094 25.8982 87.8805 27.0532 85.6454C27.3147 85.1511 27.4455 84.4419 28.2082 84.27Z" fill="#FEFEFE"/>
<path d="M50.0006 108.318C49.7609 107.953 49.8481 107.566 49.8263 107.179C49.8263 105.503 49.7173 103.805 49.8481 102.129C50.0224 99.9797 49.5212 98.0885 48.3226 96.2618C46.8843 94.0483 45.8165 91.5983 44.3346 89.3847C43.8987 89.2343 44.0077 89.0194 44.3346 88.8904C44.5525 88.8045 44.814 88.826 45.0319 88.9334C49.3686 89.5567 53.6835 90.1584 58.0202 90.7816C64.2529 91.6843 70.4637 92.5869 76.6963 93.468C77.5898 93.597 78.4833 93.7904 79.3985 93.7259C78.6358 94.65 78.1346 95.7031 77.5462 96.7346C76.4348 98.7118 75.149 100.56 73.7325 102.301C73.5582 102.58 73.5582 102.924 73.3402 103.182C72.0327 104.579 70.5944 105.847 69.0254 106.943C63.5991 110.747 55.732 109.178 52.1799 103.633C51.635 102.795 51.112 101.957 50.7633 100.99C50.7851 103.01 50.7851 105.009 50.7633 107.007C50.7633 107.394 50.9594 107.953 50.2403 108.017C50.066 105.352 50.2185 102.688 50.1531 100.281C50.1531 102.344 50.1531 104.686 50.1531 107.029C50.1314 107.48 50.2839 107.931 50.0006 108.318Z" fill="#6DB5DE"/>
<path d="M34.7895 40.1711C34.4626 40.386 34.0922 40.3216 33.7217 40.3216C25.0047 40.3216 16.3095 40.3216 7.59259 40.3216C6.1107 40.3216 5.39156 39.8058 5.19542 38.6668C4.95571 37.2484 5.71844 36.2813 7.15674 36.1523C7.44004 36.1308 7.74513 36.1523 8.02844 36.1523C16.7454 36.1523 25.4406 36.1523 34.1576 36.1523C34.6152 36.1523 35.2471 35.9159 35.2689 36.7541C35.1164 37.8931 34.9421 39.0321 34.7895 40.1711Z" fill="#FEFEFE"/>
<path d="M30.4749 69.2267C30.0608 69.1407 29.625 69.0548 29.2109 68.9473C26.8574 68.2811 25.9203 66.6263 26.4869 64.2623C26.8138 62.9084 27.3368 61.5974 27.8816 60.3295C28.9058 57.9225 29.5596 57.5356 32.1747 57.6216C34.2232 58.4383 35.923 59.6203 36.6203 61.8123C36.8165 62.4141 36.8819 62.9943 36.5332 63.5531C36.0755 63.8325 35.705 63.5316 35.3128 63.4027C34.1578 63.0158 33.0246 62.543 31.826 62.2851C32.4144 62.6935 33.09 62.8869 33.7437 63.1448C34.5718 63.4671 35.4872 63.5746 36.1627 64.2623C36.0973 65.0789 36.0537 65.8956 35.3128 66.4544C34.245 66.6048 33.3951 65.9171 32.4362 65.7022C31.9132 65.5732 31.4555 65.2509 30.8672 65.3153C31.6081 65.6807 32.3926 65.9601 33.1554 66.2609C33.8745 66.5618 34.7026 66.6478 35.2692 67.271C34.8987 68.6249 34.0706 69.3126 32.5452 69.3771C31.826 69.3986 31.1504 69.2697 30.4749 69.2267Z" fill="#FD9993"/>
<path d="M88.0065 46.167C89.4012 49.4336 92.2124 50.7231 95.4595 51.3678C96.2004 51.5182 96.2876 51.8836 96.1787 52.5068C95.9607 53.7748 95.7864 55.0427 95.5903 56.3107C95.3723 56.3322 95.2416 56.3752 95.1762 56.676C94.3263 61.0602 93.4764 65.4228 92.5829 69.807C92.4522 70.4302 92.6265 70.6451 93.2367 70.8171C94.5442 71.2254 95.1762 72.2999 95.0019 73.6538C94.9365 74.2556 94.8276 74.8573 94.675 75.4376C94.3263 76.8775 93.0624 77.6512 91.5587 77.4148C91.0575 77.3288 90.5563 77.2428 90.055 77.1569C88.3988 76.813 87.5925 75.5665 87.8975 73.9117C87.9847 73.4604 88.0719 73.0091 88.159 72.5363C88.4859 71.0534 89.532 70.2583 91.0357 70.3872C91.5151 70.4302 91.6459 70.3442 91.733 69.8929C92.5829 65.4873 93.4764 61.0602 94.3481 56.6545C94.4135 56.2892 94.3699 56.1388 93.9777 56.0743C92.4086 55.8164 90.8613 55.494 89.2705 55.2576C88.3988 55.1287 87.5489 55.3651 86.8079 55.8809C86.3503 55.0427 86.8297 54.2261 86.9387 53.4309C87.222 51.0024 87.636 48.574 88.0065 46.167Z" fill="#FEFEFE"/>
<path d="M45.0537 88.9339C44.8358 89.1058 44.2038 88.6545 44.3563 89.3852C44.3563 95.5101 44.3781 101.635 44.3781 107.738C44.3781 108.705 44.0077 109.544 43.4411 110.317C42.5694 111.499 41.5016 112.552 40.4119 113.541C38.4288 115.368 36.4457 117.216 34.6587 119.258C32.8281 121.385 30.3438 122.524 27.7505 123.362C24.8521 124.308 21.7358 122.481 21.191 119.537C19.9053 112.595 19.4912 105.611 21.2782 98.6693C22.6947 93.1246 25.2444 88.0313 28.2518 83.1743C28.23 83.5397 28.2082 83.905 28.1864 84.2918C24.4163 90.6531 21.3436 97.2723 20.777 104.773C20.4065 109.479 20.7988 114.121 21.5179 118.763C22.0845 122.438 25.4187 124.029 28.8401 122.481C31.4552 121.299 33.6781 119.752 35.574 117.56C37.47 115.411 39.671 113.519 41.7412 111.521C43.2449 110.081 43.9641 108.405 43.8987 106.256C43.768 101.399 43.8551 96.5202 43.8551 91.6632C43.8551 90.6961 43.8551 89.729 43.6154 88.7834C44.1384 88.762 44.6179 88.633 45.0537 88.9339Z" fill="#5983AF"/>
<path d="M65.4949 26.4381C62.0517 25.9438 58.6304 25.4495 55.1872 24.9337C51.4171 24.3964 47.6688 23.8592 43.9205 23.2789C43.5282 23.2144 42.7655 23.4293 42.8962 22.6987C43.0052 22.0969 43.6154 22.4408 44.0077 22.5052C51.1338 23.5153 58.2599 24.5469 65.386 25.5784C65.7565 25.6429 66.3013 25.5999 66.3013 26.1157C66.2577 26.5455 65.8 26.4381 65.4949 26.4381Z" fill="#FCFCFC"/>
<path d="M45.0102 64.0044C45.4242 64.0689 45.6858 63.9614 45.7947 63.5101C45.8819 63.1663 45.9908 62.8224 46.1216 62.5C46.2306 62.2207 46.3395 61.8123 46.7754 61.9843C47.1241 62.1132 46.9933 62.4571 46.9279 62.7364C46.8843 62.9513 46.7754 63.1448 46.7318 63.3382C46.6882 63.6391 46.2088 64.0474 46.8408 64.1763C47.2984 64.2623 47.9522 64.5847 48.1265 63.7035C48.1919 63.3167 48.388 62.9728 48.5188 62.586C48.6059 62.3281 48.7803 62.1562 49.0854 62.2421C49.3905 62.3496 49.3905 62.6075 49.3033 62.8654C49.129 63.3597 48.9546 63.854 48.7585 64.3912C49.02 64.4127 49.2161 64.4127 49.3686 64.4772C50.4147 64.864 50.8724 64.4127 51.0903 63.4241C51.1774 62.9943 51.1992 62.1777 51.853 62.3711C52.594 62.586 52.0056 63.2522 51.853 63.6176C51.3954 64.6276 51.7223 64.8855 52.7247 64.907C53.2259 64.9285 54.1848 64.7351 54.0976 65.4658C54.0105 66.218 53.0734 65.8096 52.6375 65.6807C51.4171 65.3153 50.9377 65.8096 50.7198 66.8842C50.6544 67.228 50.5236 67.6579 50.0224 67.4429C49.5866 67.2495 49.9353 66.9057 49.9353 66.6048C49.9571 66.1965 50.6762 65.6807 49.9135 65.3583C48.9982 64.95 48.497 65.2509 48.0829 66.132C47.8868 66.5833 48.0176 67.5934 47.233 67.2925C46.5139 67.0131 47.3638 66.3254 47.342 65.8096C47.342 65.5517 47.9303 65.1864 47.2984 65.0789C46.8625 65.0145 46.2306 64.4987 45.9473 65.3798C45.7947 65.8526 45.6204 66.3254 45.446 66.7982C45.3588 67.0131 45.2063 67.1851 44.9666 67.0991C44.6833 67.0131 44.5743 66.7982 44.7051 66.5188C44.7705 66.3469 44.8141 66.175 44.8794 66.0031C45.3153 64.7351 45.3153 64.7351 43.9424 64.6706C43.5937 64.2193 43.5065 63.8969 44.2692 63.9614C44.5308 63.9829 44.7705 63.9829 45.0102 64.0044Z" fill="#020202"/>
<path d="M42.3297 27.1475C46.0344 27.7062 49.5648 28.222 53.0952 28.7378C53.4003 28.7808 53.8361 28.7593 53.7707 29.2321C53.7054 29.6619 53.3349 29.5974 53.008 29.5544C49.5866 29.0602 46.1434 28.5444 42.722 28.0501C42.613 28.0286 42.504 28.0071 42.3951 27.9856C42.0682 27.9211 41.676 27.8996 41.7849 27.4483C41.8503 27.083 42.199 27.126 42.3297 27.1475Z" fill="#FAFAFB"/>
<path d="M66.3231 73.5034C68.0665 74.9003 70.006 75.9964 71.8148 77.3073C72.0981 77.5222 72.6865 77.6727 72.3596 78.1669C72.0109 78.6612 71.6623 78.1669 71.3572 77.995C69.4613 76.813 67.7397 75.3946 65.7566 74.3631C65.6694 73.8903 65.7347 73.5249 66.3231 73.5034Z" fill="#060404"/>
<path d="M68.0229 71.5047C69.8099 72.6867 71.5969 73.8902 73.3838 75.0937C73.6889 75.2871 74.2555 75.502 73.9068 75.9533C73.5799 76.3831 73.1877 75.9533 72.8826 75.7599C71.052 74.5564 69.2433 73.3314 67.4345 72.1064C67.3255 71.8915 67.1076 71.6766 67.3473 71.4402C67.587 71.2038 67.805 71.4402 68.0229 71.5047Z" fill="#060303"/>
<path d="M77.4156 73.2244C78.8539 74.17 80.2922 75.1371 81.7305 76.1042C81.9702 76.2761 82.3843 76.448 82.101 76.8349C81.8831 77.1572 81.5998 76.9853 81.3383 76.8134C79.3769 75.4594 77.3284 74.256 75.4761 72.7731C75.5197 72.2788 75.694 72.0209 76.217 72.3648C76.6093 72.6441 77.0016 72.945 77.4156 73.2244Z" fill="#060404"/>
<path d="M36.1626 64.2623C34.7025 63.7465 33.2423 63.2307 31.7823 62.715C31.4772 62.6075 31.1067 62.4786 31.3028 62.0487C31.4554 61.7049 31.8041 61.8338 32.0656 61.9413C33.5475 62.4786 35.0511 63.0158 36.533 63.5531C36.7509 63.9614 36.642 64.2193 36.1626 64.2623Z" fill="#060404"/>
<path d="M35.2474 67.2707C33.7437 66.7335 32.24 66.2177 30.7581 65.6804C30.4748 65.573 30.0389 65.5085 30.2133 65.0572C30.3658 64.6059 30.7581 64.8208 31.0414 64.9067C32.4797 65.4225 33.8962 65.9383 35.3127 66.4756C35.6614 66.755 35.705 67.0343 35.2474 67.2707Z" fill="#060404"/>
<path d="M89.4013 38.645C89.9243 39.1178 89.9243 39.5047 89.2051 39.8055C88.9436 39.3542 88.8129 38.9459 89.4013 38.645Z" fill="#0B080A"/>
<path d="M177.246 92.6519C187.925 92.6519 198.581 92.6519 209.259 92.6089C210.153 92.6089 210.131 93.0387 210.131 93.6619C210.131 105.374 210.131 117.087 210.131 128.8C210.131 133.463 210.109 138.105 210.153 142.769C210.153 143.714 209.957 144.015 208.933 144.015C199.235 143.972 189.559 143.994 179.861 143.994C178.946 141.329 178.445 138.535 177.726 135.827C176.767 132.195 175.917 128.542 175.002 124.91C174.871 124.415 174.806 123.943 174.806 123.427C174.827 120.268 174.827 117.13 174.806 113.971C174.806 113.455 174.871 112.982 175.22 112.574C175.961 111.671 176.244 110.618 176.309 109.479C176.549 105.117 176.789 100.775 177.028 96.4128C177.094 95.1448 177.159 93.8983 177.246 92.6519Z" fill="#FEFEFE"/>
<path d="M174.871 64.0903C186.29 64.0903 197.731 64.0903 209.15 64.0688C209.935 64.0688 210.109 64.3052 210.109 65.0359C210.088 73.7612 210.088 82.508 210.109 91.2333C210.109 91.8781 210 92.1789 209.238 92.1789C198.712 92.1574 188.186 92.1574 177.682 92.1574C177.53 92.1574 177.399 92.136 177.246 92.1145C177.377 90.5241 177.508 88.9123 177.617 87.322C177.835 83.7975 178.096 80.273 178.205 76.7485C178.271 74.6209 177.377 72.7512 175.786 71.3328C175.002 70.6236 174.74 69.8929 174.806 68.9043C174.871 67.314 174.849 65.7022 174.871 64.0903Z" fill="#FEFEFE"/>
<path d="M150.398 67.8941C152.817 68.0445 155.236 67.9371 157.655 67.8941C157.982 67.6577 158.309 67.6577 158.592 67.9586C158.963 68.7537 158.832 69.5704 158.788 70.387C158.527 74.1694 158.309 77.9518 158.178 81.7342C158.156 82.6583 158.091 83.5825 157.677 84.4421C157.306 90.8034 156.936 97.1647 156.587 103.526C153.318 103.462 150.028 103.44 146.759 103.333C145.909 103.311 145.103 102.924 144.34 102.537C144.078 102.215 144.035 101.828 144.078 101.42C144.275 99.6791 144.384 97.9599 144.492 96.2191C144.536 95.7248 144.623 95.2305 144.907 94.8007C145.081 94.5643 145.408 94.5858 145.713 94.3709C145.408 94.027 144.754 94.027 144.776 93.4253C145.081 88.5683 145.648 83.7544 145.996 78.8974C146.018 78.4676 146.105 78.0378 146.432 77.7154C147.631 77.2641 148.873 77.3071 150.05 77.694C151.313 78.1023 151.989 79.1338 152.011 80.4018C152.098 84.0553 152.12 87.7087 152.011 91.3622C151.967 92.845 151.096 93.7906 149.636 94.2419C151.096 94.07 152.033 93.017 152.229 91.3836C152.316 90.567 152.272 89.7289 152.272 88.9122C152.272 86.3333 152.294 83.7544 152.272 81.1755C152.251 78.6825 151.27 77.565 148.786 77.2426C147.718 77.0922 147.522 76.9203 147.5 75.7813C147.456 73.6752 147.478 71.5476 147.5 69.4414C147.5 67.7437 148.001 67.3568 149.701 67.6147C149.962 67.6577 150.18 67.7437 150.398 67.8941Z" fill="black"/>
<path d="M171.275 187.169C172.125 192.52 172.997 197.85 173.847 203.201C173.912 203.652 173.934 204.125 173.956 204.576C172.321 202.277 171.014 199.762 169.576 197.355C166.546 192.262 163.561 187.126 160.532 182.011C161.316 181.431 162.21 181.71 163.06 181.71C166.154 181.667 165.871 181.989 165.413 179.002C163.06 163.937 160.706 148.872 158.353 133.828C158.265 133.269 158.026 132.711 158.44 132.173C158.57 132.109 158.679 132.044 158.81 131.98C159.311 132.044 159.29 132.41 159.355 132.775C160.793 141.952 162.232 151.107 163.67 160.262C164.759 167.204 165.958 174.145 166.808 181.13C167.004 182.72 167.07 184.396 167.2 186.03C167.266 186.846 167.527 187.319 168.53 187.212C169.445 187.083 170.36 187.169 171.275 187.169Z" fill="#FEFEFE"/>
<path d="M158.483 67.9587C158.2 67.9372 157.938 67.9157 157.655 67.8728C157.415 66.6048 157.176 65.3368 156.914 64.0689C157.001 64.0474 157.089 64.0259 157.154 64.0044C161.796 64.0259 166.416 64.0474 171.057 64.0689C172.082 64.0689 173.084 64.0689 174.108 64.0904C174.108 65.9601 174.108 67.8513 174.108 69.8714C172.518 68.9043 170.927 68.2166 169.183 68.0232C166.873 67.7653 164.563 67.9802 162.232 67.9157C161.752 67.9157 161.73 68.2166 161.73 68.5605C161.73 72.9876 161.73 77.4362 161.73 81.8633C161.73 82.2931 161.883 82.4436 162.319 82.551C164.803 83.1743 165.762 86.7203 163.997 88.5685C163.234 89.3851 160.728 89.772 159.486 89.2132C158.222 88.6545 157.677 87.6229 157.786 86.269C157.829 85.6672 157.808 85.044 157.83 84.4422C157.808 83.3032 158.57 82.7445 159.486 82.4221C160.336 82.1212 160.554 81.6484 160.554 80.8103C160.532 77.0924 160.532 73.3744 160.532 69.6565C160.532 68.367 160.401 68.1306 159.159 68.1736C158.941 68.2166 158.701 68.1092 158.483 67.9587Z" fill="#FEFEFE"/>
<path d="M158.483 67.9586C160.902 67.8297 160.902 67.8297 160.902 70.2152C160.902 73.9761 160.88 77.737 160.924 81.4764C160.924 82.1211 160.88 82.5079 160.052 82.5724C158.941 82.6584 158.309 83.475 157.851 84.4206C157.786 84.4206 157.72 84.4206 157.655 84.4206C157.895 79.8861 158.134 75.3515 158.374 70.8169C158.44 69.8928 158.461 68.9257 158.483 67.9586Z" fill="#6DB5DE"/>
<path d="M174.174 113.541C174.174 116.206 174.174 118.591 174.174 120.977C174.13 120.977 174.087 120.998 174.021 120.998C173.498 119 172.91 117.001 172.518 114.981C172.343 114.035 173.542 114.25 174.174 113.541Z" fill="#F1F5F8"/>
<path d="M174.567 113.52C174.567 116.571 174.567 119.623 174.567 122.675C174.523 122.675 174.457 122.675 174.413 122.675C174.413 119.623 174.413 116.55 174.413 113.498C174.479 113.498 174.523 113.498 174.567 113.52Z" fill="#5883B0"/>
<path d="M87.6578 209.52C60.548 209.52 33.4601 209.519 6.35031 209.541C5.60937 209.541 5.34786 209.391 5.36965 208.617C5.41324 204.963 5.41324 201.31 5.36965 197.657C5.36965 196.969 5.56578 196.754 6.28492 196.754C20.5807 196.775 34.8765 196.797 49.1506 196.797C49.4774 196.797 49.8043 196.775 50.1312 196.775C62.3568 196.775 74.5823 196.775 86.8078 196.775C87.0911 201.009 87.3745 205.264 87.6578 209.52Z" fill="#FEFEFE"/>
<path d="M86.1541 186.911C78.2871 186.911 70.42 186.911 62.553 186.932C61.7031 186.932 61.5505 186.675 61.5505 185.901C61.5723 180.356 61.5941 174.812 61.5505 169.267C61.5505 168.472 61.7467 168.235 62.5748 168.235C66.8243 168.278 71.052 168.257 75.3015 168.257C75.149 170.17 75.0618 172.104 74.8003 173.995C74.6914 174.833 74.8439 175.069 75.6938 175.069C78.9191 175.026 82.1226 175.026 85.3478 175.026C85.6093 179.002 85.8708 182.957 86.1541 186.911Z" fill="#FEFEFE"/>
<path d="M119.453 196.818C120.543 201.052 121.632 205.285 122.744 209.498C122.373 209.884 121.872 209.82 121.414 209.82C116.947 209.82 112.501 209.82 108.034 209.82C107.576 209.82 107.075 209.884 106.704 209.519C106.269 205.264 105.833 201.009 105.397 196.775C105.767 196.474 106.203 196.517 106.639 196.517C110.474 196.517 114.31 196.517 118.145 196.517C118.581 196.517 119.082 196.453 119.453 196.818Z" fill="#FEFEFE"/>
<path d="M86.7862 196.195C81.556 196.195 76.3258 196.195 71.1174 196.238C70.4636 196.238 70.2239 196.066 70.2457 195.4C70.2893 193.079 70.2893 190.736 70.2457 188.415C70.2239 187.62 70.4418 187.384 71.2699 187.384C76.2386 187.427 81.2073 187.405 86.1977 187.405C86.3721 190.328 86.5683 193.251 86.7862 196.195Z" fill="#FEFEFE"/>
<path d="M122.918 210.078C123.201 211.174 123.463 212.292 123.812 213.366C123.986 213.904 123.724 214.033 123.332 214.162C119.083 216.654 114.811 219.147 110.562 221.662C109.734 222.156 108.884 222.65 107.925 223.209C107.62 220.158 107.337 217.256 107.053 214.355C107.14 212.915 106.77 211.518 106.726 210.1C107.053 209.82 107.467 209.842 107.86 209.842C112.458 209.842 117.056 209.842 121.654 209.842C122.09 209.82 122.526 209.863 122.918 210.078Z" fill="#FEFEFE"/>
<path d="M122.918 210.078C117.513 210.078 112.131 210.078 106.726 210.078C106.726 209.885 106.704 209.691 106.704 209.498C112.065 209.498 117.404 209.498 122.765 209.477C122.787 209.691 122.852 209.885 122.918 210.078Z" fill="#5881AE"/>
<path d="M119.453 196.817C114.768 196.795 110.06 196.774 105.375 196.774C105.375 196.602 105.353 196.409 105.353 196.237C109.603 196.237 113.874 196.237 118.124 196.237C118.559 196.237 119.126 196.409 119.148 195.679C119.235 196.044 119.344 196.43 119.453 196.817Z" fill="#5981AD"/>
<path d="M158.461 132.152C159.006 135.676 159.529 139.201 160.074 142.725C160.924 148.141 161.774 153.578 162.624 158.994C163.605 165.269 164.585 171.545 165.588 177.799C165.762 178.852 165.914 179.926 166.089 180.979C166.22 181.688 166.067 182.032 165.217 181.989C163.67 181.946 162.101 181.989 160.554 182.011C157.982 177.691 155.411 173.393 152.861 169.073C152.338 168.171 152.839 167.182 152.926 166.236C153.58 160.154 154.299 154.094 155.018 148.034C155.607 143.005 156.173 137.954 156.762 132.926C156.892 131.829 157.83 132.259 158.461 132.152Z" fill="#6DB5DE"/>
<path d="M141.899 209.541C140.7 205.307 139.676 201.052 138.696 196.775C138.957 196.539 139.284 196.517 139.611 196.517C142.161 196.517 144.71 196.517 147.282 196.517C147.543 196.517 147.783 196.582 148.001 196.689C150.267 200.966 152.512 205.221 154.778 209.498C154.408 209.884 153.928 209.82 153.449 209.82C150.049 209.82 146.65 209.82 143.272 209.82C142.771 209.82 142.313 209.841 141.899 209.541Z" fill="#FEFEFE"/>
<path d="M142.88 213.989C142.575 212.7 142.27 211.389 141.986 210.1C142.313 209.799 142.727 209.82 143.12 209.82C146.737 209.82 150.355 209.82 153.95 209.82C154.321 209.82 154.67 209.863 155.018 210.014C155.846 211.367 156.587 212.764 157.219 214.204C153.427 217.449 149.636 220.695 145.735 224.026C144.907 220.909 144.1 217.922 143.316 214.935C143.229 214.591 143.272 214.183 142.88 213.989Z" fill="#FEFEFE"/>
<path d="M138.521 196.217C137.802 193.272 137.061 190.328 136.342 187.384C136.495 187.212 136.713 187.147 136.93 187.147C138.805 187.126 140.679 187.126 142.553 187.147C142.749 187.147 142.902 187.233 143.054 187.341C144.732 190.221 146.236 193.186 147.739 196.152C147.434 196.475 147.042 196.475 146.65 196.475C144.274 196.475 141.921 196.475 139.546 196.475C139.153 196.496 138.805 196.475 138.521 196.217Z" fill="#FEFEFE"/>
<path d="M155.018 210.013C151.357 210.034 147.718 210.056 144.057 210.077C143.359 210.077 142.684 210.099 141.986 210.099C141.965 209.906 141.921 209.734 141.899 209.54C146.192 209.519 150.464 209.519 154.757 209.498C154.844 209.669 154.931 209.841 155.018 210.013Z" fill="#5881AE"/>
<path d="M138.521 196.216C141.594 196.195 144.667 196.173 147.739 196.152C147.827 196.324 147.914 196.495 148.001 196.667C144.906 196.689 141.79 196.732 138.696 196.753C138.63 196.581 138.565 196.41 138.521 196.216Z" fill="#5981AE"/>
<path d="M138.456 128.133C138.434 123.384 138.412 118.634 138.391 113.885C138.543 113.885 138.696 113.885 138.848 113.885C139.132 114.143 139.219 114.487 139.219 114.852C139.241 117.624 139.088 120.418 138.892 123.19C138.914 124.867 138.761 126.5 138.456 128.133Z" fill="#5981AD"/>
<path d="M138.892 123.212C138.87 120.117 138.87 117.001 138.848 113.906C139.197 113.885 139.567 113.756 139.807 114.143C139.567 116.958 139.328 119.795 139.066 122.61C139.066 122.804 138.957 122.997 138.892 123.212Z" fill="#DAE1EA"/>
<path d="M143.032 187.362C140.788 187.383 138.565 187.383 136.32 187.405C136.299 187.254 136.277 187.104 136.255 186.954C138.434 186.932 140.613 186.932 142.793 186.911C142.88 187.061 142.945 187.211 143.032 187.362Z" fill="#5881AE"/>
<path d="M150.398 67.8943C150.137 67.9158 149.897 67.9373 149.636 67.9373C147.761 67.9588 147.761 67.9588 147.761 69.8715C147.761 71.9776 147.783 74.0837 147.74 76.1898C147.74 76.77 147.87 76.9635 148.502 76.9849C151.314 77.0279 152.556 78.3174 152.556 81.0897C152.556 84.4208 152.556 87.7304 152.556 91.0615C152.556 92.9957 151.422 94.457 149.723 94.7364C149.352 94.8009 148.807 94.9943 148.698 94.4785C148.589 93.8983 149.2 94.0057 149.548 93.9413C150.791 93.6834 151.684 92.7593 151.684 91.4698C151.728 87.7519 151.728 84.034 151.684 80.316C151.662 78.8761 150.551 77.8661 149.069 77.8231C148.197 77.8016 147.326 77.8231 146.454 77.8446C146.062 78.124 145.648 78.1669 145.255 77.8446C145.321 77.5652 145.364 77.2643 145.43 76.9849C145.648 76.7056 145.996 76.7056 146.323 76.5981C146.912 75.8889 146.497 75.0508 146.628 74.2986C146.628 73.9332 146.628 73.5679 146.606 73.2025C146.606 72.0206 146.781 70.86 146.868 69.678C147.02 67.7868 147.456 65.9601 147.783 64.1119C147.849 64.0904 147.936 64.0689 148.001 64.0474C148.524 63.768 149.025 63.7251 149.527 64.0904C149.832 65.3369 150.115 66.6048 150.398 67.8943Z" fill="#FCFCFC"/>
<path d="M145.299 77.8018C145.691 77.8018 146.105 77.8018 146.497 77.8018C146.149 81.6486 145.778 85.4955 145.43 89.3424C145.299 90.8037 145.146 92.2651 144.994 93.7265C144.013 93.7695 143.163 92.9958 143.12 91.9428C143.098 91.47 143.054 90.9542 143.207 90.4814C143.686 86.5915 144.427 82.7447 145.081 78.8763C145.146 78.511 145.233 78.1671 145.299 77.8018Z" fill="#6DB5DE"/>
<path d="M145.124 94.7154C144.623 96.1123 144.819 97.5951 144.601 99.0135C144.427 100.174 144.405 101.356 144.318 102.517C141.136 101.786 141.136 101.786 141.703 98.6697C142.052 96.7785 142.422 94.9088 142.793 93.0176C143.643 93.4904 144.405 94.0921 145.124 94.7154Z" fill="#6DB5DE"/>
<path d="M135.601 103.547C134.555 103.547 133.509 103.547 132.463 103.547C132.136 103.547 131.744 103.547 131.744 103.096C131.766 102.645 132.18 102.71 132.485 102.71C134.642 102.71 136.822 102.71 138.979 102.71C139.284 102.71 139.72 102.624 139.742 103.075C139.764 103.611 139.284 103.526 138.957 103.526C137.846 103.547 136.713 103.547 135.601 103.547Z" fill="#0A0606"/>
<path d="M146.89 69.6562C146.89 70.8812 146.912 72.0847 146.912 73.3097C146.781 73.6965 146.868 74.1049 146.846 74.4917C146.759 75.3084 146.89 76.1465 146.519 76.9202C146.171 76.9202 145.822 76.9417 145.473 76.9417C145.931 74.5132 146.41 72.0847 146.89 69.6562Z" fill="#73B5DB"/>
<path d="M138.282 70.9462C137.889 70.9677 137.628 70.9892 137.562 70.6668C137.497 70.3445 137.737 70.2155 137.998 70.1725C139.371 69.9146 140.744 69.6568 142.117 69.3989C142.4 69.3559 142.662 69.4204 142.705 69.6997C142.771 70.0006 142.531 70.151 142.27 70.194C140.918 70.4734 139.524 70.7098 138.282 70.9462Z" fill="#0A0606"/>
<path d="M145.125 94.7147C144.122 94.4568 143.381 93.855 142.793 93.0384C142.793 92.1572 142.967 91.3191 143.207 90.481C143.25 91.8564 143.294 93.2318 144.972 93.7261C145.059 93.7906 145.146 93.855 145.234 93.898C145.604 94.0484 146.367 93.7906 146.214 94.4998C146.127 95.0155 145.539 94.7147 145.125 94.7147Z" fill="#F8F9FA"/>
<path d="M128.867 110.058C128.235 109.757 128.388 109.457 128.867 109.156C129.848 109.178 130.807 109.178 131.787 109.199C132.114 109.199 132.528 109.199 132.528 109.607C132.528 110.037 132.136 110.015 131.809 110.015C130.807 110.037 129.848 110.037 128.867 110.058Z" fill="#0C0808"/>
<path d="M128.867 107.394C128.366 107.093 128.192 106.793 128.889 106.492C129.892 106.492 130.894 106.514 131.897 106.514C132.202 106.514 132.528 106.535 132.507 106.922C132.507 107.287 132.18 107.33 131.875 107.351C130.872 107.373 129.87 107.394 128.867 107.394Z" fill="#180F0F"/>
<path d="M144.122 64.0907C144.122 64.7999 144.035 65.4661 143.555 66.1968C143.207 65.4232 142.902 64.7569 142.597 64.0907C143.12 63.6394 143.621 63.6179 144.122 64.0907Z" fill="#F6F4F6"/>
<path d="M141.943 62.2852C142.575 62.715 143.185 63.1663 143.904 63.4457C143.49 64.1119 142.945 63.7895 142.422 63.6391C142.27 63.1878 141.725 62.8654 141.943 62.2852Z" fill="#F7F4F3"/>
<path d="M142.4 63.639C142.88 63.5317 143.425 63.7894 143.882 63.4458C144.035 63.5102 144.187 63.5746 144.34 63.6605C144.275 63.8108 144.209 63.9611 144.122 64.1114C143.621 64.1114 143.12 64.1114 142.597 64.1114C142.553 63.9397 142.466 63.7894 142.4 63.639Z" fill="#5E81AA"/>
<path d="M193.09 196.732C201.218 196.732 209.347 196.753 217.475 196.753C226.214 196.753 234.975 196.775 243.713 196.732C244.672 196.732 244.934 196.99 244.912 197.935C244.847 201.417 244.847 204.877 244.912 208.359C244.934 209.283 244.694 209.562 243.713 209.562C228.393 209.519 213.073 209.541 197.775 209.541C197.296 209.541 196.838 209.541 196.358 209.562C195.16 205.307 194.048 201.03 193.09 196.732Z" fill="#FEFEFE"/>
<path d="M6.48101 148.507C5.28243 148.206 5.04273 146.809 5.21707 145.949C5.4132 144.982 6.17593 144.445 7.41809 144.445C30.7577 144.445 54.0974 144.445 77.4589 144.445C77.5896 145.605 77.2191 146.723 77.2409 147.862C77.2627 148.313 77.0448 148.528 76.5872 148.485C76.4346 148.485 76.3039 148.485 76.1513 148.485C52.9424 148.507 29.7117 148.507 6.48101 148.507Z" fill="#FEFEFE"/>
<path d="M96.4184 40.6225C95.9172 40.6225 95.6557 40.3861 95.6121 39.9992C95.5903 39.5909 95.83 39.333 96.2659 39.3115C96.6581 39.29 96.8978 39.5049 96.9196 39.8703C96.985 40.2786 96.7671 40.5365 96.4184 40.6225Z" fill="#130B0B"/>
<path d="M138.914 46.5756C138.892 45.0068 138.935 43.438 138.848 41.8691C138.805 41.0525 139.023 40.7731 139.916 40.7946C143.643 40.8376 147.369 40.8161 151.074 40.8161C151.226 41.2459 151.379 41.6757 151.553 42.1485C148.742 42.2345 146.105 42.8147 143.468 43.438C142.27 43.7174 141.093 44.1042 140.352 45.1787C139.633 45.3936 139.437 46.1243 138.914 46.5756Z" fill="#FEFEFE"/>
<path d="M146.977 52.3353C146.977 52.7651 146.737 53.023 146.323 53.0445C145.887 53.066 145.647 52.8081 145.647 52.3997C145.626 52.0129 145.844 51.798 146.236 51.755C146.65 51.712 146.89 51.9484 146.977 52.3353Z" fill="#0C0807"/>
<path d="M149.526 64.0685C149.025 64.047 148.502 64.047 148.001 64.0256C148.045 63.8538 148.066 63.682 148.11 63.4888C148.524 63.8538 149.352 63.1667 149.526 64.0685Z" fill="#617DA3"/>
<path d="M174.936 12.4048C190.649 12.4048 206.361 12.4048 222.095 12.4048C224.383 12.4048 225.103 13.114 225.103 15.349C225.103 17.1328 225.124 18.938 225.103 20.7218C225.081 22.4195 224.231 23.3222 222.509 23.3651C220.809 23.4081 219.088 23.3437 217.388 23.3866C216.756 23.4081 216.582 23.1717 216.582 22.57C216.604 21.2161 216.56 19.8406 216.604 18.4867C216.625 17.842 216.407 17.5411 215.732 17.6271C215.557 17.6486 215.361 17.6271 215.187 17.6271C188.535 17.6271 161.905 17.6271 135.253 17.6271C133.705 17.6271 133.901 17.4551 133.88 19.024C133.88 20.206 133.858 21.388 133.88 22.57C133.901 23.1502 133.749 23.4081 133.095 23.3866C131.134 23.3437 129.172 23.4081 127.211 23.3651C125.49 23.3222 124.661 22.441 124.661 20.7003C124.661 18.8091 124.661 16.8964 124.661 15.0052C124.661 13.1785 125.446 12.4048 127.32 12.4048C143.207 12.4048 159.072 12.4048 174.936 12.4048Z" fill="#FEFEFE"/>
<path d="M175.263 23.3653C162.057 23.3653 148.851 23.3438 135.645 23.3868C134.599 23.3868 134.25 23.1074 134.337 22.0759C134.424 21.0443 134.402 19.9912 134.337 18.9597C134.293 18.229 134.577 17.9711 135.274 18.0785C135.427 18.1 135.557 18.0785 135.71 18.0785C162.013 18.0785 188.317 18.0785 214.642 18.0785C216.037 18.0785 216.037 18.0785 216.037 19.454C216.037 20.5285 216.015 21.6031 216.037 22.6776C216.059 23.1934 215.862 23.4083 215.339 23.3653C215.056 23.3438 214.751 23.3653 214.468 23.3653C201.392 23.3653 188.339 23.3653 175.263 23.3653Z" fill="#FEFEFE"/>
<path d="M212.921 6.34437C212.921 7.9132 212.899 9.50353 212.942 11.0724C212.964 11.6741 212.746 11.889 212.136 11.8675C210.937 11.8245 209.739 11.8245 208.54 11.8675C207.887 11.889 207.756 11.6096 207.756 11.0509C207.778 7.82724 207.778 4.6036 207.756 1.37997C207.756 0.778225 207.952 0.563316 208.562 0.563316C209.695 0.606297 210.807 0.606297 211.94 0.563316C212.681 0.520334 212.964 0.735243 212.942 1.50892C212.877 3.12073 212.921 4.73255 212.921 6.34437Z" fill="#FEFEFE"/>
<path d="M138.303 6.23676C138.303 4.66793 138.325 3.0776 138.303 1.50877C138.282 0.86404 138.412 0.520185 139.197 0.563167C140.352 0.62764 141.529 0.606149 142.684 0.563167C143.316 0.541676 143.49 0.778077 143.49 1.37982C143.468 4.60346 143.468 7.82709 143.49 11.0507C143.49 11.631 143.381 11.9104 142.727 11.8674C141.529 11.8244 140.33 11.8244 139.132 11.8674C138.521 11.8889 138.303 11.6955 138.325 11.0722C138.325 9.4604 138.303 7.84858 138.303 6.23676Z" fill="#FEFEFE"/>
<path d="M34.6807 186.932C27.4892 186.932 20.3195 186.911 13.128 186.954C12.1909 186.954 11.8204 186.803 11.8422 185.75C11.9076 180.313 11.8858 174.876 11.8422 169.439C11.8422 168.601 11.9948 168.278 12.9536 168.278C27.4238 168.3 41.894 168.3 56.3859 168.278C57.3012 168.278 57.4319 168.579 57.4319 169.374C57.4101 174.876 57.3883 180.399 57.4319 185.901C57.4319 186.782 57.1486 186.954 56.3205 186.954C49.129 186.911 41.9157 186.932 34.6807 186.932Z" fill="#FEFEFE"/>
<path d="M34.7895 187.384C39.1698 187.384 43.5719 187.405 47.9521 187.362C48.8238 187.362 49.1507 187.534 49.129 188.458C49.0636 190.715 49.0854 192.971 49.129 195.228C49.1507 195.937 48.9982 196.238 48.1919 196.217C39.257 196.195 30.3439 196.195 21.409 196.217C20.7334 196.217 20.4501 196.066 20.4501 195.335C20.4937 192.971 20.4937 190.607 20.4501 188.243C20.4283 187.513 20.7117 187.362 21.3872 187.362C25.8765 187.405 30.3221 187.384 34.7895 187.384Z" fill="#FEFEFE"/>
<path d="M4.8468 225.81C3.64822 225.81 2.44963 225.788 1.27284 225.81C0.662657 225.831 0.553711 225.552 0.553711 225.036C0.553711 224.52 0.684449 224.262 1.27284 224.262C3.73538 224.284 6.19793 224.284 8.66047 224.262C9.24887 224.262 9.37963 224.499 9.37963 225.036C9.37963 225.552 9.24887 225.831 8.66047 225.81C7.37472 225.788 6.11076 225.81 4.8468 225.81Z" fill="#FCFCFD"/>
<path d="M158.745 40.8159C175.547 40.8159 192.327 40.8159 209.129 40.7944C209.979 40.7944 210.131 41.0738 210.131 41.826C210.109 47.5856 210.088 53.3451 210.131 59.1047C210.131 59.9213 209.913 60.1147 209.107 60.1147C193.591 60.0933 178.053 60.0933 162.536 60.0933C162.188 60.0933 161.708 60.3082 161.534 59.7494C161.992 58.2236 161.948 56.7407 161.381 55.2363C160.292 52.335 159.398 49.3693 158.178 46.511C157.742 45.5224 157.241 44.5768 156.456 43.8246C156.13 43.5238 155.999 43.3304 156.522 43.0725C157.481 42.5782 158.156 41.7185 158.745 40.8159Z" fill="#FEFEFE"/>
<path d="M156.217 57.4069C155.759 55.3008 155.367 53.3881 154.931 51.4755C154.8 50.9597 154.931 50.8307 155.432 50.8952C155.934 50.9597 156.435 50.9167 156.936 51.0671C158.135 51.4325 159.05 52.0772 159.311 53.3022C159.573 54.5057 158.941 55.4513 158.047 56.2035C157.503 56.6333 156.892 56.9556 156.217 57.4069Z" fill="#FC9993"/>
<path d="M215.296 186.932C208.083 186.932 200.869 186.911 193.634 186.954C192.719 186.954 192.479 186.718 192.501 185.815C192.545 180.335 192.545 174.855 192.501 169.396C192.501 168.493 192.785 168.257 193.678 168.257C208.105 168.278 222.553 168.278 236.98 168.257C237.829 168.257 238.178 168.407 238.178 169.353C238.135 174.855 238.135 180.378 238.178 185.879C238.178 186.76 237.873 186.932 237.067 186.932C229.81 186.911 222.553 186.932 215.296 186.932Z" fill="#FEFEFE"/>
<path d="M215.339 196.217C210.981 196.217 206.623 196.195 202.264 196.238C201.458 196.238 201.131 196.109 201.153 195.206C201.218 192.885 201.196 190.543 201.153 188.222C201.131 187.556 201.371 187.384 202.024 187.384C210.981 187.405 219.959 187.405 228.916 187.384C229.613 187.384 229.766 187.62 229.766 188.265C229.744 190.629 229.722 192.993 229.766 195.357C229.788 196.088 229.526 196.26 228.829 196.238C224.34 196.195 219.829 196.217 215.339 196.217Z" fill="#FEFEFE"/>
<path d="M244.868 225.809C243.713 225.809 242.558 225.788 241.382 225.809C240.837 225.831 240.488 225.745 240.51 225.078C240.51 224.477 240.706 224.262 241.316 224.283C243.735 224.305 246.176 224.305 248.595 224.283C249.161 224.283 249.358 224.455 249.358 225.014C249.358 225.616 249.183 225.852 248.551 225.831C247.331 225.788 246.111 225.809 244.868 225.809Z" fill="#FCFCFD"/>
<path d="M50.0007 108.319C50.0007 105.439 50.0007 102.581 50.0007 99.7012C50.0879 99.7012 50.1751 99.7012 50.2622 99.7012C50.2622 102.087 50.2622 104.451 50.2622 106.836C50.2622 107.244 50.1315 107.696 50.4148 108.083C51.5044 110.189 53.0952 111.887 54.8822 113.391C56.9961 115.196 58.8266 117.281 60.7662 119.236C62.4442 120.934 64.558 121.88 66.7591 122.589C69.2652 123.427 71.9021 121.686 72.3597 119.107C73.2532 114.079 73.5147 109.028 73.1007 103.956C73.0789 103.591 73.1225 103.247 73.3186 102.925C73.3404 102.645 73.4493 102.409 73.7326 102.302C74.5389 107.954 74.1467 113.563 73.1661 119.172C72.5777 122.503 69.2216 124.48 66.0399 123.234C63.4684 122.202 61.0495 120.934 59.11 118.764C56.7782 116.142 54.1195 113.778 51.6352 111.285C50.8288 110.447 50.0879 109.544 50.0007 108.319Z" fill="#5C84B0"/>
<path d="M54.773 52.8938C54.6859 53.9898 54.3808 54.8709 53.5745 55.4727C52.5502 56.2248 51.3735 56.7191 50.1749 57.106C48.9763 57.4928 47.9521 56.2893 48.4315 55.1073C49.3686 52.7863 50.3492 50.4868 51.3516 48.2087C51.6785 47.4781 52.5938 47.3061 52.8771 47.9294C53.6834 49.5627 54.3808 51.239 54.773 52.8938Z" fill="#202B6D"/>
<path d="M60.8532 57.9657C60.9186 58.3096 60.6788 58.46 60.4391 58.6319C59.3495 59.4056 58.2817 60.1793 57.1921 60.9744C56.9523 61.1464 56.6908 61.3828 56.4511 61.0604C56.1678 60.695 56.4511 60.4801 56.7344 60.2867C57.6061 59.6635 58.4778 59.0188 59.3713 58.3955C59.8289 58.0946 60.0251 57.8153 59.9161 57.192C59.5021 54.828 59.1751 52.464 58.8047 50.1C58.7829 49.9281 58.7611 49.7347 58.7393 49.5628C58.7393 49.3264 58.6739 49.0255 59.0226 48.961C59.4149 48.8965 59.5238 49.1759 59.5674 49.4768C59.6982 50.3149 59.8289 51.1746 59.9597 52.0127C60.2648 54.0114 60.5699 55.9885 60.8532 57.9657Z" fill="#030303"/>
<path d="M73.3185 102.946C73.8851 108.319 73.6018 113.649 72.7083 118.957C72.1635 122.159 68.9818 123.964 65.9309 122.675C63.2722 121.557 60.8533 120.139 58.9791 117.861C57.0178 115.475 54.4899 113.606 52.376 111.349C51.4825 110.403 50.6109 109.436 50.4365 108.082C50.4365 105.589 50.4365 103.075 50.4365 100.389C51.0467 100.883 51.2428 101.442 51.5043 101.936C53.3131 105.461 56.1026 107.782 60.0906 108.512C63.9914 109.243 67.391 108.147 70.333 105.546C71.3137 104.687 72.3161 103.827 73.3185 102.946Z" fill="#FEFEFE"/>
<path d="M90.7743 71.1396C92.8445 71.1396 94.2393 71.9993 94.2175 73.3102C94.1957 75.3734 93.3893 76.6413 92.0818 76.6628C90.0115 76.7273 88.6168 75.8676 88.595 74.5567C88.5732 72.4936 89.4231 71.1611 90.7743 71.1396Z" fill="#010101"/>
<path d="M158.679 86.0106C158.679 83.797 159.115 83.3887 161.316 83.3887C163.474 83.3887 163.931 83.84 163.931 86.075C163.931 88.1382 163.452 88.5895 161.272 88.5895C159.115 88.568 158.679 88.1382 158.679 86.0106Z" fill="#6DB5DE"/>
<path d="M146.519 76.9202C146.432 76.0606 146.693 75.201 146.759 74.3628C146.802 74.2554 146.868 74.2554 146.933 74.3628C146.933 75.0505 146.955 75.7597 146.955 76.4474C146.955 76.7268 146.977 77.0277 146.519 76.9202Z" fill="#3D4245"/>
<path d="M146.913 74.3407H146.825H146.737C146.715 73.9757 146.628 73.6107 146.891 73.2886C146.913 73.6536 146.913 73.9972 146.913 74.3407Z" fill="#576770"/>
</svg>
